<svg xmlns="http://www.w3.org/2000/svg" width="46.036" height="48.663" viewBox="0 0 46.036 48.663">
  <g id="Group_450" data-name="Group 450" transform="translate(0.6 0.6)">
    <g id="Group_451" data-name="Group 451" transform="translate(0 0)">
      <ellipse id="Ellipse_14" data-name="Ellipse 14" cx="5.284" cy="5.284" rx="5.284" ry="5.284" transform="translate(17.497 11.116)" fill="none" stroke="#7f3f97" stroke-width="1.2"/>
      <path id="Path_71570" data-name="Path 71570" d="M25.839,76.786V58.229a5.251,5.251,0,0,1,5.251-5.251H42.968a5.251,5.251,0,0,1,5.251,5.251V76.786" transform="translate(-14.248 -28.724)" fill="none" stroke="#7f3f97" stroke-width="1.2"/>
      <line id="Line_8" data-name="Line 8" y2="12.126" transform="translate(15.528 35.937)" fill="none" stroke="#7f3f97" stroke-linejoin="round" stroke-width="1.2"/>
      <line id="Line_9" data-name="Line 9" y2="12.126" transform="translate(29.673 35.937)" fill="none" stroke="#7f3f97" stroke-linejoin="round" stroke-width="1.2"/>
      <line id="Line_10" data-name="Line 10" y2="12.126" transform="translate(40.581 35.937)" fill="none" stroke="#7f3f97" stroke-linejoin="round" stroke-width="1.2"/>
      <line id="Line_11" data-name="Line 11" y2="12.126" transform="translate(4.293 35.937)" fill="none" stroke="#7f3f97" stroke-linejoin="round" stroke-width="1.2"/>
      <ellipse id="Ellipse_15" data-name="Ellipse 15" cx="5.284" cy="5.284" rx="5.284" ry="5.284" transform="translate(29.964 11.116)" fill="none" stroke="#7f3f97" stroke-linejoin="round" stroke-width="1.2"/>
      <path id="Path_71571" data-name="Path 71571" d="M75.963,52.978h4.605a5.251,5.251,0,0,1,5.251,5.251V71.266h-4.3" transform="translate(-40.983 -28.724)" fill="none" stroke="#7f3f97" stroke-linejoin="round" stroke-width="1.2"/>
      <ellipse id="Ellipse_16" data-name="Ellipse 16" cx="5.284" cy="5.284" rx="5.284" ry="5.284" transform="translate(4.305 11.116)" fill="none" stroke="#7f3f97" stroke-linejoin="round" stroke-width="1.2"/>
      <ellipse id="Ellipse_17" data-name="Ellipse 17" cx="5.284" cy="5.284" rx="5.284" ry="5.284" transform="translate(24.093)" fill="none" stroke="#7f3f97" stroke-linejoin="round" stroke-width="1.2"/>
      <ellipse id="Ellipse_18" data-name="Ellipse 18" cx="5.284" cy="5.284" rx="5.284" ry="5.284" transform="translate(10.901)" fill="none" stroke="#7f3f97" stroke-linejoin="round" stroke-width="1.2"/>
      <path id="Path_71572" data-name="Path 71572" d="M11.323,52.978H6.251A5.251,5.251,0,0,0,1,58.229V71.266H5.3" transform="translate(-1 -28.724)" fill="none" stroke="#7f3f97" stroke-linejoin="round" stroke-width="1.2"/>
      <path id="Path_71573" data-name="Path 71573" d="M45.1,77.467l1.757,1.757,3.305-3.305" transform="translate(-24.522 -40.96)" fill="none" stroke="#7f3f97" stroke-linejoin="round" stroke-width="1.2"/>
      <path id="Path_71574" data-name="Path 71574" d="M49.28,52.978a3.778,3.778,0,1,1-7.555,0" transform="translate(-22.722 -28.724)" fill="none" stroke="#7f3f97" stroke-linejoin="round" stroke-width="1.2"/>
    </g>
  </g>
</svg>
