<svg xmlns="http://www.w3.org/2000/svg" width="46.784" height="46.963" viewBox="0 0 46.784 46.963">
  <g id="Group_456" data-name="Group 456" transform="translate(0.595 0.557)">
    <g id="Group_457" data-name="Group 457" transform="translate(0 0)">
      <path id="Path_71579" data-name="Path 71579" d="M27.517,11.347c-2.118,1.874-4.944,2.723-6.892,4.938a3.07,3.07,0,0,1,2.119-4.077c5.583-2.142,11.262-3.146,17.155-1.04,9.165,3.275,14.563,9.815,15.564,19.334.974,9.26-2.826,16.746-10.8,21.742a21.34,21.34,0,0,1-21.577,1.138c-7.408-3.548-11.87-9.516-12.87-17.779A20.952,20.952,0,0,1,12.7,22.5a22.3,22.3,0,0,1,4.918-6.529" transform="translate(-10.035 -10.006)" fill="none" stroke="#7f3f97" stroke-linecap="round" stroke-linejoin="round" stroke-width="1.2"/>
      <path id="Path_71580" data-name="Path 71580" d="M64.51,15.442c-.764.641-1.873.68-2.515,1.623-.376.552-1.081.12-1.587-.025-.145-.886.917-.643.972-1.291-.051-.092-.085-.262-.173-.3-2.464-.984-3.555-.768-5.418,1.333-.643.725-2.129.816-1.83,2.3.567.458,1.488-.562,2.072.6.2.394,1.089-.31,1.051-1.1a1.853,1.853,0,0,1,1.449-2.023c.717.791-.519,1.192-.29,1.859.6.483,1.442-.513,1.98.33,0,.11.043.289-.006.32-1.257.783-2.54,1.527-3.785,2.329-.947.61-1.2-.49-1.907-.739-.557.579-.8,1.43-1.709,1.773-.72.272-1.6.277-2.235,1.016.122.381.489.918.348,1.218a1.394,1.394,0,0,1-1.435.7c-.632-.051-1.241-.106-1.528.8a.884.884,0,0,0,.385,1.154,1.815,1.815,0,0,0,1.956-.175,16.561,16.561,0,0,0,1.667-1.291c1.6-1.152,2.422-.838,3.142,1.147a3.2,3.2,0,0,0,.46.672c.984-.021,1.28-.482.839-1.323-.246-.47-.262-.911.189-1.137s.817.121,1.15.464c.684.705.544,1.833,1.327,2.491l.625-1.323c.6-.161.729.425.81.666a1.36,1.36,0,0,0,1.844.951c1.022-.289,1.557-.064,1.659,1.018a1.631,1.631,0,0,1-1.651,1.814,12.153,12.153,0,0,1-3.47-.642c-.36-.085-.713-.513-1.162-.026-1.1,1.191-1.88.139-2.613-.505-.648-.569-.783-1.673-2-1.648-1.669.034-3.41-.1-4.763,1.034a13.718,13.718,0,0,0-3.338,3.926,6.523,6.523,0,0,0,.5,5.789c1.129,1.526,2.506,2.442,4.455,1.79a2.765,2.765,0,0,1,2.3.217,3.848,3.848,0,0,0,1.771.31,4.358,4.358,0,0,1,.039,1.3,2.6,2.6,0,0,0,.48,2.51c.432.561.994,1.423.657,2.1-1.223,2.45.789,4.3,1.067,6.452.091.7,2.084.85,2.522-.036.662-1.341,2.784-1.514,2.573-3.427-.011-.1.185-.267.318-.321,1.935-.79,2.207-2.589,2.639-4.3.395-1.56,1.666-2.493,2.649-3.622.7-.8,1.573-1.467,1.687-2.622-4.084-.487-4.739-3.75-5.67-6.832.766-.672,1.351-.249,1.817.375a9.11,9.11,0,0,1,1.795,3.3c.269,1.175.789,1.38,1.853,1a5.2,5.2,0,0,0,2.651-1.325c.343-.417.626-.777.478-1.334-.162-.609-.689-.567-1.154-.665-1.432-.3-1.988-1.052-1.981-2.82,1.711.929,3.217,2.276,5.28,2,.713,1.1,1.813,1.972,2.13,3.3.244,1.027.344,2.087.52,3.205,1.014-.746.947-1.887,1.119-2.883a2.4,2.4,0,0,1,.853-1.811" transform="translate(-33.164 -13.275)" fill="none" stroke="#7f3f97" stroke-linecap="round" stroke-linejoin="round" stroke-width="1.2"/>
      <path id="Path_71585" data-name="Path 71585" d="M11.5,86.569a4.441,4.441,0,0,1,2.274,2.33,4.849,4.849,0,0,0,3,2.814A2.421,2.421,0,0,1,18.554,94c.049,1.644.923,3.309-.09,4.97-.22.36-.032.97-.032,1.466" transform="translate(-11.016 -61.298)" fill="none" stroke="#7f3f97" stroke-linecap="round" stroke-linejoin="round" stroke-width="1.2"/>
      <path id="Path_71586" data-name="Path 71586" d="M24.451,27.069c-.5,3.028-2.637,4.8-4.951,6.436" transform="translate(-16.376 -21.437)" fill="none" stroke="#7f3f97" stroke-linecap="round" stroke-linejoin="round" stroke-width="1.2"/>
      <path id="Path_71587" data-name="Path 71587" d="M106.976,115.069c-.352,1.533-1.639,2.428-2.476,3.631" transform="translate(-73.32 -80.391)" fill="none" stroke="#7f3f97" stroke-linecap="round" stroke-linejoin="round" stroke-width="1.2"/>
      <path id="Path_71589" data-name="Path 71589" d="M37.145,21.569A4.552,4.552,0,0,0,35,23.054" transform="translate(-26.76 -17.752)" fill="none" stroke="#7f3f97" stroke-linecap="round" stroke-linejoin="round" stroke-width="1.2"/>
    </g>
  </g>
</svg>
