<svg xmlns="http://www.w3.org/2000/svg" width="53.625" height="46.433" viewBox="0 0 53.625 46.433">
  <g id="Group_460" data-name="Group 460" transform="translate(0.601 0.6)">
    <g id="Group_461" data-name="Group 461" transform="translate(-0.001 0)">
      <path id="Path_71590" data-name="Path 71590" d="M40.507,31.188l7.85-8.108s2.314-1.636,4.349,0a3.379,3.379,0,0,1,.737,4.164c-1,2.064-10.246,12.2-10.246,12.2a10.188,10.188,0,0,1-7.261,2.764c-4.68-.037-13.6,0-13.6,0a6.737,6.737,0,0,0-4.6,2.77L7.453,35.059l.143-.406s5.086-9.73,17.229-5.9l12.549.037A3.575,3.575,0,0,1,40.507,32.4a3.228,3.228,0,0,1-2.8,3.28H25.3" transform="translate(-1.434 -3.055)" fill="none" stroke="#7f3f97" stroke-width="1.2"/>
      <path id="Path_71591" data-name="Path 71591" d="M18.17,47.531h0a7.139,7.139,0,0,1-10.094.182L.7,40.6l4.955-5.138Z" transform="translate(-0.7 -4.48)" fill="none" stroke="#7f3f97" stroke-linejoin="round" stroke-width="1.2"/>
      <rect id="Rectangle_13600" data-name="Rectangle 13600" width="4.539" height="11.62" transform="translate(16.345 7.859)" fill="none" stroke="#7f3f97" stroke-width="1.2"/>
      <rect id="Rectangle_13601" data-name="Rectangle 13601" width="4.539" height="15.525" transform="translate(23.9 3.954)" fill="none" stroke="#7f3f97" stroke-width="1.2"/>
      <rect id="Rectangle_13602" data-name="Rectangle 13602" width="4.539" height="19.479" transform="translate(31.206)" fill="none" stroke="#7f3f97" stroke-width="1.2"/>
    </g>
  </g>
</svg>
