<svg xmlns="http://www.w3.org/2000/svg" width="57.935" height="70.94" viewBox="0 0 57.935 70.94">
  <g id="Group_52445" data-name="Group 52445" transform="translate(0)">
    <g id="Group_52446" data-name="Group 52446">
      <path id="Path_93275" data-name="Path 93275" d="M24.848,61.561a84.815,84.815,0,0,1-.107-8.957,1.64,1.64,0,0,0-.255-.862,24.289,24.289,0,0,0-5.646-6.717c-.373-.317-.538-.143-.8.1a9.363,9.363,0,0,1-5.312,2.713A7.087,7.087,0,0,1,6.44,45.148,28.583,28.583,0,0,1,4,41.777,5.931,5.931,0,0,0,.478,38.82a.636.636,0,0,1-.47-.635.869.869,0,0,1,.376-.924,19.644,19.644,0,0,1,8.482-3.053c4.089-.271,7.276,1.728,9.1,5.606a14.849,14.849,0,0,1,.947,2.5,2.149,2.149,0,0,0,.777,1.2,25.454,25.454,0,0,1,4.976,5.269c.061.087.138.163.244.288.21-2.412.486-4.742.582-7.08a8.4,8.4,0,0,0-.785-2.983,24.889,24.889,0,0,0-2.981-5.82c-.235-.345-.393-.4-.766-.177a9.246,9.246,0,0,1-4.734,1.441c-2.946.008-4.933-1.57-6.368-3.983a22.42,22.42,0,0,1-1.635-4.2,6.473,6.473,0,0,0-2.533-3.7.827.827,0,0,1,.138-1.543A15.95,15.95,0,0,1,16.2,20.55c3.448,1.132,5.273,3.687,5.962,7.148a7.342,7.342,0,0,1,.249,1.952,4.458,4.458,0,0,0,1.043,3.093,23.386,23.386,0,0,1,2.9,5.615c.622-1.8,1.414-3.4,1.949-5.081a9.313,9.313,0,0,0,.045-3.3,33.433,33.433,0,0,0-2.021-9.409c-.2-.542-.4-.643-.94-.5a11.869,11.869,0,0,1-7.753-.166,9.16,9.16,0,0,1-5.62-7.093,50.724,50.724,0,0,1-.567-5.681c-.2-2.059-.545-4.06-2.034-5.658C8.907.927,9.2.447,9.605,0h3.814c1.148.188,2.3.34,3.444.57a16.512,16.512,0,0,1,7.92,3.622,10.745,10.745,0,0,1,3.6,7.638,18.957,18.957,0,0,1-.768,6.482,1.328,1.328,0,0,0-.013.895,35.725,35.725,0,0,1,2.455,10.458,3.025,3.025,0,0,0,.075.317c.833-1.345,1.669-2.583,2.548-3.791.163-.224.08-.5.081-.759a21.064,21.064,0,0,1,1.361-7.8A12.366,12.366,0,0,1,44.3,9.615a28.27,28.27,0,0,1,12.408,1.01,5.837,5.837,0,0,1,.66.246c.592.25.783.951.267,1.276-3.093,1.946-3.847,5.267-4.966,8.361a20.768,20.768,0,0,1-2.163,4.879c-2.9,4.221-7,5.722-11.933,4.352a15.563,15.563,0,0,1-4.242-1.871c-.356-.227-.567-.256-.848.141a34.241,34.241,0,0,0-6.255,14.568c-.385,2.456-.489,4.956-.721,7.452.34.013.387-.238.5-.386a25.868,25.868,0,0,1,4.269-4.4,2.629,2.629,0,0,0,.952-1.41,12.821,12.821,0,0,1,2.379-4.762c2.335-2.826,5.387-3.611,8.881-3.023a18.722,18.722,0,0,1,6.851,2.676c.4.251.833.5.78,1.072s-.531.663-.949.81a5.8,5.8,0,0,0-2.7,2.3c-.787,1.085-1.505,2.221-2.3,3.3A7.356,7.356,0,0,1,34.865,48.1a9.243,9.243,0,0,1-1.82-1.444c-.272-.29-.453-.359-.8-.062a24.087,24.087,0,0,0-5.677,6.959,2.253,2.253,0,0,0-.242,1.019,57.571,57.571,0,0,0,.158,6.982l-1.636.01" transform="translate(0)" fill="#7aa21c"/>
      <path id="Path_93276" data-name="Path 93276" d="M61.7,315.606a7.815,7.815,0,0,0-10.468-9.8,5.241,5.241,0,0,0-7.867-1.363,5.243,5.243,0,0,0-9.493.069,5.241,5.241,0,0,0-8.169,3.947c-.178.067-.356.134-.534.205a22.211,22.211,0,0,0-9.487,6.715c-.064.081-.12.157-.167.229Z" transform="translate(-12.59 -244.666)" fill="#a37a27"/>
    </g>
  </g>
</svg>
