<svg id="Group_52443" data-name="Group 52443" xmlns="http://www.w3.org/2000/svg" xmlns:xlink="http://www.w3.org/1999/xlink" width="65.462" height="60.625" viewBox="0 0 65.462 60.625">
  <defs>
    <clipPath id="clip-path">
      <rect id="Rectangle_15873" data-name="Rectangle 15873" width="65.462" height="60.626" fill="#486601"/>
    </clipPath>
  </defs>
  <g id="Group_52442" data-name="Group 52442" clip-path="url(#clip-path)">
    <path id="Path_93252" data-name="Path 93252" d="M44.561,86.665c-2.144.012-1.773-.177-1.864,1.757-.018.389.179.874-.177,1.151-.427.332-.3.416.039.74,1.682,1.632,1.112,6.2-.982,7.286a1.526,1.526,0,0,0-.962,1.638,5.989,5.989,0,0,1-1.315,3.876c-1.44,1.835-1.45,1.844.473,3.3a5.745,5.745,0,0,0,1.5.884,21.38,21.38,0,0,1,7.217,3.771c.749-1.865.749-1.865,2.813-.585a2.249,2.249,0,0,1-.317.412c-1.05.857-.992,1.521-.009,2.555a20.437,20.437,0,0,1,4.738,9.387,1.631,1.631,0,0,1-.068,1.03q-27.261,0-54.522.026c-.927,0-1.275-.19-1.074-1.106.059-.064.156-.121.172-.195,1.52-7.163,5.657-12.04,12.583-14.544A12.62,12.62,0,0,0,17.3,105.13c.5-.489.525-.775,0-1.254a6.689,6.689,0,0,1-2.16-5.042c-.007-.326.169-.743-.308-.927-2.4-.923-2.575-3.03-2.607-5.12-.035-2.278.733-2.872,3.11-2.417a2.279,2.279,0,0,1-.843-2.726c.213-.833-.077-1-.843-.993m3.692,0c-.792-.008-1.106.178-1.1,1.044.045,3.82-.021,7.641.041,11.46a5.274,5.274,0,0,0,1.611,3.874c1.465,1.394,2.912,2.807,4.356,4.222a5.172,5.172,0,0,0,3.377,1.472,39.877,39.877,0,0,0,4.58.052,4.651,4.651,0,0,0,3.14-1.329q2.188-2.1,4.372-4.206a5.184,5.184,0,0,0,1.724-3.819c.009-3.91-.021-7.821.024-11.73.01-.868-.305-1.049-1.1-1.041M27.9,117.661a15.342,15.342,0,0,0,3.761-.306c4.317-.807,7.974-2.67,10.352-6.565.565-.926.742-1.511-.609-1.842a6.947,6.947,0,0,1-3.76-2.248c-.837-1.014-1.309-.675-2.043.076-1.182,1.21-2.273,2.751-4.051,2.984-4.2.55-8.415.829-11.414-3.14-.161-.213-.394-.369-.574-.569-.294-.327-.567-.38-.891-.027a14.7,14.7,0,0,1-5.647,3.558c-.695.275-.564.65-.273,1.141a10.022,10.022,0,0,0,2.447,2.843c3.734,2.92,8.077,3.954,12.7,4.1m-12.943-23.3.043,0c-.049-.8-.048-1.6-.166-2.39a.87.87,0,0,0-.932-.79c-.489.043-.576.5-.618.9a6.6,6.6,0,0,0,.393,3.537c.215.465.456,1.153,1.06,1,.453-.113.169-.777.213-1.193a10.282,10.282,0,0,0,.008-1.068m25.839,2.267c.764.078.968-.481,1.2-.93a5.848,5.848,0,0,0,.478-3.282c-.046-.5.029-1.237-.718-1.226-.688.01-.945.616-.952,1.253-.017,1.388-.005,2.776-.005,4.185" transform="translate(0 -63.263)" fill="#486601"/>
    <path id="Path_93253" data-name="Path 93253" d="M223.739,77.037c-.445,1.852-.877,3.708-1.341,5.556a1.947,1.947,0,0,1-1.752,1.607,1.23,1.23,0,0,1-1.312-.722,2.047,2.047,0,0,1,.316-2.371c1.153-1.533,3.122-2.274,4.089-4.07" transform="translate(-159.956 -56.246)" fill="#486601"/>
    <path id="Path_93254" data-name="Path 93254" d="M206.75,86.154a12.307,12.307,0,0,0,1.659,3.628,2.412,2.412,0,0,1,.184,2.652,1.121,1.121,0,0,1-1.328.376,2.378,2.378,0,0,1-1.633-2.234,8.138,8.138,0,0,1,1.118-4.423" transform="translate(-150.109 -62.902)" fill="#486601"/>
    <path id="Path_93255" data-name="Path 93255" d="M211.58,133.747c-.858,1.543-1.7,3.065-3.541,3.575-1.192.33-2.283-.081-2.442-.995-.208-1.2.652-1.625,1.619-1.9,1.417-.4,2.953-.024,4.363-.684" transform="translate(-150.087 -97.651)" fill="#486601"/>
    <path id="Path_93256" data-name="Path 93256" d="M199.031,100.305a8.705,8.705,0,0,0,1.515,3.114c.126.183.247.37.357.563a2.276,2.276,0,0,1,.186,2.622,1.088,1.088,0,0,1-1.314.381,2.545,2.545,0,0,1-1.672-2.229,8.751,8.751,0,0,1,.928-4.451" transform="translate(-144.602 -73.234)" fill="#486601"/>
    <path id="Path_93257" data-name="Path 93257" d="M191.9,115.03a10,10,0,0,0,1.761,3.444,2.4,2.4,0,0,1,.339,2.647,1.114,1.114,0,0,1-1.42.472,2.563,2.563,0,0,1-1.66-2.4,7.581,7.581,0,0,1,.98-4.165" transform="translate(-139.38 -83.985)" fill="#486601"/>
    <path id="Path_93258" data-name="Path 93258" d="M184.142,128.75a9.311,9.311,0,0,0,1.466,3,6.216,6.216,0,0,1,.445.674,2.429,2.429,0,0,1,.279,2.54,1.125,1.125,0,0,1-1.3.489,2.392,2.392,0,0,1-1.744-2.028c-.364-1.575.321-2.988.857-4.671" transform="translate(-133.745 -94.003)" fill="#486601"/>
    <path id="Path_93259" data-name="Path 93259" d="M197.739,162.477a8.8,8.8,0,0,1-2.932,3.1,2.842,2.842,0,0,1-1.384.439c-1.006,0-2-.177-2.094-1.365-.093-1.119.842-1.5,1.763-1.623,1.492-.2,3.029.074,4.648-.545" transform="translate(-139.687 -118.627)" fill="#486601"/>
    <path id="Path_93260" data-name="Path 93260" d="M219.084,119.139a9.141,9.141,0,0,1-2.507,3.012,3.253,3.253,0,0,1-2.549.6,1.309,1.309,0,0,1-1.191-1.1,1.335,1.335,0,0,1,.708-1.467,3.184,3.184,0,0,1,1.665-.446,10.513,10.513,0,0,0,3.876-.6" transform="translate(-155.375 -86.985)" fill="#486601"/>
    <path id="Path_93261" data-name="Path 93261" d="M226.178,104.455a8.645,8.645,0,0,1-2.143,3.091,3.668,3.668,0,0,1-1,.651,2.3,2.3,0,0,1-2.411-.148,1.142,1.142,0,0,1-.439-1.312,2.2,2.2,0,0,1,1.964-1.4,17.809,17.809,0,0,0,4.029-.878" transform="translate(-160.715 -76.264)" fill="#486601"/>
    <path id="Path_93262" data-name="Path 93262" d="M176.7,144.455a18.966,18.966,0,0,0,1.9,3.257,2.317,2.317,0,0,1,.308,2.521,1.154,1.154,0,0,1-1.419.476,2.333,2.333,0,0,1-1.641-2.088,6.993,6.993,0,0,1,.853-4.165" transform="translate(-128.335 -105.469)" fill="#486601"/>
    <path id="Path_93263" data-name="Path 93263" d="M205.012,147.291a10.408,10.408,0,0,1-2.2,2.726,3.386,3.386,0,0,1-2.733.865,1.414,1.414,0,0,1-1.392-1.223,1.342,1.342,0,0,1,.929-1.468,3.332,3.332,0,0,1,1.565-.33,10.109,10.109,0,0,0,3.832-.571" transform="translate(-145.05 -107.54)" fill="#486601"/>
    <path id="Path_93264" data-name="Path 93264" d="M218.348,76.972l-1.7,4.954c-.677-.836,0-2.859,1.7-4.954" transform="translate(-157.987 -56.199)" fill="#486601"/>
    <path id="Path_93265" data-name="Path 93265" d="M232.179,93.9l2.276-3.342c-.44,1.341-.625,2.845-1.9,3.636l-.38-.293" transform="translate(-169.518 -66.115)" fill="#486601"/>
    <path id="Path_93266" data-name="Path 93266" d="M88.1,134.652c-2.675-.335-5.14.716-7.321-.561-.331-.194-.907-.195-.856-.7.052-.519.675-.243.981-.469a13.739,13.739,0,0,1,2.432-1.136,2.406,2.406,0,0,1,2.434-.043c.142.088.383.22.469.164,2.123-1.383,4.4.568,5.357,1.63.138.152.427.147.417.429s-.231.37-.427.46c-1.352.621-2.391.047-3.487.223" transform="translate(-58.351 -95.959)" fill="#486601"/>
    <path id="Path_93267" data-name="Path 93267" d="M68.51,95.839c.483-1.389,1.66-1.69,2.906-1.92a6,6,0,0,1,3.527.476c.445.191,1,.453.716,1.073-.235.517-.754.354-1.183.205a9.2,9.2,0,0,0-2.727-.615,6.24,6.24,0,0,0-3.239.781" transform="translate(-50.02 -68.506)" fill="#486601"/>
    <path id="Path_93268" data-name="Path 93268" d="M117.566,95.98a6.378,6.378,0,0,0-6.127-.328c-.433.168-.961.266-1.173-.239s.228-.812.653-1a6,6,0,0,1,5.539.1,1.929,1.929,0,0,1,1.108,1.474" transform="translate(-80.466 -68.471)" fill="#486601"/>
    <path id="Path_93269" data-name="Path 93269" d="M78.333,104.061c-.025.118-.055.279-.059.278-1.014-.166-1.074,1.1-1.875,1.245-.335.06-.733-.018-.839-.293-.3-.794-.66-1.3-1.6-.8-.141.075-.336-.068-.4-.264-.078-.222.089-.345.216-.447.644-.52,3.7-.517,4.328,0a1.7,1.7,0,0,1,.229.284" transform="translate(-53.692 -75.487)" fill="#486601"/>
    <path id="Path_93270" data-name="Path 93270" d="M117.588,103.219a5.843,5.843,0,0,1,2.117.324c.21.1.43.2.334.479a.355.355,0,0,1-.527.225c-.7-.281-1.064-.168-1.328.675-.22.7-.959.792-1.518.208-.367-.383-.358-1.155-1.25-.941-.168.04-.217-.487.188-.667a6.089,6.089,0,0,1,1.986-.3" transform="translate(-84.175 -75.362)" fill="#486601"/>
    <path id="Path_93271" data-name="Path 93271" d="M95.132,148.144a7.043,7.043,0,0,1-2.407-.631c-.27-.128-.62-.262-.474-.677.139-.4.467-.383.77-.238a4.684,4.684,0,0,0,4.249.013c.313-.149.639-.161.794.2.174.405-.208.567-.457.692a6.13,6.13,0,0,1-2.475.638" transform="translate(-67.329 -106.967)" fill="#486601"/>
    <path id="Path_93272" data-name="Path 93272" d="M98.858,123.606a1.38,1.38,0,0,0,1.764-.016c.141-.094.375.032.417.225a.736.736,0,0,1-.066.493,1.815,1.815,0,0,1-2.52.049.739.739,0,0,1-.1-.488c.028-.189.191-.289.5-.263" transform="translate(-71.806 -90.212)" fill="#486601"/>
    <path id="Path_93273" data-name="Path 93273" d="M47.134,33.464,61.36,24.03l-.574-1.148L72.052,31.35l2.273,1.316,2.75-3.684-.215-1.507.789-.574s-.072-5.956-1.579-8.181S59.853,9.1,57.485,8.745s-7.033,1.866-7.176,4.808-.574.43-.574.43-5.669,3.157-5.525,7.75c.215.574-1.507,2.583-.072,4.162s-.933,2.512.143,2.942.072,2.8,1.363,3.014-.752,1.5,1.49,1.612" transform="translate(-31.805 -6.357)" fill="#486601"/>
    <path id="Path_93274" data-name="Path 93274" d="M116.81,7.411s.789-3.229,2.44-3.731-.646-2.225-1.866-2.153S114.8,1.455,114.8.738s.072-.861-2.368-.646-2.655,3.947-2.655,3.947l7.1,4.736" transform="translate(-80.151 0)" fill="#486601"/>
  </g>
</svg>
