<svg id="Group_52441" data-name="Group 52441" xmlns="http://www.w3.org/2000/svg" xmlns:xlink="http://www.w3.org/1999/xlink" width="116.603" height="106.287" viewBox="0 0 116.603 106.287">
  <defs>
    <clipPath id="clip-path">
      <rect id="Rectangle_15872" data-name="Rectangle 15872" width="116.603" height="106.287" fill="#a1b300"/>
    </clipPath>
  </defs>
  <g id="Group_52440" data-name="Group 52440" transform="translate(0 0)" clip-path="url(#clip-path)">
    <path id="Path_93250" data-name="Path 93250" d="M16.718,104.889c.088.354.187.682.3.993a5.733,5.733,0,0,1,1.726-.243,3.506,3.506,0,0,0,1.575-.265c.736-.5.516-1.673.152-3.15-.094-.387-.182-.751-.233-1.067a4.061,4.061,0,0,1,.336-2.487l.124-.324a3.207,3.207,0,0,1,.238-.485c.154-.27.207-.374.159-.574-.086-.369-.581-.6-1.107-.852A2.737,2.737,0,0,1,18.326,95c-.581-1.737,1.542-2.879,2.945-3.635a9.015,9.015,0,0,0,.963-.561A2.579,2.579,0,0,0,23.4,89.083a3.938,3.938,0,0,0-1.236-2.793c-1.319-1.567-1.421-3.074-.339-5.035.786-1.428,1.845-1.145,2.7-.915a5.76,5.76,0,0,0,1.034.212c1.049.094,1.246-.268,1.64-.991a3.987,3.987,0,0,1,1.322-1.585,4.111,4.111,0,0,1,1.833-.5c1.234-.139,1.825-.26,1.835-1.514l.005-.463.46-.056a7.205,7.205,0,0,1,2.864.455,6.11,6.11,0,0,0,2.556.407c.864-.134,1.079-.564,1.4-1.213.1-.21.212-.422.341-.632a2.9,2.9,0,0,1,1.143-.971,1.87,1.87,0,0,0,.834-.705c.369-.7-.071-1.4-.736-2.305-.121-.164-.235-.324-.334-.47a2.544,2.544,0,0,1-.627-2.128,1.663,1.663,0,0,1,1.188-.966,3.228,3.228,0,0,1,2.629.819,4.3,4.3,0,0,0,1.165.627c1.883.422,3.465-.7,5-1.792l.918-.645.458.642c.3.417.6.849.766.867.048,0,.248-.015.789-.511a4.239,4.239,0,0,0,.935-1.213,2.835,2.835,0,0,0,.169-.569,2.794,2.794,0,0,1,.346-.95,3.435,3.435,0,0,1,2.834-1.241,4.525,4.525,0,0,0,1.4-.276c.48-.23.533-.5.619-1.319.02-.187.043-.387.073-.6.286-1.924.672-4.555,3.569-5.283a7.774,7.774,0,0,1,1.36-.2,3.143,3.143,0,0,0,1.764-.541l.119-.081a10.113,10.113,0,0,1,1.974-1.127l-.2-.445a3.56,3.56,0,0,1,.887-.215,2.621,2.621,0,0,0,.609-.137,1.99,1.99,0,0,0,.364-.5,3.2,3.2,0,0,1,.705-.9,7.245,7.245,0,0,1,.91-.6,4.028,4.028,0,0,0,1.1-.811,8.151,8.151,0,0,0,.579-1.251c0-.1-.179-.3-.372-.506A2.32,2.32,0,0,1,72.1,47.09a1.468,1.468,0,0,1,.088-1.014,1.771,1.771,0,0,0,.078-.22,1.506,1.506,0,0,1,.185-.445c-.015-.048-.035-.1-.061-.164a2.992,2.992,0,0,0-.276-.513,2.187,2.187,0,0,1-.412-1.916,1.537,1.537,0,0,1,.685-.781,1.381,1.381,0,0,0,.172-.119,1.586,1.586,0,0,1,.394-.255c.015-.023.028-.053.048-.088a3.149,3.149,0,0,0,.182-.5,1.214,1.214,0,0,1,.629-.9,1.484,1.484,0,0,1,1.261.255,3.948,3.948,0,0,1,.771.617,2.085,2.085,0,0,0,.622.48l.008-.038a2.516,2.516,0,0,1,.442-1.226,2.279,2.279,0,0,1,1.011-.655,1.885,1.885,0,0,0,.521-.27c.377-.341.3-.824.152-1.587a6.573,6.573,0,0,1-.129-.822,3.794,3.794,0,0,1,.773-2.5,5.816,5.816,0,0,0,.561-1.052c.033-.088.035-.1-.091-.3a1.5,1.5,0,0,1-.278-.842,1.256,1.256,0,0,1,.968-1.143,2.788,2.788,0,0,0,.374-.179l.273-.164.273.167a4.541,4.541,0,0,1,1.14,1.011,1.4,1.4,0,0,0,1.474.617A2.1,2.1,0,0,0,84.2,32.5a1.685,1.685,0,0,1,1.024,0,1.989,1.989,0,0,1,.95,1.3,2.189,2.189,0,0,0,.263.569c.131.154.248.179.564.225a3.1,3.1,0,0,1,.809.2,3.809,3.809,0,0,1,1.762,1.886c.119.255.217.5.311.731a3.33,3.33,0,0,0,1.077,1.646l.131.1c.743.584,1,.645,1.092.632.124-.109.111-.311,0-.857a1.885,1.885,0,0,1,.116-1.529,1.711,1.711,0,0,1,1.244-.629,3.785,3.785,0,0,1,1.158.005,2.492,2.492,0,0,1,.945.478,2.124,2.124,0,0,0,.533.313c.67.238,1.067.01,1.709-.415a2.74,2.74,0,0,1,2.073-.634,3.369,3.369,0,0,1,1.868,1.1.693.693,0,0,1,.159.518c.066.033.142.066.222.1a2.129,2.129,0,0,1,.559.308c1.886,1.517,1.4,3.008.619,4.659-.076.164-.142.339-.2.516a3.946,3.946,0,0,1-.624,1.216,1.8,1.8,0,0,1-.475.394,3.026,3.026,0,0,1,1.122,1.608,2.744,2.744,0,0,1-.179,1.486c-.091.3-.23.751-.157.882.025.053.255.071.4.083a2.087,2.087,0,0,1,.779.172,3.388,3.388,0,0,1,.862.632,1.119,1.119,0,0,0,.6.367,1.993,1.993,0,0,1,1.731-1.266h.025a1.466,1.466,0,0,1,.925.278,2.141,2.141,0,0,0,.035-1.456c-.1-.316-.227-.622-.351-.925-.134-.336-.27-.675-.382-1.024a2.029,2.029,0,0,1,.938-2.533l.536-.447c.642-.531.794-.657.609-1.37-.02-.086-.048-.177-.076-.268a1.515,1.515,0,0,1,.03-1.426,1.2,1.2,0,0,1,1.069-.359,3.444,3.444,0,0,1,1.724.829,3.581,3.581,0,0,0,.991.591c.4.116.536.071.576.048.1-.061.2-.3.288-.713l.091-.417.427,0a4.867,4.867,0,0,1,.538.053c.255.033.789.106.91,0a.441.441,0,0,0,.045-.288c-.01-.192-.116-.268-.8-.4a3.39,3.39,0,0,1-.811-.227,1.647,1.647,0,0,1-.87-1.714,1.32,1.32,0,0,0-.164-.822c-.114-.142-.243-.169-.584-.21a3.127,3.127,0,0,1-.68-.139,1.562,1.562,0,0,1-.981-.877,3.589,3.589,0,0,0-.2-.354.821.821,0,0,0-.182-.217,1.438,1.438,0,0,0-.225-.005c-.144,0-.311,0-.521-.015l-.144-.01a.976.976,0,0,1-1.011-.672,1.581,1.581,0,0,1,.824-1.759,1.94,1.94,0,0,0,.3-.258,1.691,1.691,0,0,0,.126-1.661,1.413,1.413,0,0,0-.5-.154,2.081,2.081,0,0,1-.837-.3c-.258-.185-.665-.475-.369-.988a.462.462,0,0,0,.053-.126,4.5,4.5,0,0,1,.571-1.2,1.688,1.688,0,0,0,.389-1.309l-.035-.192a1.911,1.911,0,0,1,.066-1.352.87.87,0,0,1,.756-.521.583.583,0,0,0,.24-.066l.682-.324.068.753a5.537,5.537,0,0,1-.056,1.168c-.013.116-.028.23-.038.344.6-.465,1.087-1.054.91-1.436l-.046-.1a3.293,3.293,0,0,1-.412-1.438,1.864,1.864,0,0,1,.885-1.33c.2-.159.4-.311.422-.44.04-.248-.518-.536-.928-.746a2.95,2.95,0,0,1-.945-.637A1.663,1.663,0,0,1,111,18.623c.03-.119.058-.238.078-.359s.045-.25.068-.354c.071-.313.073-.326-.134-.607a2.154,2.154,0,0,0-.642-.475,2.7,2.7,0,0,1-.973-.8,1.578,1.578,0,0,1-.253-1.357c.3-1,1.615-1.575,2.578-1.994.233-.1.437-.19.586-.27a1.868,1.868,0,0,0,.445-.281l-.177-.078a.557.557,0,0,0,.068-.4c-.114-.215-.809-.339-1.223-.412a5.2,5.2,0,0,1-.816-.187,2.859,2.859,0,0,1-1.542-1.855,6.686,6.686,0,0,0-.361-.771,7.5,7.5,0,0,0-1.135-1.405l-.22-.238a3.226,3.226,0,0,0-.882-.756c-.071-.035-.195-.1-.281-.134l-.013.013c-.073.053-.164.121-.283.2a5.219,5.219,0,0,0-.847.751,3.379,3.379,0,0,1-2.267,1.3,3.529,3.529,0,0,1-1.15-.19,1.657,1.657,0,0,0-1.077-.088A3.018,3.018,0,0,0,99.508,9.2c-.131.24-.258.468-.387.662a1.7,1.7,0,0,0-.114.2,1.519,1.519,0,0,1-.811.814c-.91.324-2.717-.925-3.059-1.6a1.884,1.884,0,0,1-.015-1.532c.131-.427.185-.647-.028-.966-.536-.8-3.086-1.264-3.908-.87a2.064,2.064,0,0,0-.791,1.14c-.3.7-.667,1.577-1.742,1.668a2.8,2.8,0,0,1-1.686-.6,2.1,2.1,0,0,0-.794-.374,3.227,3.227,0,0,0-.273.427,2.383,2.383,0,0,1-.657.822,3.251,3.251,0,0,1-3.711-.455,3.558,3.558,0,0,1-.882-1.084c-.311-.516-.465-.743-.933-.763a3.93,3.93,0,0,0-2.4.842,1.17,1.17,0,0,0,.061.617,1.9,1.9,0,0,1-.028,1.347c-.677,1.345-2.457.968-3.756.69a6.289,6.289,0,0,0-1.041-.172h-.005a6.314,6.314,0,0,0-1.572.392c-1.325.437-2.973.981-4.052,0A1.5,1.5,0,0,1,66.332,9c.172-.971,1.436-1.587,2.31-1.956a6.206,6.206,0,0,0-1.416-1.653.42.42,0,0,0-.134-.061,1.144,1.144,0,0,1-.147.162,1.88,1.88,0,0,1-1.084.634,3.854,3.854,0,0,1-2.116-.579c-1.213-.574-1.828-.784-2.219-.23a1.683,1.683,0,0,0-.164,1.016,2.247,2.247,0,0,1-1,2.265,4.061,4.061,0,0,1-1.345.465,2.488,2.488,0,0,0-1.319.551,2.886,2.886,0,0,0-.523,1.57,3.151,3.151,0,0,1-1.33,2.593,4.416,4.416,0,0,1-2.042.344,7.732,7.732,0,0,0-.837.04,3.69,3.69,0,0,0-1.117.44,4.243,4.243,0,0,1-1.464.543,2.4,2.4,0,0,1-.265.015,1.5,1.5,0,0,1-1.024-.364c-.7-.619-.708-1.848-.715-2.93a4.488,4.488,0,0,0-.134-1.456c-.336-.574-1.433-.435-2.492-.3a6.563,6.563,0,0,1-1.9.068A6.7,6.7,0,0,1,42.7,9.811a3.365,3.365,0,0,0-1.671-.356,4.094,4.094,0,0,0-1.122.538,3.141,3.141,0,0,1-2.808.594c-1.405-.533-1.385-1.964-1.367-3.01.013-.771,0-1.284-.281-1.393a4.814,4.814,0,0,0-1.547.078,8.746,8.746,0,0,1-1.074.106,6.868,6.868,0,0,1-2.5-.569c-.19-.071-.387-.144-.6-.22-.185-.063-.356,0-.65.119a1.708,1.708,0,0,1-1.185.154c-1.453-.425-1.335-2.894-1.287-3.946.01-.179.033-.349.063-.549A3.475,3.475,0,0,0,26.707.1c.005.045-.169.169-.273.243a3.213,3.213,0,0,1-.346.225A5.566,5.566,0,0,1,21.7.77a8.5,8.5,0,0,1-1.062.1c-.872.038-1.426.083-1.792.554-.334.422-.265.9-.114,1.643.038.185.076.369.1.549a2.308,2.308,0,0,1-.384,1.423,1.743,1.743,0,0,0-.217.516c.5.508,1.838.361,2.821.255a9.938,9.938,0,0,1,1.168-.088c.048,0,.154-.005.25-.013.541-.028,1.446-.086,1.676.645a.968.968,0,0,1-.1.842c-.361.549-1.208.64-1.888.713a3.179,3.179,0,0,0-.4.053,1.459,1.459,0,0,0-.561.435c-.109.116-.23.24-.384.382a2.362,2.362,0,0,1-.847.463,1.365,1.365,0,0,0-.384.182,1.419,1.419,0,0,0-.458.892c-.162.708-.42,1.35-1.815,1.423a4.244,4.244,0,0,1-1.2-.177c-.379-.094-.955-.23-1.125-.121a.258.258,0,0,0-.071.154c-.061.276.225.455,1.054.822a3.013,3.013,0,0,1,1.858,1.512,1.607,1.607,0,0,1-.109,1.18,1.151,1.151,0,0,0-.111.382c0,.379.367.647.923,1.014.124.081.243.159.354.24l.172.124.038.21a1.5,1.5,0,0,1-.963,1.757,1.914,1.914,0,0,0-.556.387,1.446,1.446,0,0,0-.281.576,2.2,2.2,0,0,1-.665,1.107c-1.236,1.059-2.151.03-2.818-.723-.134-.152-.293-.311-.458-.475-.088-.088-.182-.179-.273-.273a1.684,1.684,0,0,1,.066.913l-.088.356-.364.038a3.367,3.367,0,0,0-.655.111c.028,0,.018.088.008.159-.02.157-.045.351-.1.591a1.315,1.315,0,0,1-1.279,1.125,1.9,1.9,0,0,0-.617.167l-.111.056-.119.061.028.116.088.4c.149.667.291,1.3.4,1.989a.361.361,0,0,0,.056.116.953.953,0,0,1,.066.983,1.451,1.451,0,0,1-1.191.725,1.541,1.541,0,0,0-.359.1c-.073.073-.094.2-.116.46a1.617,1.617,0,0,1-.612,1.292,1.769,1.769,0,0,1-1.049.384,1.4,1.4,0,0,1-.549-.114c-1.145-.5-1.623-2.515-1.79-3.5a.569.569,0,0,0-.425.24,3.384,3.384,0,0,1-.523.465,1.854,1.854,0,0,1-1.908.114,2.441,2.441,0,0,0-.533-.144c.013.65.081,1.279.109,1.744.1,1.63.71,3.407-.028,4.942-.412.862-1.2,1.461-1.357,2.447-.22,1.4.682,2.77.9,4.11a4.673,4.673,0,0,1-.088,2.874C.791,43.134.422,43.756.632,44.2c.25.533.1.217.7.028.794-.253,2.1-.556,2.611.326.46.794-.311,1.342-.763,1.848a3.923,3.923,0,0,0-1.254,3.589,28.964,28.964,0,0,1,.25,4.3c0,1.787,1.057,2.449,1.828,4.057a9.31,9.31,0,0,1,.854,4.338,15.485,15.485,0,0,0,.473,4.982c.478,1.35,1.6,2.133,1.969,3.471.847,3.028-.824,6.206-.321,9.226.26,1.565,1.7,6.339,3.546,6.14a2.533,2.533,0,0,1-.786,2.26,36.163,36.163,0,0,1,3.845,6.926,39.962,39.962,0,0,1,2.649,5.776c.3,1.1.21,2.325.485,3.423" transform="translate(0.152 0.153)" fill="#a1b300"/>
    <path id="Path_93251" data-name="Path 93251" d="M16.718,104.889c.088.354.187.682.3.993a5.733,5.733,0,0,1,1.726-.243,3.506,3.506,0,0,0,1.575-.265c.736-.5.516-1.673.152-3.15-.094-.387-.182-.751-.233-1.067a4.061,4.061,0,0,1,.336-2.487l.124-.324a3.207,3.207,0,0,1,.238-.485c.154-.27.207-.374.159-.574-.086-.369-.581-.6-1.107-.852A2.737,2.737,0,0,1,18.326,95c-.581-1.737,1.542-2.879,2.945-3.635a9.015,9.015,0,0,0,.963-.561A2.579,2.579,0,0,0,23.4,89.083a3.938,3.938,0,0,0-1.236-2.793c-1.319-1.567-1.421-3.074-.339-5.035.786-1.428,1.845-1.145,2.7-.915a5.76,5.76,0,0,0,1.034.212c1.049.094,1.246-.268,1.64-.991a3.987,3.987,0,0,1,1.322-1.585,4.111,4.111,0,0,1,1.833-.5c1.234-.139,1.825-.26,1.835-1.514l.005-.463.46-.056a7.205,7.205,0,0,1,2.864.455,6.11,6.11,0,0,0,2.556.407c.864-.134,1.079-.564,1.4-1.213.1-.21.212-.422.341-.632a2.9,2.9,0,0,1,1.143-.971,1.87,1.87,0,0,0,.834-.705c.369-.7-.071-1.4-.736-2.305-.121-.164-.235-.324-.334-.47a2.544,2.544,0,0,1-.627-2.128,1.663,1.663,0,0,1,1.188-.966,3.228,3.228,0,0,1,2.629.819,4.3,4.3,0,0,0,1.165.627c1.883.422,3.465-.7,5-1.792l.918-.645.458.642c.3.417.6.849.766.867.048,0,.248-.015.789-.511a4.239,4.239,0,0,0,.935-1.213,2.835,2.835,0,0,0,.169-.569,2.794,2.794,0,0,1,.346-.95,3.435,3.435,0,0,1,2.834-1.241,4.525,4.525,0,0,0,1.4-.276c.48-.23.533-.5.619-1.319.02-.187.043-.387.073-.6.286-1.924.672-4.555,3.569-5.283a7.774,7.774,0,0,1,1.36-.2,3.143,3.143,0,0,0,1.764-.541l.119-.081a10.113,10.113,0,0,1,1.974-1.127l-.2-.445a3.56,3.56,0,0,1,.887-.215,2.621,2.621,0,0,0,.609-.137,1.99,1.99,0,0,0,.364-.5,3.2,3.2,0,0,1,.705-.9,7.245,7.245,0,0,1,.91-.6,4.028,4.028,0,0,0,1.1-.811,8.151,8.151,0,0,0,.579-1.251c0-.1-.179-.3-.372-.506A2.32,2.32,0,0,1,72.1,47.09a1.468,1.468,0,0,1,.088-1.014,1.771,1.771,0,0,0,.078-.22,1.506,1.506,0,0,1,.185-.445c-.015-.048-.035-.1-.061-.164a2.992,2.992,0,0,0-.276-.513,2.187,2.187,0,0,1-.412-1.916,1.537,1.537,0,0,1,.685-.781,1.381,1.381,0,0,0,.172-.119,1.586,1.586,0,0,1,.394-.255c.015-.023.028-.053.048-.088a3.149,3.149,0,0,0,.182-.5,1.214,1.214,0,0,1,.629-.9,1.484,1.484,0,0,1,1.261.255,3.948,3.948,0,0,1,.771.617,2.085,2.085,0,0,0,.622.48l.008-.038a2.516,2.516,0,0,1,.442-1.226,2.279,2.279,0,0,1,1.011-.655,1.885,1.885,0,0,0,.521-.27c.377-.341.3-.824.152-1.587a6.573,6.573,0,0,1-.129-.822,3.794,3.794,0,0,1,.773-2.5,5.816,5.816,0,0,0,.561-1.052c.033-.088.035-.1-.091-.3a1.5,1.5,0,0,1-.278-.842,1.256,1.256,0,0,1,.968-1.143,2.788,2.788,0,0,0,.374-.179l.273-.164.273.167a4.541,4.541,0,0,1,1.14,1.011,1.4,1.4,0,0,0,1.474.617A2.1,2.1,0,0,0,84.2,32.5a1.685,1.685,0,0,1,1.024,0,1.989,1.989,0,0,1,.95,1.3,2.189,2.189,0,0,0,.263.569c.131.154.248.179.564.225a3.1,3.1,0,0,1,.809.2,3.809,3.809,0,0,1,1.762,1.886c.119.255.217.5.311.731a3.33,3.33,0,0,0,1.077,1.646l.131.1c.743.584,1,.645,1.092.632.124-.109.111-.311,0-.857a1.885,1.885,0,0,1,.116-1.529,1.711,1.711,0,0,1,1.244-.629,3.785,3.785,0,0,1,1.158.005,2.492,2.492,0,0,1,.945.478,2.124,2.124,0,0,0,.533.313c.67.238,1.067.01,1.709-.415a2.74,2.74,0,0,1,2.073-.634,3.369,3.369,0,0,1,1.868,1.1.693.693,0,0,1,.159.518c.066.033.142.066.222.1a2.129,2.129,0,0,1,.559.308c1.886,1.517,1.4,3.008.619,4.659-.076.164-.142.339-.2.516a3.946,3.946,0,0,1-.624,1.216,1.8,1.8,0,0,1-.475.394,3.026,3.026,0,0,1,1.122,1.608,2.744,2.744,0,0,1-.179,1.486c-.091.3-.23.751-.157.882.025.053.255.071.4.083a2.087,2.087,0,0,1,.779.172,3.388,3.388,0,0,1,.862.632,1.119,1.119,0,0,0,.6.367,1.993,1.993,0,0,1,1.731-1.266h.025a1.466,1.466,0,0,1,.925.278,2.141,2.141,0,0,0,.035-1.456c-.1-.316-.227-.622-.351-.925-.134-.336-.27-.675-.382-1.024a2.029,2.029,0,0,1,.938-2.533l.536-.447c.642-.531.794-.657.609-1.37-.02-.086-.048-.177-.076-.268a1.515,1.515,0,0,1,.03-1.426,1.2,1.2,0,0,1,1.069-.359,3.444,3.444,0,0,1,1.724.829,3.581,3.581,0,0,0,.991.591c.4.116.536.071.576.048.1-.061.2-.3.288-.713l.091-.417.427,0a4.867,4.867,0,0,1,.538.053c.255.033.789.106.91,0a.441.441,0,0,0,.045-.288c-.01-.192-.116-.268-.8-.4a3.39,3.39,0,0,1-.811-.227,1.647,1.647,0,0,1-.87-1.714,1.32,1.32,0,0,0-.164-.822c-.114-.142-.243-.169-.584-.21a3.127,3.127,0,0,1-.68-.139,1.562,1.562,0,0,1-.981-.877,3.589,3.589,0,0,0-.2-.354.821.821,0,0,0-.182-.217,1.438,1.438,0,0,0-.225-.005c-.144,0-.311,0-.521-.015l-.144-.01a.976.976,0,0,1-1.011-.672,1.581,1.581,0,0,1,.824-1.759,1.94,1.94,0,0,0,.3-.258,1.691,1.691,0,0,0,.126-1.661,1.413,1.413,0,0,0-.5-.154,2.081,2.081,0,0,1-.837-.3c-.258-.185-.665-.475-.369-.988a.462.462,0,0,0,.053-.126,4.5,4.5,0,0,1,.571-1.2,1.688,1.688,0,0,0,.389-1.309l-.035-.192a1.911,1.911,0,0,1,.066-1.352.87.87,0,0,1,.756-.521.583.583,0,0,0,.24-.066l.682-.324.068.753a5.537,5.537,0,0,1-.056,1.168c-.013.116-.028.23-.038.344.6-.465,1.087-1.054.91-1.436l-.046-.1a3.293,3.293,0,0,1-.412-1.438,1.864,1.864,0,0,1,.885-1.33c.2-.159.4-.311.422-.44.04-.248-.518-.536-.928-.746a2.95,2.95,0,0,1-.945-.637A1.663,1.663,0,0,1,111,18.623c.03-.119.058-.238.078-.359s.045-.25.068-.354c.071-.313.073-.326-.134-.607a2.154,2.154,0,0,0-.642-.475,2.7,2.7,0,0,1-.973-.8,1.578,1.578,0,0,1-.253-1.357c.3-1,1.615-1.575,2.578-1.994.233-.1.437-.19.586-.27a1.868,1.868,0,0,0,.445-.281l-.177-.078a.557.557,0,0,0,.068-.4c-.114-.215-.809-.339-1.223-.412a5.2,5.2,0,0,1-.816-.187,2.859,2.859,0,0,1-1.542-1.855,6.686,6.686,0,0,0-.361-.771,7.5,7.5,0,0,0-1.135-1.405l-.22-.238a3.226,3.226,0,0,0-.882-.756c-.071-.035-.195-.1-.281-.134l-.013.013c-.073.053-.164.121-.283.2a5.219,5.219,0,0,0-.847.751,3.379,3.379,0,0,1-2.267,1.3,3.529,3.529,0,0,1-1.15-.19,1.657,1.657,0,0,0-1.077-.088A3.018,3.018,0,0,0,99.508,9.2c-.131.24-.258.468-.387.662a1.7,1.7,0,0,0-.114.2,1.519,1.519,0,0,1-.811.814c-.91.324-2.717-.925-3.059-1.6a1.884,1.884,0,0,1-.015-1.532c.131-.427.185-.647-.028-.966-.536-.8-3.086-1.264-3.908-.87a2.064,2.064,0,0,0-.791,1.14c-.3.7-.667,1.577-1.742,1.668a2.8,2.8,0,0,1-1.686-.6,2.1,2.1,0,0,0-.794-.374,3.227,3.227,0,0,0-.273.427,2.383,2.383,0,0,1-.657.822,3.251,3.251,0,0,1-3.711-.455,3.558,3.558,0,0,1-.882-1.084c-.311-.516-.465-.743-.933-.763a3.93,3.93,0,0,0-2.4.842,1.17,1.17,0,0,0,.061.617,1.9,1.9,0,0,1-.028,1.347c-.677,1.345-2.457.968-3.756.69a6.289,6.289,0,0,0-1.041-.172h-.005a6.314,6.314,0,0,0-1.572.392c-1.325.437-2.973.981-4.052,0A1.5,1.5,0,0,1,66.332,9c.172-.971,1.436-1.587,2.31-1.956a6.206,6.206,0,0,0-1.416-1.653.42.42,0,0,0-.134-.061,1.144,1.144,0,0,1-.147.162,1.88,1.88,0,0,1-1.084.634,3.854,3.854,0,0,1-2.116-.579c-1.213-.574-1.828-.784-2.219-.23a1.683,1.683,0,0,0-.164,1.016,2.247,2.247,0,0,1-1,2.265,4.061,4.061,0,0,1-1.345.465,2.488,2.488,0,0,0-1.319.551,2.886,2.886,0,0,0-.523,1.57,3.151,3.151,0,0,1-1.33,2.593,4.416,4.416,0,0,1-2.042.344,7.732,7.732,0,0,0-.837.04,3.69,3.69,0,0,0-1.117.44,4.243,4.243,0,0,1-1.464.543,2.4,2.4,0,0,1-.265.015,1.5,1.5,0,0,1-1.024-.364c-.7-.619-.708-1.848-.715-2.93a4.488,4.488,0,0,0-.134-1.456c-.336-.574-1.433-.435-2.492-.3a6.563,6.563,0,0,1-1.9.068A6.7,6.7,0,0,1,42.7,9.811a3.365,3.365,0,0,0-1.671-.356,4.094,4.094,0,0,0-1.122.538,3.141,3.141,0,0,1-2.808.594c-1.405-.533-1.385-1.964-1.367-3.01.013-.771,0-1.284-.281-1.393a4.814,4.814,0,0,0-1.547.078,8.746,8.746,0,0,1-1.074.106,6.868,6.868,0,0,1-2.5-.569c-.19-.071-.387-.144-.6-.22-.185-.063-.356,0-.65.119a1.708,1.708,0,0,1-1.185.154c-1.453-.425-1.335-2.894-1.287-3.946.01-.179.033-.349.063-.549A3.475,3.475,0,0,0,26.707.1c.005.045-.169.169-.273.243a3.213,3.213,0,0,1-.346.225A5.566,5.566,0,0,1,21.7.77a8.5,8.5,0,0,1-1.062.1c-.872.038-1.426.083-1.792.554-.334.422-.265.9-.114,1.643.038.185.076.369.1.549a2.308,2.308,0,0,1-.384,1.423,1.743,1.743,0,0,0-.217.516c.5.508,1.838.361,2.821.255a9.938,9.938,0,0,1,1.168-.088c.048,0,.154-.005.25-.013.541-.028,1.446-.086,1.676.645a.968.968,0,0,1-.1.842c-.361.549-1.208.64-1.888.713a3.179,3.179,0,0,0-.4.053,1.459,1.459,0,0,0-.561.435c-.109.116-.23.24-.384.382a2.362,2.362,0,0,1-.847.463,1.365,1.365,0,0,0-.384.182,1.419,1.419,0,0,0-.458.892c-.162.708-.42,1.35-1.815,1.423a4.244,4.244,0,0,1-1.2-.177c-.379-.094-.955-.23-1.125-.121a.258.258,0,0,0-.071.154c-.061.276.225.455,1.054.822a3.013,3.013,0,0,1,1.858,1.512,1.607,1.607,0,0,1-.109,1.18,1.151,1.151,0,0,0-.111.382c0,.379.367.647.923,1.014.124.081.243.159.354.24l.172.124.038.21a1.5,1.5,0,0,1-.963,1.757,1.914,1.914,0,0,0-.556.387,1.446,1.446,0,0,0-.281.576,2.2,2.2,0,0,1-.665,1.107c-1.236,1.059-2.151.03-2.818-.723-.134-.152-.293-.311-.458-.475-.088-.088-.182-.179-.273-.273a1.684,1.684,0,0,1,.066.913l-.088.356-.364.038a3.367,3.367,0,0,0-.655.111c.028,0,.018.088.008.159-.02.157-.045.351-.1.591a1.315,1.315,0,0,1-1.279,1.125,1.9,1.9,0,0,0-.617.167l-.111.056-.119.061.028.116.088.4c.149.667.291,1.3.4,1.989a.361.361,0,0,0,.056.116.953.953,0,0,1,.066.983,1.451,1.451,0,0,1-1.191.725,1.541,1.541,0,0,0-.359.1c-.073.073-.094.2-.116.46a1.617,1.617,0,0,1-.612,1.292,1.769,1.769,0,0,1-1.049.384,1.4,1.4,0,0,1-.549-.114c-1.145-.5-1.623-2.515-1.79-3.5a.569.569,0,0,0-.425.24,3.384,3.384,0,0,1-.523.465,1.854,1.854,0,0,1-1.908.114,2.441,2.441,0,0,0-.533-.144c.013.65.081,1.279.109,1.744.1,1.63.71,3.407-.028,4.942-.412.862-1.2,1.461-1.357,2.447-.22,1.4.682,2.77.9,4.11a4.673,4.673,0,0,1-.088,2.874C.791,43.134.422,43.756.632,44.2c.25.533.1.217.7.028.794-.253,2.1-.556,2.611.326.46.794-.311,1.342-.763,1.848a3.923,3.923,0,0,0-1.254,3.589,28.964,28.964,0,0,1,.25,4.3c0,1.787,1.057,2.449,1.828,4.057a9.31,9.31,0,0,1,.854,4.338,15.485,15.485,0,0,0,.473,4.982c.478,1.35,1.6,2.133,1.969,3.471.847,3.028-.824,6.206-.321,9.226.26,1.565,1.7,6.339,3.546,6.14a2.533,2.533,0,0,1-.786,2.26,36.163,36.163,0,0,1,3.845,6.926,39.962,39.962,0,0,1,2.649,5.776C16.536,102.566,16.442,103.792,16.718,104.889Z" transform="translate(0.152 0.153)" fill="#a1b300"/>
  </g>
</svg>
