<svg id="Group_52439" data-name="Group 52439" xmlns="http://www.w3.org/2000/svg" xmlns:xlink="http://www.w3.org/1999/xlink" width="80.247" height="123.575" viewBox="0 0 80.247 123.575">
  <defs>
    <clipPath id="clip-path">
      <rect id="Rectangle_15871" data-name="Rectangle 15871" width="80.247" height="123.575" fill="#a1b300"/>
    </clipPath>
  </defs>
  <g id="Group_52438" data-name="Group 52438" transform="translate(0 0)" clip-path="url(#clip-path)">
    <path id="Path_93248" data-name="Path 93248" d="M16.944,101.532a7.613,7.613,0,0,1-.053,1.192,3.388,3.388,0,0,1,.682,1.034c.545,1.093.626,1.1,1.952,1.136l.6.022c1.009.044,2.864.125,3.163,1.719a2.872,2.872,0,0,1-.065,1.118,1.662,1.662,0,0,0-.059.436,3.719,3.719,0,0,0,1.087.52,5,5,0,0,1,1.5.75,5.1,5.1,0,0,1,1.516,2.425c.371,1,.638,1.716,1.787,1.993a13.833,13.833,0,0,0,2.625.427c.059,0,.162-.009.277-.019a2.229,2.229,0,0,1,1.382.153,1.735,1.735,0,0,1,.539.853,3.271,3.271,0,0,0,.19.417,2.022,2.022,0,0,0,1.227.529,3.763,3.763,0,0,1,1.784.741,3.724,3.724,0,0,1,.993,1.768,2.893,2.893,0,0,0,.536,1.112c.548.548,1.93.514,3.036.483.43-.009.828-.022,1.164,0l.6.034.022.909a3.756,3.756,0,0,1-.031.772c.159.072.314.149.455.23s.255.143.386.2a6.251,6.251,0,0,0,2.952.551,2.141,2.141,0,0,0,1.7-.915,1.3,1.3,0,0,0,.128-.492,1.389,1.389,0,0,1,.822-1.2,5.423,5.423,0,0,1,4.384-.218,4.571,4.571,0,0,0,3.833-.24c.2-.075.4-.143.6-.212a3.239,3.239,0,0,0,1.909-1.164,4.927,4.927,0,0,0,.327-.623,3,3,0,0,1,1.239-1.463,6.3,6.3,0,0,1,1.292-.551c.922-.318,1.628-.595,1.638-1.037s-.641-.8-1.031-.975a6.283,6.283,0,0,0-1.164-.237c-1.217-.187-2.366-.364-2.653-1.214a1.449,1.449,0,0,1,.514-1.485,4.254,4.254,0,0,1,.81-.648c.321-.205.37-.237.42-.725a5.239,5.239,0,0,0,.009-.663,3.867,3.867,0,0,1,.209-1.6,3.465,3.465,0,0,1,1.034-1.242,2.82,2.82,0,0,0,.579-.6,1.284,1.284,0,0,0,.031-.377,1.654,1.654,0,0,1,.3-1.121,2.258,2.258,0,0,1,1.451-.62,2.756,2.756,0,0,0,.529-.121c.215-.1.4-.212.582-.321a6.06,6.06,0,0,1,1-.5,4.267,4.267,0,0,1,4.378.318c.156.106.308.234.464.352a2.26,2.26,0,0,1,1.386-.243,2.6,2.6,0,0,0,.6-.016c.43-.118.464-.215.632-.669a5.376,5.376,0,0,1,.333-.763,5.3,5.3,0,0,1,2-1.937,5.59,5.59,0,0,0,1.261-1c.6-.7.346-1.155-.847-2.335a6.976,6.976,0,0,1-1.118-1.3,2.221,2.221,0,0,1-.349-1.905c.308-.881,1.27-1.239,2.117-1.554,1.233-.464,1.245-.592,1.152-.838-.33-.9-2.042-1.535-4.58-1.7-1.747-.115-2.821-.763-3.194-1.927a2.022,2.022,0,0,1,.277-1.831,1.382,1.382,0,0,0,.2-.43,3.343,3.343,0,0,0-.825-2.211,2.088,2.088,0,0,0-1.6-.209,3.218,3.218,0,0,0-2,1.14l-.243.411c-.573.993-.943,1.5-2.662,1.435a5.22,5.22,0,0,1-.962-.174,3.121,3.121,0,0,0-1.136-.153c-.062.022-.106.037-.134.05a2.469,2.469,0,0,1-.3.507,2.687,2.687,0,0,0-.221.355,1.647,1.647,0,0,1-1.273.937A4.446,4.446,0,0,1,59,86.624c-.131-.028-.271-.053-.42-.078a3.761,3.761,0,0,1-1.4-.439,1.548,1.548,0,0,1-.3-.277.573.573,0,0,0-.28-.1c-.081-.012-.165-.028-.255-.05l-.252-.068a1.786,1.786,0,0,0-.265-.059,3.239,3.239,0,0,0-.2,1.554l.012.635a2.277,2.277,0,0,1-.455,1.79,1.2,1.2,0,0,1-.981.293,1.544,1.544,0,0,1-1.392-1.351l-.072-.336a1.662,1.662,0,0,0-.258-.744A7.6,7.6,0,0,0,50.981,86l-.162-.125a1.887,1.887,0,0,1-.934-2.1,1.993,1.993,0,0,1,.529-1.155,2.442,2.442,0,0,1,1.37-.445,1.915,1.915,0,0,0,.682-.143.518.518,0,0,0,.025-.3,1.245,1.245,0,0,1,.146-.791,1.638,1.638,0,0,1-.551-.009,1.437,1.437,0,0,1-1.1-1.012,3.466,3.466,0,0,1,.081-1.712,4.167,4.167,0,0,0,.134-1.077,5.334,5.334,0,0,0-1.289-2.983,2.556,2.556,0,0,0-.915-.43,3.162,3.162,0,0,1-1.42-.763c-1-1.08-.539-2.463-.2-3.472a6.732,6.732,0,0,0,.283-.987,3.794,3.794,0,0,0-.134-1.392,5.827,5.827,0,0,1-.187-1.529,4.2,4.2,0,0,1,.246-1.108,2.184,2.184,0,0,0,.171-.884,2.148,2.148,0,0,0-.427-.8,2.7,2.7,0,0,1-.679-1.865l.065-.641.641.062a18.623,18.623,0,0,1,2.821.567,12.463,12.463,0,0,0,3.581.567c.028-.125.062-.246.093-.364.2-.716.271-1.062-.062-1.547-.735-.121-.75-.838-.76-1.192a2.82,2.82,0,0,1,.5-1.488,1.507,1.507,0,0,0,.327-.931c-.044-.308-.286-.492-.71-.794a3.177,3.177,0,0,1-1.112-1.14c-.573-1.152.293-1.877.862-2.357.14-.115.286-.237.42-.367.165-.159.327-.3.476-.43.6-.514.6-.514.346-.931a4.707,4.707,0,0,0-.532-.635c-.623-.669-1.56-1.678-.872-2.914a3.117,3.117,0,0,1,2.727-1.28,4.724,4.724,0,0,0,.937-.149c.249-.084.464-.171.666-.255a5,5,0,0,1,2.245-.479,6.024,6.024,0,0,1,2.251.638c.237.1.47.193.7.28a6.285,6.285,0,0,0-.473-.679,5.4,5.4,0,0,1-.95-1.616,2.254,2.254,0,0,1,.243-2.2,4.049,4.049,0,0,0,.333-.669c.641-1.734-.367-2.382-2.2-3.384a9.327,9.327,0,0,1-2.183-1.463l-.613-.62.769-.408a9.262,9.262,0,0,1,1.747-.638c1.052-.308,2.139-.626,2.553-1.364.56-1,.078-1.647-.822-2.709a4.342,4.342,0,0,1-1.373-2.743,3.515,3.515,0,0,1,.666-1.884,4.754,4.754,0,0,0,.371-.679,8.249,8.249,0,0,0,.47-2.011,8.528,8.528,0,0,1,.623-2.463,5.545,5.545,0,0,1,1-1.339,2.616,2.616,0,0,0,.9-1.463c0-.5-.227-.638-1.451-.85a8.452,8.452,0,0,1-1.124-.252l-.89-.29.582-.732a4.489,4.489,0,0,1,1.395-1.121,1.63,1.63,0,0,0,1.043-1.326c.109-.57.2-1.143.3-1.712a33.589,33.589,0,0,1,.8-3.848c.4-1.376-.125-2.369-.732-3.521A7.727,7.727,0,0,1,62.168.1c-.42.243-.847.529-1.283.828l-.149.1a5.072,5.072,0,0,1-2.79.881,8.276,8.276,0,0,0-1.47.218c-2.528.635-3.017,2.653-3.428,5.436-.034.243-.059.47-.081.682-.109,1.009-.221,2.055-1.5,2.659a6.442,6.442,0,0,1-2.158.461c-1.093.109-2.036.2-2.541.956a2.745,2.745,0,0,0-.24.744,4.147,4.147,0,0,1-.318,1,6.491,6.491,0,0,1-1.429,1.859,2.791,2.791,0,0,1-1.986.962c-.7-.072-1.155-.62-1.678-1.345l-.072.05c-2.021,1.438-4.312,3.067-7.2,2.413a6.172,6.172,0,0,1-1.862-.95c-.769-.511-1.569-1.031-2.145-.856-.346.106-.57.249-.623.389-.118.33.371,1.071.635,1.466.109.168.24.346.377.532.744,1.021,1.871,2.566,1,4.209a3.469,3.469,0,0,1-1.532,1.392,2.469,2.469,0,0,0-.95.753,7.39,7.39,0,0,0-.358.673,3.341,3.341,0,0,1-2.687,2.2,8.478,8.478,0,0,1-3.721-.539,10.339,10.339,0,0,0-2.475-.536c-.305,2.176-2.127,2.382-3.369,2.522a4.163,4.163,0,0,0-1.694.414,3.7,3.7,0,0,0-1.2,1.491,2.936,2.936,0,0,1-3.269,1.89,8.452,8.452,0,0,1-1.5-.3c-1.049-.28-1.367-.371-1.846.5-1.087,1.971-1.015,3.213.274,4.742,1.373,1.631,1.971,3.079,1.818,4.421A4.438,4.438,0,0,1,6.785,45.42a11.67,11.67,0,0,1-1.351.8c-1.345.722-3.381,1.818-3.014,2.917.143.433.738.716,1.37,1.012.853.4,1.821.862,2.07,1.927a2.122,2.122,0,0,1-.33,1.644,2.779,2.779,0,0,0-.209.408l-.156.411a3.755,3.755,0,0,0-.342,2.4c.056.355.159.769.265,1.2.423,1.722,1.006,4.085-.716,5.259a4.987,4.987,0,0,1-2.625.554,6.611,6.611,0,0,0-1.647.19,6.583,6.583,0,0,0,1.806,2.064c1.4,1.071,2.139,1.121,2.572,2.939.339,1.435.174,2.727.607,4.116.545,1.753.04,2.983.445,4.8.23,4.739,2.961,8.251,5.542,12.006,1.364,1.98,1.354,4.754,2.659,6.772,1.149,1.778,3.107,2.4,3.213,4.689" transform="translate(0.211 0.211)" fill="#a1b300"/>
    <path id="Path_93249" data-name="Path 93249" d="M16.944,101.532a7.613,7.613,0,0,1-.053,1.192,3.388,3.388,0,0,1,.682,1.034c.545,1.093.626,1.1,1.952,1.136l.6.022c1.009.044,2.864.125,3.163,1.719a2.872,2.872,0,0,1-.065,1.118,1.662,1.662,0,0,0-.059.436,3.719,3.719,0,0,0,1.087.52,5,5,0,0,1,1.5.75,5.1,5.1,0,0,1,1.516,2.425c.371,1,.638,1.716,1.787,1.993a13.833,13.833,0,0,0,2.625.427c.059,0,.162-.009.277-.019a2.229,2.229,0,0,1,1.382.153,1.735,1.735,0,0,1,.539.853,3.271,3.271,0,0,0,.19.417,2.022,2.022,0,0,0,1.227.529,3.763,3.763,0,0,1,1.784.741,3.724,3.724,0,0,1,.993,1.768,2.893,2.893,0,0,0,.536,1.112c.548.548,1.93.514,3.036.483.43-.009.828-.022,1.164,0l.6.034.022.909a3.756,3.756,0,0,1-.031.772c.159.072.314.149.455.23s.255.143.386.2a6.251,6.251,0,0,0,2.952.551,2.141,2.141,0,0,0,1.7-.915,1.3,1.3,0,0,0,.128-.492,1.389,1.389,0,0,1,.822-1.2,5.423,5.423,0,0,1,4.384-.218,4.571,4.571,0,0,0,3.833-.24c.2-.075.4-.143.6-.212a3.239,3.239,0,0,0,1.909-1.164,4.927,4.927,0,0,0,.327-.623,3,3,0,0,1,1.239-1.463,6.3,6.3,0,0,1,1.292-.551c.922-.318,1.628-.595,1.638-1.037s-.641-.8-1.031-.975a6.283,6.283,0,0,0-1.164-.237c-1.217-.187-2.366-.364-2.653-1.214a1.449,1.449,0,0,1,.514-1.485,4.254,4.254,0,0,1,.81-.648c.321-.205.37-.237.42-.725a5.239,5.239,0,0,0,.009-.663,3.867,3.867,0,0,1,.209-1.6,3.465,3.465,0,0,1,1.034-1.242,2.82,2.82,0,0,0,.579-.6,1.284,1.284,0,0,0,.031-.377,1.654,1.654,0,0,1,.3-1.121,2.258,2.258,0,0,1,1.451-.62,2.756,2.756,0,0,0,.529-.121c.215-.1.4-.212.582-.321a6.06,6.06,0,0,1,1-.5,4.267,4.267,0,0,1,4.378.318c.156.106.308.234.464.352a2.26,2.26,0,0,1,1.386-.243,2.6,2.6,0,0,0,.6-.016c.43-.118.464-.215.632-.669a5.376,5.376,0,0,1,.333-.763,5.3,5.3,0,0,1,2-1.937,5.59,5.59,0,0,0,1.261-1c.6-.7.346-1.155-.847-2.335a6.976,6.976,0,0,1-1.118-1.3,2.221,2.221,0,0,1-.349-1.905c.308-.881,1.27-1.239,2.117-1.554,1.233-.464,1.245-.592,1.152-.838-.33-.9-2.042-1.535-4.58-1.7-1.747-.115-2.821-.763-3.194-1.927a2.022,2.022,0,0,1,.277-1.831,1.382,1.382,0,0,0,.2-.43,3.343,3.343,0,0,0-.825-2.211,2.088,2.088,0,0,0-1.6-.209,3.218,3.218,0,0,0-2,1.14l-.243.411c-.573.993-.943,1.5-2.662,1.435a5.22,5.22,0,0,1-.962-.174,3.121,3.121,0,0,0-1.136-.153c-.062.022-.106.037-.134.05a2.469,2.469,0,0,1-.3.507,2.687,2.687,0,0,0-.221.355,1.647,1.647,0,0,1-1.273.937A4.446,4.446,0,0,1,59,86.624c-.131-.028-.271-.053-.42-.078a3.761,3.761,0,0,1-1.4-.439,1.548,1.548,0,0,1-.3-.277.573.573,0,0,0-.28-.1c-.081-.012-.165-.028-.255-.05l-.252-.068a1.786,1.786,0,0,0-.265-.059,3.239,3.239,0,0,0-.2,1.554l.012.635a2.277,2.277,0,0,1-.455,1.79,1.2,1.2,0,0,1-.981.293,1.544,1.544,0,0,1-1.392-1.351l-.072-.336a1.662,1.662,0,0,0-.258-.744A7.6,7.6,0,0,0,50.981,86l-.162-.125a1.887,1.887,0,0,1-.934-2.1,1.993,1.993,0,0,1,.529-1.155,2.442,2.442,0,0,1,1.37-.445,1.915,1.915,0,0,0,.682-.143.518.518,0,0,0,.025-.3,1.245,1.245,0,0,1,.146-.791,1.638,1.638,0,0,1-.551-.009,1.437,1.437,0,0,1-1.1-1.012,3.466,3.466,0,0,1,.081-1.712,4.167,4.167,0,0,0,.134-1.077,5.334,5.334,0,0,0-1.289-2.983,2.556,2.556,0,0,0-.915-.43,3.162,3.162,0,0,1-1.42-.763c-1-1.08-.539-2.463-.2-3.472a6.732,6.732,0,0,0,.283-.987,3.794,3.794,0,0,0-.134-1.392,5.827,5.827,0,0,1-.187-1.529,4.2,4.2,0,0,1,.246-1.108,2.184,2.184,0,0,0,.171-.884,2.148,2.148,0,0,0-.427-.8,2.7,2.7,0,0,1-.679-1.865l.065-.641.641.062a18.623,18.623,0,0,1,2.821.567,12.463,12.463,0,0,0,3.581.567c.028-.125.062-.246.093-.364.2-.716.271-1.062-.062-1.547-.735-.121-.75-.838-.76-1.192a2.82,2.82,0,0,1,.5-1.488,1.507,1.507,0,0,0,.327-.931c-.044-.308-.286-.492-.71-.794a3.177,3.177,0,0,1-1.112-1.14c-.573-1.152.293-1.877.862-2.357.14-.115.286-.237.42-.367.165-.159.327-.3.476-.43.6-.514.6-.514.346-.931a4.707,4.707,0,0,0-.532-.635c-.623-.669-1.56-1.678-.872-2.914a3.117,3.117,0,0,1,2.727-1.28,4.724,4.724,0,0,0,.937-.149c.249-.084.464-.171.666-.255a5,5,0,0,1,2.245-.479,6.024,6.024,0,0,1,2.251.638c.237.1.47.193.7.28a6.285,6.285,0,0,0-.473-.679,5.4,5.4,0,0,1-.95-1.616,2.254,2.254,0,0,1,.243-2.2,4.049,4.049,0,0,0,.333-.669c.641-1.734-.367-2.382-2.2-3.384a9.327,9.327,0,0,1-2.183-1.463l-.613-.62.769-.408a9.262,9.262,0,0,1,1.747-.638c1.052-.308,2.139-.626,2.553-1.364.56-1,.078-1.647-.822-2.709a4.342,4.342,0,0,1-1.373-2.743,3.515,3.515,0,0,1,.666-1.884,4.754,4.754,0,0,0,.371-.679,8.249,8.249,0,0,0,.47-2.011,8.528,8.528,0,0,1,.623-2.463,5.545,5.545,0,0,1,1-1.339,2.616,2.616,0,0,0,.9-1.463c0-.5-.227-.638-1.451-.85a8.452,8.452,0,0,1-1.124-.252l-.89-.29.582-.732a4.489,4.489,0,0,1,1.395-1.121,1.63,1.63,0,0,0,1.043-1.326c.109-.57.2-1.143.3-1.712a33.589,33.589,0,0,1,.8-3.848c.4-1.376-.125-2.369-.732-3.521A7.727,7.727,0,0,1,62.168.1c-.42.243-.847.529-1.283.828l-.149.1a5.072,5.072,0,0,1-2.79.881,8.276,8.276,0,0,0-1.47.218c-2.528.635-3.017,2.653-3.428,5.436-.034.243-.059.47-.081.682-.109,1.009-.221,2.055-1.5,2.659a6.442,6.442,0,0,1-2.158.461c-1.093.109-2.036.2-2.541.956a2.745,2.745,0,0,0-.24.744,4.147,4.147,0,0,1-.318,1,6.491,6.491,0,0,1-1.429,1.859,2.791,2.791,0,0,1-1.986.962c-.7-.072-1.155-.62-1.678-1.345l-.072.05c-2.021,1.438-4.312,3.067-7.2,2.413a6.172,6.172,0,0,1-1.862-.95c-.769-.511-1.569-1.031-2.145-.856-.346.106-.57.249-.623.389-.118.33.371,1.071.635,1.466.109.168.24.346.377.532.744,1.021,1.871,2.566,1,4.209a3.469,3.469,0,0,1-1.532,1.392,2.469,2.469,0,0,0-.95.753,7.39,7.39,0,0,0-.358.673,3.341,3.341,0,0,1-2.687,2.2,8.478,8.478,0,0,1-3.721-.539,10.339,10.339,0,0,0-2.475-.536c-.305,2.176-2.127,2.382-3.369,2.522a4.163,4.163,0,0,0-1.694.414,3.7,3.7,0,0,0-1.2,1.491,2.936,2.936,0,0,1-3.269,1.89,8.452,8.452,0,0,1-1.5-.3c-1.049-.28-1.367-.371-1.846.5-1.087,1.971-1.015,3.213.274,4.742,1.373,1.631,1.971,3.079,1.818,4.421A4.438,4.438,0,0,1,6.785,45.42a11.67,11.67,0,0,1-1.351.8c-1.345.722-3.381,1.818-3.014,2.917.143.433.738.716,1.37,1.012.853.4,1.821.862,2.07,1.927a2.122,2.122,0,0,1-.33,1.644,2.779,2.779,0,0,0-.209.408l-.156.411a3.755,3.755,0,0,0-.342,2.4c.056.355.159.769.265,1.2.423,1.722,1.006,4.085-.716,5.259a4.987,4.987,0,0,1-2.625.554,6.611,6.611,0,0,0-1.647.19,6.583,6.583,0,0,0,1.806,2.064c1.4,1.071,2.139,1.121,2.572,2.939.339,1.435.174,2.727.607,4.116.545,1.753.04,2.983.445,4.8.23,4.739,2.961,8.251,5.542,12.006,1.364,1.98,1.354,4.754,2.659,6.772C14.88,98.62,16.838,99.243,16.944,101.532Z" transform="translate(0.211 0.211)" fill="#a1b300"/>
  </g>
</svg>
