<svg xmlns="http://www.w3.org/2000/svg" width="45.599" height="34.112" viewBox="0 0 45.599 34.112">
  <g id="Group_51928" data-name="Group 51928" transform="translate(0 9.182)">
    <g id="Group_51929" data-name="Group 51929" transform="translate(0 0)">
      <path id="Path_76603" data-name="Path 76603" d="M48.743,52.17c-2.751,0-5.5-.035-8.252.019-.959.019-1.332-.252-1.269-1.249.079-1.256-.02-2.522.031-3.781a5.5,5.5,0,0,1,5.362-5.422c2.747-.1,5.5-.1,8.249.008a5.485,5.485,0,0,1,5.275,5.328c.066,1.315-.034,2.638.036,3.952.049.921-.3,1.175-1.181,1.16-2.75-.045-5.5-.017-8.252-.016" transform="translate(-25.659 -27.26)" fill="#ea7c4b"/>
      <path id="Path_76604" data-name="Path 76604" d="M60.96,6.142a6.152,6.152,0,0,1-6.229,6.206,6.242,6.242,0,0,1-6.124-6.18A6.163,6.163,0,0,1,54.877,0,6.084,6.084,0,0,1,60.96,6.142" transform="translate(-31.804 0.001)" fill="#ea7c4b"/>
      <path id="Path_76605" data-name="Path 76605" d="M5.735,46.49A5.721,5.721,0,0,1,4.2,46.468C2.874,46.085.675,47.535.274,45.6c-.912-4.4.51-7.527,3.417-8.1a28.6,28.6,0,0,1,9.542-.039c1.142.16,1.441.609.425,1.59a7.157,7.157,0,0,0-2.122,5.933c.094,1.205-.312,1.612-1.518,1.529-1.422-.1-2.855-.023-4.283-.023" transform="translate(0 -24.26)" fill="#ea7c4b"/>
      <path id="Path_76606" data-name="Path 76606" d="M91.271,38.122a2.993,2.993,0,0,1,2.205-.709c2.349-.051,4.706-.115,7.049.013a4.872,4.872,0,0,1,4.764,5.079c.11,4.164.11,4.164-4.009,4.164-1.949,0-3.9-.017-5.848.006-.724.008-1.111-.107-1.176-1.006-.311-4.338-.344-4.336-2.986-7.546" transform="translate(-59.719 -24.439)" fill="#ea7c4b"/>
      <path id="Path_76607" data-name="Path 76607" d="M97.395,10.989a5.4,5.4,0,1,1,5.51-5.373,5.38,5.38,0,0,1-5.51,5.373" transform="translate(-60.218 -0.126)" fill="#ea7c4b"/>
      <path id="Path_93047" data-name="Path 93047" d="M96.593,9.374A4.591,4.591,0,1,1,101.279,4.8a4.575,4.575,0,0,1-4.686,4.569" transform="translate(-66.462 -9.374)" fill="#ea7c4b"/>
      <path id="Path_93048" data-name="Path 93048" d="M96.593,9.374A4.591,4.591,0,1,1,101.279,4.8a4.575,4.575,0,0,1-4.686,4.569" transform="translate(-81.218 -9.374)" fill="#ea7c4b"/>
      <path id="Path_76608" data-name="Path 76608" d="M14.212,10.99a5.4,5.4,0,1,1,5.473-5.4,5.411,5.411,0,0,1-5.473,5.4" transform="translate(-5.764 -0.13)" fill="#ea7c4b"/>
    </g>
  </g>
</svg>
