<svg id="Group_51935" data-name="Group 51935" xmlns="http://www.w3.org/2000/svg" xmlns:xlink="http://www.w3.org/1999/xlink" width="46.086" height="34.597" viewBox="0 0 46.086 34.597">
  <defs>
    <clipPath id="clip-path">
      <rect id="Rectangle_15638" data-name="Rectangle 15638" width="46.086" height="34.597" fill="#4c99c9"/>
    </clipPath>
  </defs>
  <g id="Group_51934" data-name="Group 51934" clip-path="url(#clip-path)">
    <path id="Path_76619" data-name="Path 76619" d="M46.086,9a2.1,2.1,0,0,1-1.138.784Q34.58,13.591,24.215,17.41a1.4,1.4,0,0,1-1,.025q-5.506-2.009-11.01-4.024c-.059-.022-.115-.055-.258-.125,1.384-.6,2.705-1.166,4.029-1.733q3.771-1.614,7.545-3.22a1.208,1.208,0,0,0,.886-1.06A1.092,1.092,0,0,0,22.8,6.221c-3.45,1.543-6.931,3.017-10.4,4.516-.823.356-1.628.766-2.476,1.052a4.658,4.658,0,0,0-2.752,2.7,10.339,10.339,0,0,0-.832,4.121.683.683,0,0,0,.268.54,2.426,2.426,0,0,1,.145,3.413,1.034,1.034,0,0,0-.266.8,33.851,33.851,0,0,1,.023,6.218A6.158,6.158,0,0,1,3.723,34.4a1.032,1.032,0,0,1-1.061.084A12.4,12.4,0,0,1,.31,33.064c-.388-.282-.4-.469-.107-.849a19.194,19.194,0,0,0,3.51-7c.089-.351.134-.714.231-1.063a1.422,1.422,0,0,0-.42-1.62,2.352,2.352,0,0,1,.39-3.585.872.872,0,0,0,.424-.829,9.754,9.754,0,0,1,1.267-5.355c.3-.459.648-.886,1-1.37-1.5-.547-2.979-1.084-4.455-1.626a5.025,5.025,0,0,1-.765-.325C.618,9,.6,8.395,1.419,8.031,2.469,7.563,3.566,7.2,4.648,6.8q9-3.273,18-6.541c.193-.07.421-.077.562-.264h.514A2.236,2.236,0,0,0,24,.144Q34.433,3.991,44.872,7.831a2.527,2.527,0,0,1,1.214.779Z" transform="translate(0)" fill="#4c99c9"/>
    <path id="Path_76620" data-name="Path 76620" d="M103.066,123.2c0,1.07-.024,2.141.006,3.211a2.605,2.605,0,0,1-1.525,2.474,27.379,27.379,0,0,1-11.455,3.381A24.839,24.839,0,0,1,76.8,129.653c-.651-.332-1.4-.568-1.746-1.33a.785.785,0,0,1,.033-.82,3.925,3.925,0,0,0-.225-4.566c-.086-.119-.219-.211-.219-.378,0-1.027-.032-2.056.015-3.082.02-.442.361-.136.514-.081q3.8,1.358,7.585,2.748c1.785.651,3.573,1.3,5.35,1.967a1.648,1.648,0,0,0,1.236-.026c4.362-1.619,8.731-3.219,13.091-4.845.5-.185.66-.156.641.427-.039,1.176-.012,2.354-.012,3.532" transform="translate(-65.044 -103.827)" fill="#4c99c9"/>
  </g>
</svg>
