<svg id="Group_51931" data-name="Group 51931" xmlns="http://www.w3.org/2000/svg" xmlns:xlink="http://www.w3.org/1999/xlink" width="26.784" height="38.403" viewBox="0 0 26.784 38.403">
  <defs>
    <clipPath id="clip-path">
      <rect id="Rectangle_15636" data-name="Rectangle 15636" width="26.784" height="38.403" fill="#c44da9"/>
    </clipPath>
  </defs>
  <g id="Group_51930" data-name="Group 51930" clip-path="url(#clip-path)">
    <path id="Path_76609" data-name="Path 76609" d="M30.423,44.805c-3.145,0-6.29-.006-9.435.008-.355,0-.476-.09-.452-.449.03-.456,0-.915.009-1.372a1.406,1.406,0,0,1,1.376-1.459c.085-.007.171-.007.257-.008.925-.011.925-.011.925-.958,0-.286,0-.572,0-.858a1.343,1.343,0,0,1,.822-1.3.387.387,0,0,0,.266-.42c-.012-.486-.011-.972,0-1.458a1.4,1.4,0,0,1,1.117-1.475c.216-.061.223-.169.222-.333,0-.486,0-.972,0-1.458a1.4,1.4,0,0,1,1.454-1.512q3.452-.022,6.9,0a1.382,1.382,0,0,1,1.436,1.478c.008.5.006,1,0,1.5a.278.278,0,0,0,.244.324,1.41,1.41,0,0,1,1.108,1.483c.005.486.007.972,0,1.458a.344.344,0,0,0,.228.395,1.4,1.4,0,0,1,.872,1.4c.008.472.013.944,0,1.415-.008.248.086.322.323.317a6.993,6.993,0,0,1,1.027.032A1.327,1.327,0,0,1,40.3,42.789c.039.584.014,1.171.025,1.757.006.337-.24.256-.423.257q-2.68.01-5.361.009-2.059,0-4.117,0v-.007" transform="translate(-17.009 -26.298)" fill="#c44da9"/>
    <path id="Path_76610" data-name="Path 76610" d="M0,203.731c.232-.313.384-.532.55-.741a3.229,3.229,0,0,0,.767-2.3c-.056-.884.212-1.11,1.108-1.11h22.01c.871,0,1.139.232,1.1,1.081a3.211,3.211,0,0,0,.734,2.307c.188.226.333.488.515.758Z" transform="translate(0 -165.328)" fill="#c44da9"/>
    <path id="Path_76611" data-name="Path 76611" d="M24.211,119.5c-3.59,0-7.18-.005-10.769.008-.353,0-.464-.083-.452-.445.027-.843.031-1.688,0-2.531-.015-.416.074-.55.529-.549q9.825.027,19.651.012c.629,0,1.259.009,1.888,0,.241-.005.326.074.324.317-.009.958-.019,1.917,0,2.875.009.386-.227.317-.447.317H24.211" transform="translate(-10.758 -96.078)" fill="#c44da9"/>
    <path id="Path_76612" data-name="Path 76612" d="M54.9,152.745c-1.458,0-2.917-.008-4.375.006-.318,0-.443-.057-.441-.417q.026-3.581,0-7.164c0-.337.09-.431.427-.43q4.4.019,8.794,0c.3,0,.424.052.421.394q-.023,3.6,0,7.206c0,.321-.086.413-.409.409-1.472-.017-2.945-.007-4.418-.007" transform="translate(-41.492 -119.898)" fill="#c44da9"/>
    <path id="Path_76613" data-name="Path 76613" d="M114.571,147.373c0-.757.007-1.515,0-2.272,0-.242.039-.359.323-.357,1.429.013,2.858.011,4.287,0,.257,0,.35.077.349.342q-.014,2.315,0,4.63c0,.232-.06.331-.312.329q-2.165-.014-4.33,0c-.242,0-.32-.073-.316-.316.013-.786,0-1.572,0-2.358" transform="translate(-94.902 -119.9)" fill="#c44da9"/>
    <path id="Path_76614" data-name="Path 76614" d="M17.971,147.409c0,.757-.009,1.514,0,2.27,0,.263-.053.379-.351.376-1.428-.014-2.856-.011-4.284,0-.244,0-.316-.078-.315-.319q.013-2.335,0-4.67c0-.25.088-.315.323-.313q2.142.012,4.284,0c.262,0,.347.084.342.344-.014.771,0,1.542,0,2.313" transform="translate(-10.79 -119.906)" fill="#c44da9"/>
    <path id="Path_76615" data-name="Path 76615" d="M66.809,4.029c-.685,0-1.371-.009-2.056,0-.25.005-.316-.067-.284-.317.082-.622.119-1.25.205-1.872a2.166,2.166,0,0,1,4.284,0c.093.635.141,1.276.23,1.912.036.254-.076.282-.282.279-.7-.008-1.4,0-2.1,0" transform="translate(-53.398 0)" fill="#c44da9"/>
    <path id="Path_76616" data-name="Path 76616" d="M117.011,185.216c-.7,0-1.4-.012-2.1.006-.283.007-.36-.085-.36-.364,0-.91-.013-.91.913-.91,1.227,0,2.455.008,3.682-.006.275,0,.367.07.369.355.007.92.019.92-.879.92h-1.627" transform="translate(-94.891 -152.37)" fill="#c44da9"/>
    <path id="Path_76617" data-name="Path 76617" d="M15.494,183.955c.715,0,1.429.008,2.144,0,.236,0,.318.062.326.309.033.964.042.964-.924.964-1.215,0-2.43-.009-3.645.006-.3,0-.386-.09-.385-.387,0-.888-.009-.888.9-.888h1.586" transform="translate(-10.778 -152.377)" fill="#c44da9"/>
  </g>
</svg>
