<svg id="Group_51933" data-name="Group 51933" xmlns="http://www.w3.org/2000/svg" xmlns:xlink="http://www.w3.org/1999/xlink" width="31.629" height="35.148" viewBox="0 0 31.629 35.148">
  <defs>
    <clipPath id="clip-path">
      <rect id="Rectangle_15637" data-name="Rectangle 15637" width="31.629" height="35.149" fill="#e2746b"/>
    </clipPath>
  </defs>
  <g id="Group_51932" data-name="Group 51932" clip-path="url(#clip-path)">
    <path id="Path_76618" data-name="Path 76618" d="M8.813,0h14c.006.137.017.273.017.41,0,1.51.007,3.02,0,4.529,0,.264.062.351.34.347,1.178-.016,2.356-.011,3.534,0a9.965,9.965,0,0,1,1.365.027A7.007,7.007,0,0,1,28.1,6.7q.007,12.267,0,24.534c0,.3.057.413.387.4.949-.024,1.9,0,2.848-.013.222,0,.295.061.292.287-.012.9,0,1.807,0,2.711,0,.515,0,.515-.5.515H.483a1.558,1.558,0,0,0-.206,0C.075,35.17,0,35.1,0,34.882Q.015,33.389,0,31.9c0-.215.07-.27.276-.268.926.01,1.853.006,2.779,0,.5,0,.454.064.454-.461q0-12.713,0-25.426c0-.465,0-.465.48-.465,1.476,0,2.951-.01,4.426.008.315,0,.375-.1.373-.386-.014-1.5-.007-3-.005-4.495,0-.136.019-.272.029-.407M19.319,27.224c0-1.349-.007-2.7.006-4.045,0-.268-.068-.344-.339-.342q-3.171.017-6.342,0c-.256,0-.352.049-.35.333q.017,4.062,0,8.125c0,.267.068.346.341.344q3.171-.017,6.342,0c.3,0,.349-.1.347-.371-.013-1.348-.006-2.7-.006-4.045M7.029,17.572c0,.5.006,1,0,1.507,0,.184.039.264.244.262q1.507-.014,3.014,0c.19,0,.259-.054.258-.252q-.012-1.507,0-3.014c0-.186-.046-.263-.247-.262q-1.507.012-3.013,0c-.189,0-.26.053-.255.252.012.5,0,1,0,1.507m15.8,1.765c.491,0,.982-.007,1.472,0,.206,0,.307-.033.3-.277-.014-.993-.011-1.986,0-2.978,0-.211-.066-.274-.272-.272q-1.489.012-2.978,0c-.213,0-.273.07-.271.277q.014,1.489,0,2.978c0,.21.067.278.275.273.49-.012.981,0,1.472,0M17.56,17.575c0-.492-.006-.984,0-1.475,0-.2-.044-.289-.265-.287-1.006.009-2.013.006-3.019,0-.173,0-.241.054-.24.236q.01,1.527,0,3.054c0,.184.071.235.243.234,1.006,0,2.013-.008,3.019,0,.227,0,.265-.1.262-.291-.008-.492,0-.984,0-1.475M7.029,10.524c0,.514.006,1.028,0,1.541,0,.177.049.238.231.237q1.524-.011,3.048,0c.177,0,.237-.054.235-.234q-.011-1.524,0-3.048c0-.176-.051-.237-.233-.235q-1.524.011-3.048,0c-.179,0-.237.053-.234.233.01.5,0,1,0,1.507M15.81,12.3c.491,0,.982-.008,1.472,0,.2,0,.284-.043.282-.264-.01-.993-.009-1.986,0-2.979,0-.2-.05-.279-.267-.277-.993.01-1.986.009-2.979,0-.2,0-.283.04-.281.262.011.993.012,1.986,0,2.979,0,.242.095.283.3.278.491-.011.982,0,1.472,0m5.271-1.793c0,.514.007,1.027,0,1.541,0,.19.054.258.251.256q1.507-.012,3.013,0c.19,0,.258-.052.256-.251q-.013-1.507,0-3.013c0-.191-.053-.256-.25-.254-1,.008-2.009.011-3.013,0-.23,0-.26.094-.256.285.009.479,0,.959,0,1.438M10.537,24.611c0-.491-.008-.982,0-1.473,0-.206-.032-.3-.275-.3-.993.013-1.987.009-2.98,0-.181,0-.264.033-.262.241q.015,1.524,0,3.048c0,.186.065.229.238.228,1-.007,2.009-.01,3.014,0,.22,0,.269-.074.264-.276-.012-.491,0-.982,0-1.473m10.545,0c0,.479.01.959,0,1.438-.007.228.046.318.3.314q1.472-.022,2.945,0c.236,0,.282-.082.279-.3-.01-.982-.012-1.963,0-2.945,0-.237-.085-.282-.3-.28-.982.009-1.963.011-2.945,0-.236,0-.286.085-.28.3.012.49,0,.982,0,1.472" transform="translate(0)" fill="#e2746b"/>
  </g>
</svg>
