<svg xmlns="http://www.w3.org/2000/svg" width="33.938" height="38.852" viewBox="0 0 33.938 38.852">
  <g id="Group_51924" data-name="Group 51924" transform="translate(0)">
    <g id="Group_51925" data-name="Group 51925">
      <path id="Path_76598" data-name="Path 76598" d="M23.766,1.606c0,.275,0,.525,0,.775,0,1.139,0,2.278,0,3.417a.266.266,0,0,1-.164.274,3.949,3.949,0,0,1-2.121.412,5.888,5.888,0,0,1-2.388-.746,4.649,4.649,0,0,0-1.58-.467c-.12-.015-.161.007-.159.137q.012.976.006,1.952a.186.186,0,0,0,.158.219,4.625,4.625,0,0,1,.91.465q2.462,1.37,4.92,2.748l9.44,5.27a3.721,3.721,0,0,1,.512.333,1.713,1.713,0,0,1,.4,2.188,1.325,1.325,0,0,1-1.148.689c-.6.015-1.2.006-1.8.006l-13.39,0-14.1,0H1.444A1.435,1.435,0,0,1,0,17.857a1.706,1.706,0,0,1,.968-1.706q2.341-1.3,4.679-2.613l4.525-2.529L16,7.753a1.615,1.615,0,0,1,.47-.2c.11-.022.126-.081.125-.179Q16.583,4.138,16.573.9c0-.165,0-.329,0-.494A.39.39,0,0,1,16.967,0a.372.372,0,0,1,.377.4c-.01.2.069.234.237.25a6.7,6.7,0,0,1,2.308.75,4.79,4.79,0,0,0,3.235.443,2.583,2.583,0,0,0,.315-.109c.1-.037.206-.077.327-.123" transform="translate(0 0)" fill="#268e00"/>
      <path id="Path_76599" data-name="Path 76599" d="M11.322,193.669c-.065,0-.131-.01-.2-.01-3.18,0-6.359-.013-9.539.007a1.6,1.6,0,0,1-.657-3.054,1.577,1.577,0,0,1,.58-.1l13.8,0H29.706c.835,0,1.671,0,2.507,0a1.417,1.417,0,0,1,1.445,1.431,1.6,1.6,0,0,1-.44,1.318,1.381,1.381,0,0,1-.9.387c-.158.007-.316.006-.474.006H12.089c-.217,0-.434.008-.65.012a.128.128,0,0,0-.117,0" transform="translate(-0.01 -154.818)" fill="#268e00"/>
      <path id="Path_76600" data-name="Path 76600" d="M131.029,116.8q0-.137,0-.274l.008-.239v-.355a.223.223,0,0,0-.008-.159q0-.276,0-.551l-.006-.081c0-1.02,0-2.04.015-3.059a.521.521,0,0,0-.228-.5c-.188-.131-.357-.291-.532-.44-.06-.051-.128-.1-.1-.2a.225.225,0,0,1,.209-.153,1.059,1.059,0,0,1,.138,0h5.37c.04,0,.079,0,.118,0,.111.009.23.013.275.141s-.06.186-.142.251c-.026.02-.05.043-.074.065-.2.185-.508.309-.6.55a2.391,2.391,0,0,0-.025.82q0,4.669,0,9.339c0,.366.008.731,0,1.1a.346.346,0,0,0,.153.314c.208.161.4.336.608.5a.188.188,0,0,1,.088.2.2.2,0,0,1-.175.14.706.706,0,0,1-.157.009h-5.43a.53.53,0,0,1-.214-.021c-.168-.07-.2-.195-.063-.315.222-.2.45-.383.68-.57a.235.235,0,0,0,.1-.2q0-3.1,0-6.2a.219.219,0,0,0-.007-.039c0-.027,0-.054,0-.081" transform="translate(-105.785 -90.03)" fill="#268e00"/>
      <path id="Path_76601" data-name="Path 76601" d="M23.408,115.694v2.369a.151.151,0,0,0-.006.119c0,.408,0,.815,0,1.222,0,1.218,0,2.435,0,3.653a.334.334,0,0,0,.142.3c.208.161.4.337.607.5.067.056.143.11.109.21a.238.238,0,0,1-.214.15,1.025,1.025,0,0,1-.138,0h-5.41a.815.815,0,0,1-.177-.009.21.21,0,0,1-.177-.139.182.182,0,0,1,.085-.2c.213-.175.42-.359.638-.528a.3.3,0,0,0,.124-.266c0-1,0-2,0-3q0-4.077,0-8.154a.279.279,0,0,0-.114-.25c-.218-.17-.426-.352-.638-.529-.067-.056-.134-.117-.093-.216a.2.2,0,0,1,.2-.133c.1,0,.21-.009.315-.009h5.272a.878.878,0,0,1,.157.008.2.2,0,0,1,.17.147c.023.081-.025.136-.084.185q-.349.289-.7.581c-.034.028-.08.052-.07.11,0,.014,0,.027,0,.041q0,1.856,0,3.712l0,.12" transform="translate(-14.732 -90.031)" fill="#268e00"/>
      <path id="Path_76602" data-name="Path 76602" d="M77.221,110.791h2.725a.6.6,0,0,1,.195.018c.159.056.184.2.052.318-.2.173-.4.348-.606.5a.378.378,0,0,0-.166.345q.006,4.928,0,9.856c0,.421,0,.842,0,1.263a.26.26,0,0,0,.108.233c.217.172.425.353.638.53.067.056.139.112.106.211a.23.23,0,0,1-.212.151,1.212,1.212,0,0,1-.138,0H74.517a.8.8,0,0,1-.2-.011.215.215,0,0,1-.167-.152c-.021-.083.032-.134.089-.181.222-.185.441-.375.667-.556a.248.248,0,0,0,.1-.217q0-5.6,0-11.195a.262.262,0,0,0-.11-.233c-.207-.162-.408-.333-.609-.5-.073-.062-.175-.116-.128-.239s.156-.146.274-.146h2.784" transform="translate(-60.255 -90.031)" fill="#268e00"/>
    </g>
  </g>
</svg>
