<svg xmlns="http://www.w3.org/2000/svg" xmlns:xlink="http://www.w3.org/1999/xlink" width="195" height="103.575" viewBox="0 0 195 103.575">
  <defs>
    <linearGradient id="linear-gradient" x1="0.241" y1="1.227" x2="1" y2="0.5" gradientUnits="objectBoundingBox">
      <stop offset="0" stop-color="#1f7400"/>
      <stop offset="1" stop-color="#9bd037"/>
    </linearGradient>
  </defs>
  <g id="Group_51981" data-name="Group 51981" transform="translate(-576 -254.997)">
    <path id="Path_76680" data-name="Path 76680" d="M56.989,5.311l2.756.32c1.282.192,1.474.577,1.218,1.859-.513,2.051-1.795,6.922-4.679,16.471-2.756,9.165-4.871,16.022-5.576,17.881-.7,1.666-1.025,1.923-2.564,2.115l-1.859.192-.32.833c1.154,0,5.384-.192,8.075-.192,3.2,0,7.37.192,8.46.192l.32-.833-2.756-.256c-.9-.128-1.282-.513-.961-1.666.577-2.564,1.538-5.9,4.743-17.368a5.912,5.912,0,0,1,2.435-.064c3.525.192,4.55,1.09,3.781,5.127-.32,1.538-1.346,5.063-1.923,7.37-1.282,4.935.577,8.139,6.729,8.139a19.109,19.109,0,0,0,4.55-.385l.513-.9a6.24,6.24,0,0,1-1.538.128c-3.2,0-2.307-3.781-1.73-5.96,1.025-3.717,1.346-6.024.9-7.883-.128-2.82-1.923-5-8.78-6.217V23.9c7.691-.513,14.1-3.781,14.1-11.857,0-1.987-.513-4.23-1.987-5.512-1.538-1.282-3.269-1.987-8.2-1.987-3.14,0-6.153.128-8.2.128s-6.217-.192-7.05-.192ZM71.474,5.5A2.945,2.945,0,0,1,74.1,6.657a5,5,0,0,1,.833,3.269c0,5.448-2.756,13.779-9.229,13.779a10.862,10.862,0,0,1-1.474-.064c3.525-11.921,4.55-15.51,5.063-16.984A1.691,1.691,0,0,1,71.025,5.5Zm26.6,11.6a12.973,12.973,0,0,0-8.332,3.14c-4.614,3.717-7.755,11.023-7.755,16.663,0,7.563,4.614,8.652,8.78,8.652a13.52,13.52,0,0,0,7.755-2.243c4.935-3.333,8.332-11.408,8.332-17.3,0-5.576-2.564-8.908-8.716-8.908Zm.32.961c1.538,0,1.923,1.538,1.923,2.948.064,5.191-3.461,17.048-6.409,21.342-1.218,1.73-2.051,2.371-3.269,2.371s-2.115-1.025-2.115-3.4c0-4.807,3.012-15.638,6.089-20.381,1.474-2.179,2.5-2.884,3.717-2.884Zm26.085-.961a12.973,12.973,0,0,0-8.332,3.14c-4.614,3.717-7.755,11.023-7.755,16.663,0,7.563,4.614,8.652,8.78,8.652a13.52,13.52,0,0,0,7.755-2.243c4.935-3.333,8.332-11.408,8.332-17.3,0-5.576-2.564-8.908-8.716-8.908Zm.32.961c1.538,0,1.923,1.538,1.923,2.948.064,5.191-3.461,17.048-6.409,21.342-1.218,1.73-2.051,2.371-3.269,2.371s-2.115-1.025-2.115-3.4c0-4.807,3.012-15.638,6.089-20.381,1.474-2.179,2.5-2.884,3.717-2.884Zm24.29,18.906c-1.025,3.269-3.461,6.473-6.089,6.473-1.154,0-1.474-.513-1.218-1.666,1.218-5.255,4.871-18.009,6.345-22.5l5.063-.256.641-.961h-5.319c1.09-3.461,2.371-7.691,2.884-8.973a34.136,34.136,0,0,1-8.075,1.474c-.577,1.923-1.154,4.166-2.179,7.5h-3.525l-.449.961,3.589.256c-1.538,5.319-4.1,14.164-5.768,19.676-1.346,4.486-.192,6.6,4.486,6.6a11.461,11.461,0,0,0,10.254-6.986Zm21.855-20-1.6,2.243c-.769-1.025-2.82-2.115-5.576-2.115a8.973,8.973,0,0,0-9.549,9.229,8.1,8.1,0,0,0,2.307,5.832c1.795,1.987,4.294,4.55,5.255,5.7a4.207,4.207,0,0,1,1.025,2.884c-.064,2.371-1.73,3.845-4.486,3.845-3.781,0-6.024-2.628-5.576-7.178a20.145,20.145,0,0,1,.577-3.525l-.769.064a94.315,94.315,0,0,1-3.2,9.421,18.576,18.576,0,0,0,8.075,2.179,11.961,11.961,0,0,0,8.4-2.948,8.486,8.486,0,0,0,2.756-6.345,7.1,7.1,0,0,0-2.115-5.191c-1.282-1.282-3.909-3.909-5.255-5.384a4.932,4.932,0,0,1-1.474-3.845A3.743,3.743,0,0,1,163.442,18c3.589,0,5.255,2.948,3.974,8.908l.7.128a54.559,54.559,0,0,1,3.269-9.549Zm24.674.128a12.973,12.973,0,0,0-8.332,3.14c-4.614,3.717-7.755,11.023-7.755,16.663,0,7.563,4.614,8.652,8.78,8.652a13.52,13.52,0,0,0,7.755-2.243c4.935-3.333,8.332-11.408,8.332-17.3,0-5.576-2.564-8.908-8.716-8.908Zm.32.961c1.538,0,1.923,1.538,1.923,2.948.064,5.191-3.461,17.048-6.409,21.342-1.218,1.73-2.051,2.371-3.269,2.371s-2.115-1.025-2.115-3.4c0-4.807,3.012-15.638,6.089-20.381,1.474-2.179,2.5-2.884,3.717-2.884Zm11.6,0-.385.961,4.038.256c-3.333,14.036-7.306,30.314-8.844,34.929-.577,1.73-1.282,2.371-2.243,2.371-1.282,0-2.756-1.474-3.974-3.525-.577-.961-1.154-1.025-2.243-.513a4.7,4.7,0,0,0-2.371,3.525c0,2.051,2.435,3.333,4.166,3.333A9.249,9.249,0,0,0,201,57.736a27.692,27.692,0,0,0,10.383-12.049c1.6-3.781,4.1-12.049,7.563-26.4l4.871-.256.449-.961h-5A126.9,126.9,0,0,1,222.725,5.76q1.154-3.076,2.692-3.076c1.025,0,1.282.9,1.282,2.243a18.056,18.056,0,0,1-.449,3.012c-.192.9.256,1.923,2.435,1.923a3.5,3.5,0,0,0,3.461-3.525c0-2.884-1.795-4.679-5.512-4.679A11.369,11.369,0,0,0,218.5,4.991c-3.269,3.076-5.127,6.729-6.986,13.074Z" transform="translate(530.034 253.339)" fill="url(#linear-gradient)"/>
    <path id="Path_76681" data-name="Path 76681" d="M80.144,34.985c-2.051,5.319-5.319,8.844-11.216,8.844a5.747,5.747,0,0,1-4.614-2.115,13.681,13.681,0,0,1-1.859-7.563,44.377,44.377,0,0,1,7.37-24.418c2.051-2.884,4.807-4.871,7.5-4.871A4.461,4.461,0,0,1,81.874,8c1.025,2.371,1.09,5.384.577,8.78h.7a98.926,98.926,0,0,1,4.038-12.5l-.513-.256L84.438,7.106c-1.41-2.179-4.679-3.333-8.011-3.333A17.558,17.558,0,0,0,63.865,8.58c-6.473,5.9-9.934,16.022-9.934,23.329,0,8.075,3.2,13.843,12.113,13.843a16.483,16.483,0,0,0,14.612-8.075V34.985ZM89.18,3.709l2.628.192c.961.064,1.154.32,1.025,1.218-.513,2.243-1.538,5.832-4.614,16.407C85.079,32.1,82.13,40.881,80.72,45.3c2.307-.192,5.576-.449,7.563-.449.9-3.525,1.666-5.768,2.435-8.011a52.452,52.452,0,0,1,4.807-11.536c2.435-3.909,5.127-5.576,6.409-5.576,1.154,0,1.218,1.218.9,2.307-1.09,3.2-3.269,9.357-5.64,16.151-1.154,3.461-2.115,7.37,2.307,7.37,4.166,0,7.883-2.756,10.318-7.563l-.577-.769c-1.538,3.14-4.166,5.448-5.384,5.448-.449,0-.449-.769-.256-1.41,1.346-4.422,3.653-10.9,5.768-16.984.513-1.666,1.346-4.614-.192-6.089a4.339,4.339,0,0,0-3.14-1.09c-4.679,0-8.78,3.781-12.049,8.2,3.012-10,6.281-20.573,7.5-23.649A93.094,93.094,0,0,1,89.373,2.94ZM138.4,37.676c-1.474,2.82-3.589,5.063-5,5.063-.833,0-.577-1.474-.385-2.435.7-3.589,4.614-16.215,6.794-22.5h-7.05l-.513,1.73c-.577-1.41-1.538-2.435-3.909-2.435a11.4,11.4,0,0,0-7.05,2.564c-5.512,4.1-9.87,13.2-9.87,20.06,0,3.333,1.218,5.832,4.55,5.832,5.127,0,8.973-4.486,10.7-7.306a.089.089,0,0,0,.128,0,8.9,8.9,0,0,0-.385,1.218c-.833,2.948-.7,6.089,3.012,6.089,5.063,0,8.2-4.358,9.613-7.242Zm-19.483,2.5c0-5.448,3.653-15.446,7.5-19.932,1.218-1.474,2.051-1.859,3.076-1.859.961,0,1.73.9,1.73,3.012,0,2.692-2.564,9.87-3.589,12.049-3.012,6.794-5.512,9.229-7.434,9.229-1.09,0-1.282-1.282-1.282-2.435Zm48.131-2.435c-1.41,2.756-4.038,5-5.319,5-.641,0-.7-.641-.513-1.346,1.666-5.512,4.038-11.985,5.64-16.6.577-1.795,1.474-5.384-.192-6.794a4.018,4.018,0,0,0-2.82-.9c-5.191,0-9.742,4.935-12.433,9.421a61.794,61.794,0,0,0,2.435-9.421,78.35,78.35,0,0,1-10.9,1.6l-.192.9,2.884-.064c.577,0,.769.192.577,1.218-.961,4.871-4.486,16.215-7.563,24.61,1.6-.256,5.576-.513,7.306-.577,1.346-4.743,2.628-8.139,3.589-11.088,1.538-4.23,6.089-13.715,10.062-13.715,1.154,0,1.282,1.154.769,2.756-1.282,3.845-3.909,11.28-5.576,16.022-1.154,3.269-1.666,6.793,2.564,6.793,3.845,0,7.947-2.435,10.254-7.178ZM183.264,17.1c-6.922,0-11.792,6.217-11.792,12.5a6.818,6.818,0,0,0,2.307,5.512c-3.333,1.154-5.832,3.4-5.832,6.281,0,2.756,1.859,4.486,4.807,5.576,2.692.961,5.384,1.859,8.588,3.012,1.795.641,3.14,1.923,3.14,3.781,0,3.076-2.692,4.807-6.922,4.807-4.743,0-9.806-2.307-9.806-6.537,0-2.371,1.859-4.1,4.807-3.717l.064-.641a10.614,10.614,0,0,0-2.884-.513c-2.435,0-6.217,1.025-6.217,5.063,0,4.743,6.153,7.627,12.241,7.627,6.729,0,14.036-3.14,14.036-10.7,0-4.1-2.692-5.832-6.281-6.858-2.884-.833-5.7-1.73-8.268-2.564-1.6-.513-2.371-1.154-2.371-2.179,0-.833.449-1.474,1.666-1.859a10.7,10.7,0,0,0,4.871,1.09c6.922,0,11.664-5.576,11.664-12.5a9.6,9.6,0,0,0-1.09-4.422,7.367,7.367,0,0,1,5.127.961,5.573,5.573,0,0,0,1.666-2.628c0-.641-.769-1.474-2.243-1.474-1.6,0-3.012.7-5.127,2.5-1.282-1.41-3.333-2.115-5.96-2.115Zm.577.961c.7,0,1.538.513,1.538,2.307,0,3.4-1.923,10.9-3.781,13.779-.705,1.09-1.41,1.73-2.307,1.73-.961,0-1.73-.577-1.73-2.692,0-3.589,1.987-10.831,4.1-13.651a2.819,2.819,0,0,1,2.115-1.474Zm28.84,17.5H212.3c-1.794,5-5.191,7.883-8.716,7.883-2.5,0-3.4-2.243-3.4-5.448a35.833,35.833,0,0,1,.769-6.409c2.371-.449,8.46-1.923,11.023-3.525a5.393,5.393,0,0,0,3.14-4.871c0-3.653-1.859-6.089-6.473-6.089A12.487,12.487,0,0,0,200.5,20.18c-5.127,4.23-7.819,11.472-7.819,16.92,0,5,2.371,8.46,7.37,8.46A15.312,15.312,0,0,0,212.809,38Zm-4.614-17.5c1.025,0,1.346,1.154,1.346,2.692,0,3.4-1.154,6.858-3.461,8.075a18.717,18.717,0,0,1-4.743,1.666c3.076-11.152,5.9-12.433,6.794-12.433Z" transform="translate(555.883 298.721)" fill="url(#linear-gradient)"/>
  </g>
</svg>
