<svg id="Group_51957" data-name="Group 51957" xmlns="http://www.w3.org/2000/svg" xmlns:xlink="http://www.w3.org/1999/xlink" width="22.002" height="24.583" viewBox="0 0 22.002 24.583">
  <defs>
    <clipPath id="clip-path">
      <rect id="Rectangle_15670" data-name="Rectangle 15670" width="22.002" height="24.582" fill="#4ba829"/>
    </clipPath>
  </defs>
  <g id="Group_51956" data-name="Group 51956" clip-path="url(#clip-path)">
    <path id="Path_76663" data-name="Path 76663" d="M14.352,24.582H7.628c.176-.247.367-.486.526-.743A10.982,10.982,0,0,0,9.5,18.965a2.944,2.944,0,0,0-.669-1.86c-.073-.113-.138-.022-.2.015a3.178,3.178,0,0,1-1.727.493A2.887,2.887,0,0,1,4.192,16.17a1.056,1.056,0,0,0-.871-.589,4.069,4.069,0,0,1-3.3-4.408A3.984,3.984,0,0,1,2.31,7.851c.189-.1.217-.175.127-.361a3.344,3.344,0,0,1-.315-1.56A3.679,3.679,0,0,1,7.2,2.623c.176.073.242.069.319-.135a3.682,3.682,0,0,1,6.964.008c.063.186.126.2.3.129a3.477,3.477,0,0,1,2.274-.187,3.673,3.673,0,0,1,2.489,5.088c-.065.147-.058.229.1.293a3.529,3.529,0,0,1,.716.432A4.154,4.154,0,0,1,21.9,12.4,4.015,4.015,0,0,1,18.621,15.6a.976.976,0,0,0-.807.567,3.086,3.086,0,0,1-3.443,1.359A3.415,3.415,0,0,1,13.2,17c-.082-.06-.144-.082-.214.025a2.744,2.744,0,0,0-.521,1.468,10.867,10.867,0,0,0,.154,1.717,10.361,10.361,0,0,0,.682,2.608,8.412,8.412,0,0,0,1.053,1.763" transform="translate(0 0.001)" fill="#4ba829"/>
  </g>
</svg>
