<?xml version="1.0" standalone="no"?>
<svg xmlns:xlink="http://www.w3.org/1999/xlink" id="wave" style="transform:rotate(0deg); transition: 0.3s" viewBox="0 0 1440 110" version="1.1" xmlns="http://www.w3.org/2000/svg"><defs><linearGradient id="sw-gradient-0" x1="0" x2="0" y1="1" y2="0"><stop stop-color="rgba(255, 255, 255, 1)" offset="0%"/><stop stop-color="rgba(255, 255, 255, 1)" offset="100%"/></linearGradient></defs><path style="transform:translate(0, 0px); opacity:1" fill="url(#sw-gradient-0)" d="M0,88L12,84.3C24,81,48,73,72,58.7C96,44,120,22,144,11C168,0,192,0,216,0C240,0,264,0,288,11C312,22,336,44,360,53.2C384,62,408,59,432,55C456,51,480,48,504,51.3C528,55,552,66,576,69.7C600,73,624,70,648,73.3C672,77,696,88,720,82.5C744,77,768,55,792,45.8C816,37,840,40,864,51.3C888,62,912,81,936,89.8C960,99,984,99,1008,93.5C1032,88,1056,77,1080,73.3C1104,70,1128,73,1152,71.5C1176,70,1200,62,1224,58.7C1248,55,1272,55,1296,49.5C1320,44,1344,33,1368,27.5C1392,22,1416,22,1440,20.2C1464,18,1488,15,1512,12.8C1536,11,1560,11,1584,9.2C1608,7,1632,4,1656,7.3C1680,11,1704,22,1716,27.5L1728,33L1728,110L1716,110C1704,110,1680,110,1656,110C1632,110,1608,110,1584,110C1560,110,1536,110,1512,110C1488,110,1464,110,1440,110C1416,110,1392,110,1368,110C1344,110,1320,110,1296,110C1272,110,1248,110,1224,110C1200,110,1176,110,1152,110C1128,110,1104,110,1080,110C1056,110,1032,110,1008,110C984,110,960,110,936,110C912,110,888,110,864,110C840,110,816,110,792,110C768,110,744,110,720,110C696,110,672,110,648,110C624,110,600,110,576,110C552,110,528,110,504,110C480,110,456,110,432,110C408,110,384,110,360,110C336,110,312,110,288,110C264,110,240,110,216,110C192,110,168,110,144,110C120,110,96,110,72,110C48,110,24,110,12,110L0,110Z"/></svg>