<svg xmlns="http://www.w3.org/2000/svg" width="39.528" height="41.457" viewBox="0 0 39.528 41.457">
  <g id="Group_450" data-name="Group 450" transform="translate(0.8 0.8)">
    <g id="Group_451" data-name="Group 451" transform="translate(0 0)">
      <ellipse id="Ellipse_14" data-name="Ellipse 14" cx="4.469" cy="4.469" rx="4.469" ry="4.469" transform="translate(14.801 9.403)" fill="none" stroke="#020202" stroke-width="1.6"/>
      <path id="Path_71570" data-name="Path 71570" d="M25.839,73.118V57.42a4.442,4.442,0,0,1,4.442-4.442H40.329a4.442,4.442,0,0,1,4.442,4.442v15.7" transform="translate(-16.034 -32.461)" fill="none" stroke="#020202" stroke-width="1.6"/>
      <line id="Line_8" data-name="Line 8" y2="10.257" transform="translate(13.135 30.4)" fill="none" stroke="#020202" stroke-linejoin="round" stroke-width="1.6"/>
      <line id="Line_9" data-name="Line 9" y2="10.257" transform="translate(25.101 30.4)" fill="none" stroke="#020202" stroke-linejoin="round" stroke-width="1.6"/>
      <line id="Line_10" data-name="Line 10" y2="10.257" transform="translate(34.328 30.4)" fill="none" stroke="#020202" stroke-linejoin="round" stroke-width="1.6"/>
      <line id="Line_11" data-name="Line 11" y2="10.257" transform="translate(3.632 30.4)" fill="none" stroke="#020202" stroke-linejoin="round" stroke-width="1.6"/>
      <ellipse id="Ellipse_15" data-name="Ellipse 15" cx="4.469" cy="4.469" rx="4.469" ry="4.469" transform="translate(25.347 9.403)" fill="none" stroke="#020202" stroke-linejoin="round" stroke-width="1.6"/>
      <path id="Path_71571" data-name="Path 71571" d="M75.963,52.978h3.9A4.442,4.442,0,0,1,84.3,57.42V68.448H80.665" transform="translate(-46.373 -32.461)" fill="none" stroke="#020202" stroke-linejoin="round" stroke-width="1.6"/>
      <ellipse id="Ellipse_16" data-name="Ellipse 16" cx="4.469" cy="4.469" rx="4.469" ry="4.469" transform="translate(3.642 9.403)" fill="none" stroke="#020202" stroke-linejoin="round" stroke-width="1.6"/>
      <ellipse id="Ellipse_17" data-name="Ellipse 17" cx="4.469" cy="4.469" rx="4.469" ry="4.469" transform="translate(20.381)" fill="none" stroke="#020202" stroke-linejoin="round" stroke-width="1.6"/>
      <ellipse id="Ellipse_18" data-name="Ellipse 18" cx="4.469" cy="4.469" rx="4.469" ry="4.469" transform="translate(9.222)" fill="none" stroke="#020202" stroke-linejoin="round" stroke-width="1.6"/>
      <path id="Path_71572" data-name="Path 71572" d="M9.732,52.978H5.442A4.442,4.442,0,0,0,1,57.42V68.448H4.635" transform="translate(-1 -32.461)" fill="none" stroke="#020202" stroke-linejoin="round" stroke-width="1.6"/>
      <path id="Path_71573" data-name="Path 71573" d="M45.1,77.229l1.487,1.487,2.8-2.8" transform="translate(-27.693 -46.347)" fill="none" stroke="#020202" stroke-linejoin="round" stroke-width="1.6"/>
      <path id="Path_71574" data-name="Path 71574" d="M48.116,52.978a3.2,3.2,0,1,1-6.391,0" transform="translate(-25.65 -32.461)" fill="none" stroke="#020202" stroke-linejoin="round" stroke-width="1.6"/>
    </g>
  </g>
</svg>
