<svg xmlns="http://www.w3.org/2000/svg" width="47.193" height="40.935" viewBox="0 0 47.193 40.935">
  <g id="Group_460" data-name="Group 460" transform="translate(0.8 0.8)">
    <g id="Group_461" data-name="Group 461" transform="translate(-0.001 0)">
      <path id="Path_71590" data-name="Path 71590" d="M36.2,30.036l6.826-7.05a3.273,3.273,0,0,1,3.782,0,2.938,2.938,0,0,1,.641,3.621c-.866,1.795-8.91,10.609-8.91,10.609a8.859,8.859,0,0,1-6.314,2.4c-4.07-.032-11.826,0-11.826,0a5.858,5.858,0,0,0-4,2.409L7.453,33.4l.125-.353S12,24.587,22.561,27.921l10.912.032A3.109,3.109,0,0,1,36.2,31.094a2.807,2.807,0,0,1-2.436,2.852H22.977" transform="translate(-2.219 -5.571)" fill="none" stroke="#020202" stroke-width="1.6"/>
      <path id="Path_71591" data-name="Path 71591" d="M15.892,45.957h0a6.208,6.208,0,0,1-8.778.158L.7,39.927l4.309-4.468Z" transform="translate(-0.7 -8.52)" fill="none" stroke="#020202" stroke-linejoin="round" stroke-width="1.6"/>
      <rect id="Rectangle_13600" data-name="Rectangle 13600" width="3.947" height="10.105" transform="translate(14.214 6.834)" fill="none" stroke="#020202" stroke-width="1.6"/>
      <rect id="Rectangle_13601" data-name="Rectangle 13601" width="3.947" height="13.5" transform="translate(20.783 3.439)" fill="none" stroke="#020202" stroke-width="1.6"/>
      <rect id="Rectangle_13602" data-name="Rectangle 13602" width="3.947" height="16.939" transform="translate(27.137)" fill="none" stroke="#020202" stroke-width="1.6"/>
    </g>
  </g>
</svg>
