<svg xmlns="http://www.w3.org/2000/svg" width="40.161" height="40.314" viewBox="0 0 40.161 40.314">
  <g id="Group_456" data-name="Group 456" transform="translate(0.796 0.764)">
    <g id="Group_457" data-name="Group 457" transform="translate(0 0)">
      <path id="Path_71579" data-name="Path 71579" d="M24.823,11.14c-1.791,1.586-4.182,2.3-5.83,4.177a2.6,2.6,0,0,1,1.793-3.449c4.723-1.812,9.527-2.661,14.512-.88,7.753,2.771,12.319,8.3,13.166,16.355.824,7.833-2.391,14.166-9.139,18.392a18.052,18.052,0,0,1-18.252.963A18.336,18.336,0,0,1,10.187,31.66a17.724,17.724,0,0,1,2.1-11.087,18.864,18.864,0,0,1,4.16-5.523" transform="translate(-10.035 -10.006)" fill="none" stroke="#FFFFFF" stroke-linecap="round" stroke-linejoin="round" stroke-width="1.6"/>
      <path id="Path_71580" data-name="Path 71580" d="M61.436,15.356c-.647.542-1.585.575-2.128,1.373-.318.467-.914.1-1.343-.021-.123-.749.776-.544.822-1.092-.043-.078-.072-.222-.147-.252-2.084-.832-3.007-.65-4.583,1.128-.544.613-1.8.69-1.548,1.943.48.387,1.259-.475,1.753.508.168.333.921-.262.889-.934A1.568,1.568,0,0,1,56.377,16.3c.606.669-.439,1.008-.246,1.572.505.408,1.22-.434,1.675.279,0,.093.037.244-.005.27-1.064.663-2.149,1.291-3.2,1.97-.8.516-1.015-.415-1.613-.625-.471.489-.679,1.21-1.446,1.5-.609.23-1.356.234-1.89.859.1.322.413.777.294,1.031a1.179,1.179,0,0,1-1.214.592c-.535-.044-1.05-.09-1.292.673a.747.747,0,0,0,.325.976,1.535,1.535,0,0,0,1.655-.148,14.009,14.009,0,0,0,1.41-1.092c1.354-.975,2.049-.709,2.658.971a2.705,2.705,0,0,0,.389.568c.832-.018,1.083-.407.71-1.119-.208-.4-.221-.77.16-.962s.691.1.973.393c.579.6.46,1.55,1.122,2.107l.529-1.119c.5-.136.617.36.685.563a1.151,1.151,0,0,0,1.56.8c.864-.245,1.317-.054,1.4.861a1.38,1.38,0,0,1-1.4,1.534,10.28,10.28,0,0,1-2.935-.543c-.3-.072-.6-.434-.983-.022-.928,1.008-1.591.117-2.211-.427-.548-.482-.662-1.415-1.69-1.394-1.412.028-2.885-.082-4.029.875a11.6,11.6,0,0,0-2.824,3.321,5.518,5.518,0,0,0,.426,4.9c.955,1.291,2.12,2.065,3.769,1.514a2.339,2.339,0,0,1,1.946.183,3.255,3.255,0,0,0,1.5.262,3.686,3.686,0,0,1,.033,1.1,2.2,2.2,0,0,0,.406,2.123c.365.475.841,1.2.556,1.774-1.034,2.073.667,3.634.9,5.457.077.594,1.763.719,2.133-.03.56-1.134,2.355-1.281,2.177-2.9-.009-.082.156-.226.269-.272,1.636-.668,1.867-2.19,2.233-3.636.334-1.319,1.409-2.109,2.241-3.064.59-.678,1.331-1.241,1.427-2.218-3.455-.412-4.009-3.172-4.8-5.779.648-.568,1.143-.211,1.537.317a7.706,7.706,0,0,1,1.518,2.792c.227.994.667,1.167,1.567.847a4.4,4.4,0,0,0,2.242-1.121c.29-.353.53-.657.4-1.129-.137-.515-.583-.479-.976-.562-1.212-.255-1.681-.89-1.676-2.385,1.448.786,2.721,1.925,4.467,1.691.6.932,1.534,1.668,1.8,2.8.206.868.291,1.765.44,2.711.857-.631.8-1.6.947-2.439a2.033,2.033,0,0,1,.721-1.532" transform="translate(-34.92 -13.524)" fill="none" stroke="#FFFFFF" stroke-linecap="round" stroke-linejoin="round" stroke-width="1.6"/>
      <path id="Path_71585" data-name="Path 71585" d="M11.5,86.569a3.756,3.756,0,0,1,1.924,1.971,4.1,4.1,0,0,0,2.537,2.381,2.048,2.048,0,0,1,1.507,1.932c.041,1.39.781,2.8-.077,4.2-.187.3-.027.821-.027,1.24" transform="translate(-11.091 -65.192)" fill="none" stroke="#FFFFFF" stroke-linecap="round" stroke-linejoin="round" stroke-width="1.6"/>
      <path id="Path_71586" data-name="Path 71586" d="M23.688,27.069c-.425,2.562-2.231,4.061-4.188,5.445" transform="translate(-16.857 -22.305)" fill="none" stroke="#FFFFFF" stroke-linecap="round" stroke-linejoin="round" stroke-width="1.6"/>
      <path id="Path_71587" data-name="Path 71587" d="M106.594,115.069c-.3,1.3-1.387,2.054-2.094,3.071" transform="translate(-78.124 -85.734)" fill="none" stroke="#FFFFFF" stroke-linecap="round" stroke-linejoin="round" stroke-width="1.6"/>
      <path id="Path_71589" data-name="Path 71589" d="M36.815,21.569A3.85,3.85,0,0,0,35,22.825" transform="translate(-28.029 -18.34)" fill="none" stroke="#FFFFFF" stroke-linecap="round" stroke-linejoin="round" stroke-width="1.6"/>
    </g>
  </g>
</svg>
