<svg xmlns="http://www.w3.org/2000/svg" xmlns:xlink="http://www.w3.org/1999/xlink" width="49" height="50" viewBox="0 0 49 50">
  <defs>
    <clipPath id="clip-path">
      <rect id="Rectangle_20552" data-name="Rectangle 20552" width="28.442" height="31.199" fill="#00ae8d"/>
    </clipPath>
  </defs>
  <g id="Group_50899" data-name="Group 50899" transform="translate(-0.345 0.383)">
    <ellipse id="Ellipse_218" data-name="Ellipse 218" cx="24.5" cy="25" rx="24.5" ry="25" transform="translate(0.345 -0.383)" fill="#fff"/>
    <g id="Group_50856" data-name="Group 50856" transform="translate(10.368 9.072)">
      <g id="Group_50855" data-name="Group 50855" clip-path="url(#clip-path)">
        <path id="Path_74724" data-name="Path 74724" d="M10.079,25.507c1.445-.061,1.37-1.745,2.22-2.531.652.072,1.83.868,2.359.869.5,0,1.344-.7,1.987-.826,1.841-.348,1.519,2.28,2.484,2.485.724.154,1.1-2.345,1.92-2.551a3.742,3.742,0,0,1,2.764,1.389c.547.891.27,1.9.65,2.64.267.521.987.622,1.245,1.573.641,2.36-1.316,3.507-3.412,3.063-.128.7.5,3.054,1.289,3.057l1.643-2.794c3.275.844,3.3,2.835,3.176,5.846-1.121-.031-.6-1.606-.729-2.441-.241-1.614-.551-2.069-2.184-2.475L24.14,35.339a2.514,2.514,0,0,1-1.23.007c-.449-.149-.182-.888-.845-.672-.041,1.366-.924,2.329-1.591,3.412l6.73,7.547A2,2,0,0,1,24.162,48.2l-5.886-8.341A8.26,8.26,0,0,1,6.312,34.676c-.4-.044-.19.528-.612.672a2.529,2.529,0,0,1-1.229-.008L3.249,32.8a2.352,2.352,0,0,0-2.325,2.01c-.095.629.233,2.792-.371,2.922L0,37.385c.259-3.035.035-4.62,3.381-5.5l1.644,2.791c.818.2,1.288-2.511,1.054-3.055-4.071.87-4.655-5.014-.467-4.7-.37-2.553.947-3.351,3.148-3.979Zm7.987-.237-1.048-1.589-1.536.77Zm5.641,1.646c-.225-1.835-.428-2.927-2.451-3.3-.238.022-.975,2.705-1.777,2.6l1.762,2.11a2.244,2.244,0,0,1,2.466-1.411M8.642,23.88a2.261,2.261,0,0,0-1.27,4.208L9.54,25.863Zm9.89,15.026,6.011,8.679c1.383,1.177,2.977-.421,1.855-1.854l-6.866-7.645a7.747,7.747,0,0,0,.937-9.458,7.336,7.336,0,0,0-12.462.1c-4.279,7.216,3.624,14.3,10.525,10.178M4.6,27.668c-1.371.412-1.482,2.822-.241,3.2,3.11.943,3.161-4.075.241-3.2m18.335,0c-2.263.5-1.179,4.26,1.42,3.068,1.512-.694.761-3.549-1.42-3.068" transform="translate(0 -17.548)" fill="#00ae8d"/>
        <path id="Path_74725" data-name="Path 74725" d="M71.685,4.354A2.509,2.509,0,0,1,74.779.438C77.864,2.5,74.1,6.745,71.685,4.354M73.188.71c-2.208.4-2.047,4.1.834,3.439C75.958,3.7,75.277.327,73.188.71" transform="translate(-54.243 0)" fill="#00ae8d"/>
        <path id="Path_74726" data-name="Path 74726" d="M36.161,1.767c3.875-.9,4.317,4.782.654,4.67-2.843-.087-3.081-4.11-.654-4.67m1.881,3.639a1.765,1.765,0,0,0-2.18-2.763c-1.79,1.073.228,4.338,2.18,2.763" transform="translate(-26.389 -1.279)" fill="#00ae8d"/>
        <path id="Path_74727" data-name="Path 74727" d="M110.805,77.86v1.883h-.7l-.236-1.88Z" transform="translate(-84.044 -59.56)" fill="#00ae8d"/>
        <path id="Path_74728" data-name="Path 74728" d="M39.688,37.858l.024,1.155A5.051,5.051,0,0,1,44.4,43.725l1.4.011v.7l-1.192.1a5.654,5.654,0,0,1-4.891,4.863l-.031,1.147h-.7l-.031-1.147a5.411,5.411,0,0,1-4.782-4.736l-1.3-.578c.257-.558,1.262-.246,1.4-.369a16.355,16.355,0,0,1,.588-2.114,5.308,5.308,0,0,1,4.1-2.595l.024-1.155Zm-.7,1.882c-1.68-.032-4.026,1.954-4.018,3.648,0,.594.869.357.729,1.052-.538.024-.708-.194-.711.353-.01,1.847,2.182,3.557,3.88,3.883l.122-.709h.7l.122.709c1.681-.358,3.776-1.8,3.881-3.648.064-1.132-.652-.127-.71-.936,1.217-.426.6-1.537.043-2.4A4.5,4.5,0,0,0,39.69,39.74l0,.705h-.7Z" transform="translate(-25.148 -28.96)" fill="#00ae8d"/>
      </g>
    </g>
  </g>
</svg>
