<svg xmlns="http://www.w3.org/2000/svg" xmlns:xlink="http://www.w3.org/1999/xlink" width="49" height="49" viewBox="0 0 49 49">
  <defs>
    <clipPath id="clip-path">
      <rect id="Rectangle_20558" data-name="Rectangle 20558" width="23.754" height="28.187" fill="#7f3f98"/>
    </clipPath>
  </defs>
  <g id="Group_50900" data-name="Group 50900" transform="translate(-0.496 -0.137)">
    <circle id="Ellipse_219" data-name="Ellipse 219" cx="24.5" cy="24.5" r="24.5" transform="translate(0.496 0.137)" fill="#fff"/>
    <g id="Group_50895" data-name="Group 50895" transform="translate(12.96 10.368)">
      <g id="Group_50862" data-name="Group 50862" clip-path="url(#clip-path)">
        <path id="Path_74755" data-name="Path 74755" d="M13.337,138.42a.5.5,0,0,1,.3-.216c.639-.094.437.681.465,1.073.007.093-.047.286.127.212.151-.064.593-.477.842-.612a8.2,8.2,0,0,1,1.243-.51l-.032-1.442a4.019,4.019,0,0,1-.849-.776c-.671-.906-.184-1.254-1.48-1.77a6.338,6.338,0,0,0-4.966.167,3.7,3.7,0,0,1-1.884,2.777l-.01,1.137a4.829,4.829,0,0,1,1.706.6c0-.357-.074-.832.392-.85.758-.029.346,1.012.482,1.474.043.146.433.444.566.631a3.874,3.874,0,0,1,.7,1.949,35.717,35.717,0,0,1,0,4.71c-.073.791-.753.8-.854.162-.241-1.525.174-3.626-.005-5.211-.414-3.65-8.353-3.9-9.143-.078L.92,147.21c-.29.652-.78.426-.841-.234a35,35,0,0,1,.005-4.791c.232-2.611,2.994-3.908,5.343-3.985.252-.008.792.238.885-.048l.013-.544a3.531,3.531,0,0,1-3.749-5.33,3.516,3.516,0,0,1,6.4,1.4,7.207,7.207,0,0,1,5.77.172,3.5,3.5,0,1,1,2.353,3.505v.854c2.177-.436,5.417.506,6.308,2.713.405,1,.386,4.777.28,5.971-.025.283-.041.552-.386.557a.392.392,0,0,1-.465-.4c-.221-1.577.167-3.6-.008-5.212-.214-1.97-2.957-2.976-4.664-2.955-1.458.018-3.5.754-4.215,2.115-.657,1.244-.063,4.493-.28,6.051-.073.526-.77.605-.849-.079a28.745,28.745,0,0,1,.146-5.672c.058-.206.369-.7.369-.743a16.677,16.677,0,0,1,0-2.138m4.6-7.032a2.7,2.7,0,0,0,.489,5.364c3.619-.2,3.109-5.834-.489-5.364m-13,.169A2.86,2.86,0,0,0,3.059,133.1a2.688,2.688,0,1,0,1.876-1.545" transform="translate(0 -119.418)" fill="#7f3f98"/>
        <path id="Path_74756" data-name="Path 74756" d="M101.448,77.916C98.2,81.159,93.2,76.134,96.558,72.9c3.264-3.149,8.114,1.792,4.889,5.017m-4.3-4.472c-2.5,2.292.856,6.279,3.562,4.033,2.774-2.3-.889-6.484-3.562-4.033" transform="translate(-87.285 -65.742)" fill="#7f3f98"/>
        <path id="Path_74757" data-name="Path 74757" d="M84.637,278.941a.788.788,0,0,1,.11.446,23.241,23.241,0,0,1,0,3.343c-.065.5-.581.645-.774.167v-3.763c.032-.276.478-.381.664-.192" transform="translate(-76.792 -255.001)" fill="#7f3f98"/>
        <path id="Path_74758" data-name="Path 74758" d="M30.581,278.742a.377.377,0,0,1,.457.367c.134,1.13-.109,2.522,0,3.682-.193.478-.709.33-.774-.167a23.687,23.687,0,0,1,0-3.43c.023-.172.139-.411.322-.453" transform="translate(-27.615 -254.896)" fill="#7f3f98"/>
        <path id="Path_74759" data-name="Path 74759" d="M179.976,277.975c.094-.334.77-.218.77,0v3.848c0,.271-.77.271-.77,0Z" transform="translate(-164.586 -254.014)" fill="#7f3f98"/>
        <path id="Path_74760" data-name="Path 74760" d="M232.976,277.93c.091-.326.77-.264.77.085v3.763c0,.271-.77.271-.77,0Z" transform="translate(-213.054 -253.968)" fill="#7f3f98"/>
        <path id="Path_74761" data-name="Path 74761" d="M135.976.19c.084-.273.77-.256.77.086V3.1c0,.271-.77.271-.77,0Z" transform="translate(-124.348 0)" fill="#7f3f98"/>
        <path id="Path_74762" data-name="Path 74762" d="M51.569,40.833c.265-.038,1.143,1.128,1.239,1.381.185.489-.249.753-.618.531a10.368,10.368,0,0,1-1.009-1.525.529.529,0,0,1,.387-.388" transform="translate(-46.805 -37.341)" fill="#7f3f98"/>
        <path id="Path_74763" data-name="Path 74763" d="M212.089,40.768a.467.467,0,0,1,.5.372c.01.272-.884,1.56-1.251,1.462-.769-.2.5-1.772.747-1.835" transform="translate(-193.047 -37.275)" fill="#7f3f98"/>
      </g>
    </g>
  </g>
</svg>
