<svg xmlns="http://www.w3.org/2000/svg" xmlns:xlink="http://www.w3.org/1999/xlink" width="49" height="50" viewBox="0 0 49 50">
  <defs>
    <clipPath id="clip-path">
      <rect id="Rectangle_20544" data-name="Rectangle 20544" width="33.02" height="33.063" fill="#7253a3" stroke="#fff" stroke-width="0.2"/>
    </clipPath>
  </defs>
  <g id="Group_50896" data-name="Group 50896" transform="translate(0 0.455)">
    <ellipse id="Ellipse_211" data-name="Ellipse 211" cx="24.5" cy="25" rx="24.5" ry="25" transform="translate(0 -0.455)" fill="#fff"/>
    <g id="Group_50850" data-name="Group 50850" transform="translate(8.424 7.776)">
      <g id="Group_50849" data-name="Group 50849" clip-path="url(#clip-path)">
        <path id="Path_74708" data-name="Path 74708" d="M99.977,2.772c8.042,8.035-3.451,20.769-12.241,13.368C78.139,8.06,91.22-5.977,99.977,2.772m-.63,12.239a8.214,8.214,0,0,0-3.509-13.73c-8.276-2.293-13.964,7.56-8.186,13.73a6.3,6.3,0,0,1,3.9-4.333c.117-.461-.345-.357-.613-.68a3.639,3.639,0,0,1,.837-5.591,3.6,3.6,0,0,1,4.288,5.681c-.224.258-.661.123-.527.589a5.7,5.7,0,0,1,3.813,4.333M92.887,4.83c-3.149.65-2.484,5.64.8,5.494,3.686-.165,3.317-6.344-.8-5.494m.365,6.239a5.279,5.279,0,0,0-4.794,4.248c-.079.706,1.79,1.477,2.405,1.679a8.4,8.4,0,0,0,6.583-.5c1.227-.646,1.4-.787.891-2.119a5.157,5.157,0,0,0-5.085-3.3" transform="translate(-69.679 0)" fill="#7253a3" stroke="#fff" stroke-width="0.2"/>
        <path id="Path_74709" data-name="Path 74709" d="M6.932,101.011a8.339,8.339,0,0,0-1.085-.5c-.4.022-1.25,1.218-1.867,1.13a8.459,8.459,0,0,1-2.031-1.8c-.965-1.352.912-1.8.788-2.521a9.9,9.9,0,0,0-.488-.985C1.781,95.949.5,96.424.132,95.6A10.518,10.518,0,0,1,.046,92.92c.223-1.192,1.839-.557,2.259-1.075a8.625,8.625,0,0,0,.448-1.007c-.025-.46-1.3-1.21-1.129-1.871a21.6,21.6,0,0,1,2.069-2.109c.984-.634,1.532.95,2.249.862,1.73-.212.733-2.158,1.726-2.6a10.509,10.509,0,0,1,2.677-.086c1.239.232.441,1.77,1.14,2.323,1.327,1.051,1.944-.872,2.778-.691a12.912,12.912,0,0,1,2.144,2.015c.61.947-.949,1.661-.867,2.245.257,1.807,2.155.72,2.6,1.73a10.5,10.5,0,0,1,.086,2.677c-.224,1.2-1.817.521-2.328,1.136-1.1,1.327.876,1.945.7,2.782a11.872,11.872,0,0,1-2.226,2.284c-.842.347-1.444-1.09-2.033-1.007-1.806.255-.72,2.155-1.73,2.6a8.717,8.717,0,0,1-2.937,0c-.8-.354-.419-1.682-.737-2.121m3.313-15.093-2.209.005L7.68,87.867c-.7.161-1.583.949-2.219.676-.306-.131-1.262-1.077-1.348-1.078L2.5,89.1l1.145,1.592L2.9,92.656l-2,.452.035,2.121,1.944.355.765,1.863-1.1,1.791,1.569,1.528L5.7,99.621l1.924.7.5,2.045,2.118-.026.271-1.894,1.944-.825,1.788,1.1L15.8,99.152l-1.179-1.6c.143-.521.533-1.922,1-2.051.327-.091,1.688-.1,1.758-.356l-.03-2.127-1.891-.274a13.39,13.39,0,0,1-.833-1.777c-.115-.731,1.268-1.592,1.109-1.952l-1.569-1.528-1.6,1.155-2.1-.953Z" transform="translate(0 -70.194)" fill="#7253a3" stroke="#fff" stroke-width="0.2"/>
        <path id="Path_74710" data-name="Path 74710" d="M109.935,104.134V113.4a2.761,2.761,0,0,1-1.126,1.126h-8.575c.3.482.853.7.692,1.385a2.581,2.581,0,0,1-.429,0,7.641,7.641,0,0,1-1.835-1.648c-.055-.552,1.524-1.8,2-1.822.885-.048-.528,1.1-.429,1.392h8.055a2.157,2.157,0,0,0,.953-.953v-8.749Z" transform="translate(-81.483 -86.004)" fill="#7253a3" stroke="#fff" stroke-width="0.2"/>
        <path id="Path_74711" data-name="Path 74711" d="M34.944,19.919l-.7-.952.44-.44a8.088,8.088,0,0,1,1.831,1.656c.055.552-1.524,1.8-2,1.822-.886.048.528-1.1.429-1.392H27.755a1.251,1.251,0,0,0-.953.953V31.18h-.693V21.045a2.761,2.761,0,0,1,1.126-1.126Z" transform="translate(-21.563 -15.301)" fill="#7253a3" stroke="#fff" stroke-width="0.2"/>
        <path id="Path_74712" data-name="Path 74712" d="M32.15,113.166c5.57-.664,6.417,7.98.819,8.448-5.367.449-6.367-7.788-.819-8.448m-.179.865c-4.194.7-3.341,7.464,1.3,6.673,4.189-.714,3.29-7.444-1.3-6.673" transform="translate(-23.487 -93.433)" fill="#7253a3" stroke="#fff" stroke-width="0.2"/>
      </g>
    </g>
  </g>
</svg>
