<svg xmlns="http://www.w3.org/2000/svg" xmlns:xlink="http://www.w3.org/1999/xlink" width="49" height="49" viewBox="0 0 49 49">
  <defs>
    <clipPath id="clip-path">
      <rect id="Rectangle_20550" data-name="Rectangle 20550" width="25.891" height="30.457" fill="#00b69a"/>
    </clipPath>
  </defs>
  <g id="Group_50897" data-name="Group 50897" transform="translate(0.218 -0.249)">
    <circle id="Ellipse_216" data-name="Ellipse 216" cx="24.5" cy="24.5" r="24.5" transform="translate(-0.218 0.249)" fill="#fff"/>
    <g id="Group_50852" data-name="Group 50852" transform="translate(11.989 9.72)">
      <g id="Group_50851" data-name="Group 50851" clip-path="url(#clip-path)">
        <path id="Path_74713" data-name="Path 74713" d="M.592,0,18.1.029a.815.815,0,0,1,.5.875l.011,14.956c.076.226.741.329,1.02.476a5.892,5.892,0,0,1,1.845,9l.44.445c.281.049.47-.749,1.165-.425.156.072,2.25,2.195,2.423,2.441a1.586,1.586,0,0,1-2.174,2.3c-.258-.192-2.479-2.4-2.555-2.562-.334-.714,1.05-.856-.018-1.475a10.259,10.259,0,0,0-1.33.753A5.864,5.864,0,0,1,12.2,24.76c-.269-.408-.392-.827-.675-1.2L.937,23.55C.258,23.521.006,22.98,0,22.367V1.154A1.236,1.236,0,0,1,.592,0m17,15.814V.847C17.5.814,17.442.972,17.4.972H1V22.487c.319.4.813.091,1.186.089.915,0,1.831-.022,2.738-.031,2.142-.023,4.288.028,6.428,0a5.805,5.805,0,0,1,.873-4.364H7.488v-1h5.675c.072,0,.934-.691,1.18-.816a5.246,5.246,0,0,1,3.248-.556m-1.026.909c-6.348.676-5.462,10.334,1.2,9.555,5.925-.693,5.018-10.217-1.2-9.555m6.2,9.7c-.173.256-.914.686-.756.995.063.122,1.818,1.874,1.943,1.931a.893.893,0,0,0,.748,0c1.006-.606-1.614-2.422-1.934-2.93" fill="#00b69a"/>
        <rect id="Rectangle_20545" data-name="Rectangle 20545" width="8.606" height="0.998" transform="translate(7.488 10.326)" fill="#00b69a"/>
        <path id="Path_74714" data-name="Path 74714" d="M21.725,135.279l.677.791-2.817,2.673c-.26.024-1.247-.878-1.36-1.1-.143-.277.338-.559.523-.738l.731.612Z" transform="translate(-15.921 -118.34)" fill="#00b69a"/>
        <path id="Path_74715" data-name="Path 74715" d="M21.743,81.547c.169-.03.739.491.613.737-.081.157-2.352,2.39-2.519,2.478a1.021,1.021,0,0,1-.261.126c-.25.036-1.238-.889-1.351-1.108-.143-.277.338-.559.524-.738.3-.052.561.743.917.56.5-.256,1.66-1.98,2.078-2.055" transform="translate(-15.92 -71.335)" fill="#00b69a"/>
        <rect id="Rectangle_20546" data-name="Rectangle 20546" width="3.742" height="0.998" transform="translate(7.488 12.197)" fill="#00b69a"/>
        <rect id="Rectangle_20547" data-name="Rectangle 20547" width="8.606" height="0.998" transform="translate(7.488 3.815)" fill="#00b69a"/>
        <path id="Path_74716" data-name="Path 74716" d="M21.743,29.547c.169-.03.739.491.613.737-.081.157-2.352,2.39-2.519,2.478a1.021,1.021,0,0,1-.261.126c-.25.036-1.238-.889-1.351-1.108-.143-.277.338-.559.524-.738.3-.052.561.743.917.56.5-.256,1.66-1.98,2.078-2.055" transform="translate(-15.92 -25.846)" fill="#00b69a"/>
        <rect id="Rectangle_20548" data-name="Rectangle 20548" width="3.742" height="0.998" transform="translate(7.488 5.686)" fill="#00b69a"/>
        <rect id="Rectangle_20549" data-name="Rectangle 20549" width="3.742" height="0.998" transform="translate(7.488 19.057)" fill="#00b69a"/>
      </g>
    </g>
  </g>
</svg>
