<svg xmlns="http://www.w3.org/2000/svg" xmlns:xlink="http://www.w3.org/1999/xlink" width="49" height="49" viewBox="0 0 49 49">
  <defs>
    <clipPath id="clip-path">
      <rect id="Rectangle_20551" data-name="Rectangle 20551" width="31.727" height="25.414" fill="#7e3f99"/>
    </clipPath>
  </defs>
  <g id="Group_50898" data-name="Group 50898" transform="translate(-0.324 -0.377)">
    <circle id="Ellipse_217" data-name="Ellipse 217" cx="24.5" cy="24.5" r="24.5" transform="translate(0.324 0.377)" fill="#fff"/>
    <g id="Group_50854" data-name="Group 50854" transform="translate(9.071 12.565)">
      <g id="Group_50853" data-name="Group 50853" clip-path="url(#clip-path)">
        <path id="Path_74717" data-name="Path 74717" d="M4.74,115.4c2.2-.23,3.942-.975,6.125-.163,3.231,1.2,6.736,4.167,9.961,5.612l.624.778,8.459-2.278a1.93,1.93,0,0,1,.709,3.668c-3.161,1.351-6.221,3.177-9.362,4.535a5.759,5.759,0,0,1-4.38.5c-2.726-.756-5.622-2.567-8.349-3.38a4.686,4.686,0,0,0-2.748-.1,2.1,2.1,0,0,1-1.9,1.773,21.218,21.218,0,0,1-2.434.188c-.281-.085-.313-.562-.353-.831-.525-3.5-.539-7.227-1.09-10.746-.017-.163.014-.445.158-.535a16.991,16.991,0,0,1,2.153-.287c1.135-.05,2.033.04,2.426,1.269M1.87,125.661c.9-.071,2.971.127,3.052-1.146l-.907-8.834c-.325-1.256-2.223-.642-3.136-.509Zm19.736-3.23a1.8,1.8,0,0,1-1.948,1.559c-1.772-.1-4.511-1.63-6.377-1.9-.628-.3-.386-.852.258-.757,1.863.461,3.73,1.266,5.581,1.72.452.111.924.311,1.332-.046a.936.936,0,0,0-.157-1.523c-2.922-1.557-5.763-3.495-8.7-5a9.7,9.7,0,0,0-1.2-.578c-1.869-.627-3.6.108-5.469.3l.685,7.584a4.881,4.881,0,0,1,2.7.008c2.739.676,5.711,2.515,8.457,3.37a5.113,5.113,0,0,0,4.282-.4c3.056-1.347,6.022-3.085,9.105-4.4a1.135,1.135,0,0,0-.349-2.208Z" transform="translate(0 -102.871)" fill="#7e3f99"/>
        <path id="Path_74718" data-name="Path 74718" d="M129.039,1.388l1.122.479c.286-.175.685-.846,1.062-.748a19.706,19.706,0,0,1,1.8,1.764c.273.59-.688.891-.629,1.3.037.256.433.69.391,1.049.338.076,1.148-.15,1.321.207a13.227,13.227,0,0,1,.024,2.494c-.11.541-.952.306-1.345.375l-.4,1.126c.008.356.848.567.671,1.159a19.335,19.335,0,0,1-1.66,1.7c-.6.278-.747-.441-1.086-.594-.308-.139-.87.4-1.268.358l-.171,1.281a11.636,11.636,0,0,1-2.628.07c-.437-.128-.2-.791-.265-1.115-.04-.206-1.089-.648-1.219-.624-.245.046-.55.805-1.076.66a19.8,19.8,0,0,1-1.8-1.763.277.277,0,0,1-.034-.22l.749-.908-.479-1.122c-.4-.058-1.079.135-1.294-.333a9.87,9.87,0,0,1-.051-2.369c.135-.623.878-.277,1.347-.379l.478-1.221c-.189-.336-.867-.636-.748-1.062a20.207,20.207,0,0,1,1.762-1.8c.478-.224.772.514,1.13.713l1.22-.48c.1-.378-.183-1.1.234-1.294a8.474,8.474,0,0,1,2.516,0c.466.213.275.887.333,1.294m-.9-.479h-1.38l-.09,1.044c-.428.233-.908.324-1.357.516-.25.106-.412.392-.749.3-.214-.059-.472-.533-.663-.632-.244-.126-.878.743-1.076.906.969,1.062.669.761.241,1.811-.408,1-.073,1.334-1.529,1.181v1.38l1.191.163c-.011.5.772,1.625.773,1.956s-.485.646-.681.887l1.02.929c.845-1.03,1.034-.533,2.009-.115.906.388.993.042.912,1.4h1.38c-.334-1.54,1.179-1.309,2.121-1.933l.872.644.943-1.014c-.945-.882-.626-.694-.27-1.572.376-.925.22-1.534,1.558-1.35V6.033c-1.41.1-1.028-.069-1.43-.984A9.352,9.352,0,0,1,131.413,4c-.034-.376.7-.735.661-.956l-.929-.948c-.871,1.039-.9.619-1.825.247-.914-.367-1.333-.133-1.181-1.431" transform="translate(-108.823 0)" fill="#7e3f99"/>
        <path id="Path_74719" data-name="Path 74719" d="M59.627,29.374c.237.505,2.227,2.792,2.153,3.132-.11.5-.944.381-1.336.385-.108.643.182,3.56-.089,3.9a3.868,3.868,0,0,1-2.04.049.394.394,0,0,1-.136-.259c-.1-.544.128-3.563,0-3.694-.659.032-1.634.1-1.169-.824a25.983,25.983,0,0,1,1.953-2.579c.234-.223.343-.35.665-.114m-.661,2.975v3.795h.69v-3.7c0-.336.64-.472.887-.492L59.311,30.33,58.08,31.955c.231.044.809.122.887.394" transform="translate(-51.281 -26.365)" fill="#7e3f99"/>
        <path id="Path_74720" data-name="Path 74720" d="M275.584,32.891c-.131.132.168,3.144-.074,3.72-.192.457-1.281.371-1.75.321-.491-.052-.505-.165-.544-.636-.09-1.09.075-2.3,0-3.405-.542.008-1.534.139-1.229-.685.062-.169,1.867-2.581,2.062-2.767.277-.264.407-.248.686.012.253.619,2.044,2.455,2.115,2.921.084.557-.895.563-1.269.519m-1.577-.542c.185,1.083-.137,2.656,0,3.795h.789V32.251l.788-.295L274.3,30.329l-1.085,1.529c-.093.239.5.142.661.271a1.1,1.1,0,0,1,.126.22" transform="translate(-245.131 -26.365)" fill="#7e3f99"/>
        <path id="Path_74721" data-name="Path 74721" d="M23.49,202.082a1.151,1.151,0,0,1-1.7-1.55c.975-1.137,2.77.427,1.7,1.55m-.884-1.139a.344.344,0,0,0,.158.668.344.344,0,0,0-.158-.668" transform="translate(-19.386 -180.41)" fill="#7e3f99"/>
        <path id="Path_74722" data-name="Path 74722" d="M154.813,30.235c5.421-.587,5.538,8.016-.026,7.462-4.293-.427-4.375-6.985.026-7.462m.2.787c-3.863.353-3.462,6.254.562,5.886,3.745-.343,3.284-6.237-.562-5.886" transform="translate(-136.603 -27.229)" fill="#7e3f99"/>
        <path id="Path_74723" data-name="Path 74723" d="M178.622,42.917c.033.057.328.143.438.252.3.3.55,1,.062,1.234-.59.235-.554-1.283-1.186-.651-.573.573.471.655.722.755a1.205,1.205,0,0,1,.518,1.815c-.165.248-.432.331-.52.466-.132.2-.034.631-.494.59s-.277-.535-.366-.678c-.033-.053-.235-.057-.315-.125-.476-.408-.678-1.53.038-1.329.44.124.177.781.732.751,1.093-.752-.5-.713-.9-1.122a1.192,1.192,0,0,1-.035-1.595c.129-.154.368-.237.44-.348.152-.238.024-.716.5-.679.444.035.266.492.364.663" transform="translate(-159.58 -38.088)" fill="#7e3f99"/>
      </g>
    </g>
  </g>
</svg>
