<svg xmlns="http://www.w3.org/2000/svg" xmlns:xlink="http://www.w3.org/1999/xlink" width="120" height="120" viewBox="0 0 120 120">
  <defs>
    <clipPath id="clip-path">
      <rect id="Rectangle_20569" data-name="Rectangle 20569" width="59.045" height="59.087" transform="translate(0 0)" fill="#7f3f98"/>
    </clipPath>
  </defs>
  <g id="Group_50903" data-name="Group 50903" transform="translate(-747 -2880)">
    <ellipse id="Ellipse_228" data-name="Ellipse 228" cx="46.5" cy="47" rx="46.5" ry="47" transform="translate(760 2893)" fill="#fff"/>
    <g id="Ellipse_235" data-name="Ellipse 235" transform="translate(747 2880)" fill="none" stroke="#fff" stroke-width="1">
      <circle cx="60" cy="60" r="60" stroke="none"/>
      <circle cx="60" cy="60" r="59.5" fill="none"/>
    </g>
    <g id="Group_50876" data-name="Group 50876" transform="translate(777 2909.999)">
      <g id="Group_50875" data-name="Group 50875" transform="translate(0 0.001)" clip-path="url(#clip-path)">
        <path id="Path_74802" data-name="Path 74802" d="M196.616,201.876c.817.019,1.7-.245,2.033.7l.01,8.654c-.005.364-.323.616-.605.794l-37.252.033c-.364-.005-.615-.323-.794-.605v-8.979c.425-.845,1.222-.568,2.01-.6a8.106,8.106,0,0,1,3.932-7.074c-2.35-4,.128-8.57,4.907-8.191.33.026.984.335,1.208.2.115-.071,1.039-1.516,1.351-1.838a10.393,10.393,0,0,1,1.649-1.285l.04-.167a5.265,5.265,0,0,1,1.453-7.363c4.957-2.959,10.033,2.71,6.968,7.453a20.4,20.4,0,0,1,1.694,1.362c.314.324,1.232,1.763,1.35,1.837.238.15.732-.166,1.079-.2,4.837-.431,7.433,4.1,5.036,8.193a8.106,8.106,0,0,1,3.932,7.074m-17.452-24.4a3.027,3.027,0,0,0-2.4,4.618c.488.834,1.816,1.137,1.306,2.318-.2.469-1.275.741-1.77,1.028a5.616,5.616,0,0,0-2.08,1.989c-.624,1.022-.071.868.406,1.763a8.139,8.139,0,0,0,.7,1.467h7.979a10.619,10.619,0,0,0,.742-1.547c.194-.335.754-.834.688-1.107a6.009,6.009,0,0,0-2.328-2.519c-.848-.5-2.518-.725-1.8-2.108.2-.388.719-.585,1-.907a3.046,3.046,0,0,0-2.441-5m15.417,24.4a6.316,6.316,0,0,0-2.782-5.041c-.9-.579-2.647-.8-2.082-2.177.168-.411.663-.581.919-.86a3.012,3.012,0,1,0-4.323,0c.256.279.751.449.92.86.565,1.382-1.177,1.6-2.082,2.177a6.316,6.316,0,0,0-2.782,5.041Zm-18.318,0a6.3,6.3,0,0,0-3.014-5.19c-.54-.318-1.714-.611-1.89-1.164-.368-1.16.917-1.447,1.391-2.311A3.01,3.01,0,1,0,168,193.8c.243.265.682.41.872.781.713,1.383-.94,1.6-1.8,2.108a6.3,6.3,0,0,0-3.015,5.19Zm7.246-9.153h-8.385c.038.792-.559,1.361-.761,2.075a8.118,8.118,0,0,1,3.935,7.079h2.037a8.106,8.106,0,0,1,3.932-7.074c-.231-.7-.773-1.3-.758-2.08m13.108,11.189h-34.6v6.106h34.6Z" transform="translate(-139.613 -152.989)" fill="#7f3f98"/>
        <path id="Path_74803" data-name="Path 74803" d="M12.226,131.324V153.14a10.71,10.71,0,0,1-.708,1.455,4.2,4.2,0,0,1-4.157,1.629c-.437-.064-.976-.428-1.2-.448-.173-.016-.966.415-1.393.467A4.15,4.15,0,0,1,.1,153.307c-.206-12.082-.022-24.2-.093-36.3a6.1,6.1,0,0,1,5.407-5.533c2.677-.232,5.515-.107,7.384,2.038,2.2,2.52,1.252,5.631,1.487,8.689l5.245,5.313a3.978,3.978,0,0,1-3.9,6.192c-1.551-.227-2.3-1.471-3.4-2.384M6.094,113.553a4.08,4.08,0,0,0-3.886,3.11c.049,5.877-.607,12.456-.164,18.291.2,2.649,2.539,3.719,4.05,5.618l.04,11.536a2.03,2.03,0,1,0,4.055-.116l.009-22.52c-.079-.594-1.638-1.757-2.094-2.358a5.053,5.053,0,0,1-.964-2.343,23.507,23.507,0,0,1,.025-3.534,1.069,1.069,0,0,1,2.016.222c.292,2.2-.553,2.965,1.135,4.971a49.881,49.881,0,0,0,5.1,4.945A1.814,1.814,0,0,0,17.92,129a4.821,4.821,0,0,0-.541-.732c-1.453-1.763-3.576-3.334-5.088-5.089-.4-2.688.851-7-1.728-8.831a6.927,6.927,0,0,0-4.47-.8M2.049,139.465v12.784c0,1,1.406,2.351,2.421,1.775a4,4,0,0,1-.39-1.389c-.308-3.528.242-7.494,0-11.069-.083-.435-1.639-1.7-2.033-2.1" transform="translate(0.001 -97.194)" fill="#7f3f98"/>
        <path id="Path_74804" data-name="Path 74804" d="M5.405.071c9.408-1.195,9.5,13.114.223,12.178-6.917-.7-7-11.318-.223-12.178M6.412,2.124c-5.257.06-5.162,8.021-.021,8.065,5.326.045,5.381-8.126.021-8.065" transform="translate(-0.333 -0.001)" fill="#7f3f98"/>
        <path id="Path_74805" data-name="Path 74805" d="M105.964,8.256c1.014-.215,1.789.494,1.368,1.494a9.951,9.951,0,0,1-2.216,1.471c-1.04.318-1.9-.437-1.466-1.466a8.9,8.9,0,0,1,2.315-1.5" transform="translate(-90.338 -7.17)" fill="#7f3f98"/>
        <path id="Path_74806" data-name="Path 74806" d="M104.353,64.168c.7-.209,2.214.66,2.772,1.119,1.009.83.362,2.163-.988,1.878a7.4,7.4,0,0,1-2.355-1.586,1.154,1.154,0,0,1,.571-1.41" transform="translate(-90.51 -55.962)" fill="#7f3f98"/>
        <path id="Path_74807" data-name="Path 74807" d="M112.39,40.034a17.9,17.9,0,0,1,2.873,0,1.1,1.1,0,0,1,.16,1.888,11.231,11.231,0,0,1-3.033.095,1.108,1.108,0,0,1,0-1.983" transform="translate(-97.53 -34.881)" fill="#7f3f98"/>
      </g>
    </g>
  </g>
</svg>
