<svg xmlns="http://www.w3.org/2000/svg" xmlns:xlink="http://www.w3.org/1999/xlink" width="120" height="120" viewBox="0 0 120 120">
  <defs>
    <clipPath id="clip-path">
      <rect id="Rectangle_20570" data-name="Rectangle 20570" width="64.809" height="72.596" fill="#7f3f98" stroke="#7f3f98" stroke-width="0.25"/>
    </clipPath>
  </defs>
  <g id="Group_50904" data-name="Group 50904" transform="translate(-1029 -2880)">
    <ellipse id="Ellipse_229" data-name="Ellipse 229" cx="46.5" cy="47" rx="46.5" ry="47" transform="translate(1042 2894)" fill="#fff"/>
    <g id="Ellipse_236" data-name="Ellipse 236" transform="translate(1029 2880)" fill="none" stroke="#fff" stroke-width="1">
      <circle cx="60" cy="60" r="60" stroke="none"/>
      <circle cx="60" cy="60" r="59.5" fill="none"/>
    </g>
    <g id="Group_50878" data-name="Group 50878" transform="translate(1056.596 2904.702)">
      <g id="Group_50877" data-name="Group 50877" clip-path="url(#clip-path)">
        <path id="Path_74808" data-name="Path 74808" d="M47.876,24.41a38.029,38.029,0,0,0,4.437-.429c-.168-1.848,2.992-5.264,4.575-5.749,2.108-.646,7.735.957,7.914,3.6.1,1.506-1.031,1.409-2.04,1.978-.835.471-3.068,2.369-3.287,3.258-.162.657.42,1.2.528,1.778.192,1.024-.542,3.287-1.494,3.783-.541.282-1.836.252-2.009.817-.367,1.2,1.954,2.879.842,4.7-1.423,2.33-3.149-2.474-3.48-2.551-.612-.142-1.536.682-2.516-.022-1.416-1.016-.854-3.577-.22-4.9a4.556,4.556,0,0,1-3.935-1.339c-.362-.328-.582-1.21-1.2-.753-1.207.9.827,4.9,1.162,6.137.526,1.94.718,3.6-1.328,4.692-.832.445-2.92.832-3.248,1.8-.1.288-.041.611-.138.9-.368,1.1-2.053,1.916-2.9,2.74-2.415,2.337-5.607,7.365-8.362,8.869-.876.478-3.579,1.209-3.486,2.533.076,1.082.894,2.427.872,3.6-.026,1.4-1.14,2.639-1.05,4.156.031.526.319,1.116.3,1.633-.062,1.908-2.669,2.935-3.87,4.014-1.419,1.274-1.646,3.277-4.075,2.889-3.05-.488-2.852-5.585-3.682-7.755-.465-1.216-1.589-2.1-2.117-3.379-.64-1.55-.611-3.243-1.15-4.792-.688-1.978-2.125-3.628-2.714-5.753-.846-3.052-.01-6.059-.217-9.141-.189-2.815-.727-1.035-1.8-.3A2.294,2.294,0,0,1,5.85,41.7a12.616,12.616,0,0,1-4.313-2.668c-1.156-1.579.207-2.2.1-2.776-.159-.862-3.081-1.153-.721-3.143a5.09,5.09,0,0,1,5.2-1.262c.362-.366-1.491-3.64-1.869-4.145-.7-.943-1.678-1.239-1.484-2.692a3.077,3.077,0,0,1,1.413-2.306c1.551-.8,2.819.132,4.395-.062,2.174-.268,2.942-4.383,3.959-5.993.562-.889,2.637-2.4,2.77-3.034.126-.6-1.443-1.751-1.821-2.424-1.138-2.022-.164-3.942-.532-5.855-.067-.347-1-1.256-1.25-1.721a2.169,2.169,0,0,1-.058-2.416C12.76-.6,16.194-.065,17.806.783c1.176.619,3.2,2.669,4.319,2.964,1.439.379,3.455-2.579,5.311-.413,2.041,2.383-1.209,3.755-1.275,5.427-.048,1.225,1.563,2.2.31,3.712-.871,1.051-2.811,1.133-.942,2.572,2.352,1.811,5.647,1.747,2.735,5.725.444.542,1.161.678,1.693,1.136a13.72,13.72,0,0,0,1.81,1.755c1.592.979,3.44.1,5.286.508,1.662.365,3.907,2.26,5.522,2.037,2.027-.281-.587-3.677,1.611-4.485,2.223-.817,3.25.75,3.691,2.689m-3.268-1.45c-.317.37.682,2.647-.313,3.772-2.214,2.505-6.1-1.452-8.546-1.424-1.988.022-3.074.619-4.933-.7-.722-.51-1.242-1.331-1.9-1.816-.534-.4-1.935-.808-2.125-1.443-.343-1.145,1.676-2.611,1.241-3.308-.51-.817-4.245-1.708-4.655-3.525-.419-1.855,1.981-2.4,2.175-3.121.162-.607-.878-1.957-.712-3.076.169-1.143,2.636-3.015,1.694-4.091-.873-1-2.633.762-3.723.877-2.058.217-4.421-2.811-6.3-3.478-1.071-.38-4.36-.755-3.79,1.117.163.536.817.986,1.1,1.428,1.03,1.633-.04,3.842.571,5.816.381,1.233,2.167,1.946,2.269,3.387.1,1.426-2.121,2.713-2.881,3.78-1.378,1.934-1.39,4.631-3.575,6.229-2,1.464-4.379-.37-5.58.659-1.439,1.234.388,2.382,1.112,3.512.674,1.052,2.281,4.1,1.556,5.246-.552.874-2.147.121-2.888.085-1.157-.057-1.957.912-2.889,1.415.564.617,1.868,1.323,1.571,2.307-.27.9-1.36.919-.073,1.989.666.553,3.1,2.114,3.893,1.991s3.01-3.545,4.077-1.048c.876,2.051.005,6.827.181,9.326.219,3.116,2.539,5.422,3.294,8.441a26.8,26.8,0,0,0,.7,3.315c.553,1.409,1.915,2.582,2.412,4.124.515,1.6.547,6.714,3.04,6.482.856-.079,1.536-1.722,2.146-2.321.843-.827,3.713-2.167,3.722-3.406a15.319,15.319,0,0,1-.284-2.217c.108-1.09.979-2.326,1.031-3.289.1-1.824-1.638-3.633-.3-5.342.986-1.263,3.126-1.646,4.381-2.6,2.812-2.14,5.334-6.443,8.173-8.909a16.55,16.55,0,0,0,1.411-.965c.493-.58.307-1.6.955-2.313,1.12-1.233,4.493-1.158,4.393-3.329-.11-2.391-3.377-6.854-1.2-8.926,1.835-1.746,2.759.93,4.017,1.494.823.369,3.094.18,3.506.5.972.765-1.625,3.005-.568,4.579.5.742,1.336.023,2.045.037,1.4.028,1.266,1.816,2.147,2.529-.337-1.3-1.505-2.667-.856-4.051.564-1.2,2.317-.888,2.719-1.292a6.738,6.738,0,0,0,.667-1.716c.075-.979-.579-1.42-.6-2.23-.051-1.622,2.757-4.084,4.064-4.85.691-.4,1.7-.27.991-1.234-.958-1.309-4.1-2.273-5.651-1.941-1,.214-3.452,2.751-3.773,3.654-.222.625.132,1.484-.592,1.933a24.313,24.313,0,0,1-4.466.732c-2.66.1-1.55-1.305-2.739-2.6-.317-.347-1.066-.5-1.327-.2" transform="translate(0 0)" fill="#7f3f98" stroke="#7f3f98" stroke-width="0.25"/>
      </g>
    </g>
  </g>
</svg>
