<svg xmlns="http://www.w3.org/2000/svg" xmlns:xlink="http://www.w3.org/1999/xlink" width="120" height="120" viewBox="0 0 120 120">
  <defs>
    <clipPath id="clip-path">
      <rect id="Rectangle_20568" data-name="Rectangle 20568" width="58" height="59.895" fill="#7f3f98"/>
    </clipPath>
  </defs>
  <g id="Group_50902" data-name="Group 50902" transform="translate(-483 -2880)">
    <circle id="Ellipse_227" data-name="Ellipse 227" cx="47" cy="47" r="47" transform="translate(496 2893)" fill="#fff"/>
    <g id="Ellipse_234" data-name="Ellipse 234" transform="translate(483 2880)" fill="none" stroke="#fff" stroke-width="1">
      <circle cx="60" cy="60" r="60" stroke="none"/>
      <circle cx="60" cy="60" r="59.5" fill="none"/>
    </g>
    <g id="Group_50874" data-name="Group 50874" transform="translate(513 2910.052)">
      <g id="Group_50873" data-name="Group 50873" clip-path="url(#clip-path)">
        <path id="Path_74792" data-name="Path 74792" d="M118.953,94.975a3.527,3.527,0,0,0-.741,1.624c.487,2.858.148,6.237.722,9.038.288,1.4,2.987.7,3.147,2.178L123,120.248c.086,1.466-1.516,1.6-1.967.351l-.75-11.694c-.217-.717-2.558-.54-3.146-2.721-.649-2.406-.161-5.816-.738-8.328-.4-2.032.812-4.815,2.982-5.21a62.82,62.82,0,0,1,9.566-.048c2.951.263,3.887,2.63,3.822,5.259-.054,2.2-.282,5.613-.587,7.769a3.02,3.02,0,0,1-1.788,2.479c-.452.251-1.344.255-1.509.8l-.75,11.695a.986.986,0,0,1-1.962-.177c.575-4.041.413-8.2.921-12.242.277-2.2,2.116-.793,3.1-2.409l.759-9.3c-.475-1.08-.938-1.9-2.208-2.074a56.35,56.35,0,0,0-8.522-.021,2.475,2.475,0,0,0-1.268.6" transform="translate(-95.641 -76.004)" fill="#7f3f98"/>
        <path id="Path_74793" data-name="Path 74793" d="M2.1,135.873l10.922,11.656a6.016,6.016,0,0,1,1,3.82,30.243,30.243,0,0,1-.349,3.695,1.319,1.319,0,0,1-1.53.122c-.69-.68.569-5.141-.5-6.251L1.117,137.742a4.336,4.336,0,0,1-.983-2.928c-.389-5.5.206-11.6.129-17.13.453-1.392,1.2-1.637,2.592-1.412,5.339.86,4.639,7.945,5.119,11.943-.3.08-1.572.533-1.7.289-1.04-3.526.64-9.6-4.172-10.5Z" transform="translate(0 -95.541)" fill="#7f3f98"/>
        <path id="Path_74794" data-name="Path 74794" d="M258.65,118.07c-2.9.591-3.15,2.376-3.53,4.914-.284,1.894-.358,3.847-.56,5.752l-1.776-.356a66.362,66.362,0,0,1,.755-7.687,5.515,5.515,0,0,1,4.213-4.32c1.912-.361,2.708.265,2.86,2.135a132.828,132.828,0,0,1,0,16.369,4.376,4.376,0,0,1-.983,2.928c-2.388,2.949-5.751,5.865-8.36,8.706a23.5,23.5,0,0,0-2.156,2.466c-.91,1.578-.221,3.6-.226,5.27,0,1.553-1.756,1.721-1.954.159-.1-.794-.184-2.174-.2-3a6.017,6.017,0,0,1,1-3.82c3.675-3.851,7.394-7.668,10.922-11.656Z" transform="translate(-202.864 -95.605)" fill="#7f3f98"/>
        <path id="Path_74795" data-name="Path 74795" d="M32.107,194.984a32.606,32.606,0,0,0,3.133,3.178c1.145.714,2.668.842,4.141,1.9,5.426,3.912,4.9,7.966,4.556,13.918-.071,1.234.167,2.756.016,3.927a.906.906,0,0,1-1.781.165c-.458-4.129,1.191-9.287-.8-13.069a13.85,13.85,0,0,0-3.773-3.872c-1.1-.662-2.811-.834-3.607-1.37-.933-.629-2.362-2.782-3.3-3.638-1.172-1.075-2.137-1.428-3.6-.575-.149.087-.3-.049-.22.3l6.731,7.137c.575,1.052,0,1.977-1.182,1.541l-7.553-8.094c-.914-2.212,2.719-3.336,4.4-3.155a4.531,4.531,0,0,1,2.829,1.7" transform="translate(-20.337 -158.904)" fill="#7f3f98"/>
        <path id="Path_74796" data-name="Path 74796" d="M209.147,195.719c-1.435-.682-2.4-.734-3.625.372-.984.887-2.566,3.143-3.487,3.8-.647.462-2.547.758-3.5,1.3-7.571,4.288-3.607,10.843-4.722,17.153-.124.7-1.042.665-1.481.324-.477-.37-.193-3.713-.242-4.558-.357-6.169-.669-11.033,5.518-14.556.979-.557,2.86-.922,3.464-1.343,1.164-.81,2.673-3.329,4.106-4.243,1.973-1.259,6.394-.345,6.026,2.47l-7.612,8.215c-1.169.443-1.762-.488-1.175-1.535,1.742-1.986,3.841-3.835,5.579-5.8.2-.229,1.257-1.456,1.153-1.6" transform="translate(-157.807 -159.029)" fill="#7f3f98"/>
        <path id="Path_74797" data-name="Path 74797" d="M76.318,55.368c-.123,1.261.561,1.856-.97,1.964-2.251.158-4.774-.06-7.039-.108-1.6.505-2.006,1.445-1.954,3.041.072,2.228.314,5.042.543,7.279a1.834,1.834,0,0,0,1.054,1.791c.847.432,2.078.183,2.215,1.3.068,3.573.769,7.211.832,10.781.028,1.576-1.736,1.553-1.96.167l-.717-10.092c-1.142-.408-2.464-.847-2.937-2.077a29.74,29.74,0,0,1-.622-5.422c-.105-1.6-.413-4.267-.058-5.743.28-1.163,1.922-2.877,3.167-2.877Z" transform="translate(-53.066 -45.525)" fill="#7f3f98"/>
        <path id="Path_74798" data-name="Path 74798" d="M203.058,55.368a4.624,4.624,0,0,1,3.467,3.466c.353,3.095-.631,6.9-.613,10.054a3.7,3.7,0,0,1-3.1,2.5l-.751,10.187a.976.976,0,1,1-1.951.019c.474-3.344.393-6.762.751-10.112a5.192,5.192,0,0,1,.315-1.463c.47-.628,2.343-.206,2.856-1.588l.714-8a2.757,2.757,0,0,0-2.631-3.248c-1.707-.085-3.81.21-5.64.147-.6-.02-1.051-.318-1.681-.009V55.368Z" transform="translate(-160.161 -45.525)" fill="#7f3f98"/>
        <path id="Path_74799" data-name="Path 74799" d="M196.165.241A4.173,4.173,0,0,1,201.138,3a4.183,4.183,0,0,1-6.516,4.56C191.9,5.617,192.933.794,196.165.241m.532,1.775c-3.039.627-1.844,5.694,1.455,4.3,2.388-1.009,1.14-4.835-1.455-4.3" transform="translate(-158.737 -0.133)" fill="#7f3f98"/>
        <path id="Path_74800" data-name="Path 74800" d="M142.972,37.394a4.143,4.143,0,0,1,4.8,4.977c-.566,3.3-5.306,4.361-7.32,1.716-1.841-2.418-.544-6.252,2.519-6.693m2.292,5.757c2.528-2.385-1.766-5.736-3.467-2.844a2.265,2.265,0,0,0,3.467,2.844" transform="translate(-114.785 -30.704)" fill="#7f3f98"/>
        <path id="Path_74801" data-name="Path 74801" d="M91.689.108c6.124-1.151,6.89,7.287,1.87,8.092C87.839,9.118,87.1.97,91.689.108m.533,1.775c-2.733.553-1.876,4.85.8,4.55,2.994-.336,2.462-5.21-.8-4.55" transform="translate(-72.928 -0.001)" fill="#7f3f98"/>
      </g>
    </g>
  </g>
</svg>
