<svg xmlns="http://www.w3.org/2000/svg" xmlns:xlink="http://www.w3.org/1999/xlink" width="120" height="120" viewBox="0 0 120 120">
  <defs>
    <clipPath id="clip-path">
      <rect id="Rectangle_20574" data-name="Rectangle 20574" width="57.795" height="57.785" fill="#fff"/>
    </clipPath>
  </defs>
  <g id="Group_50887" data-name="Group 50887" transform="translate(-3025 -1757)">
    <circle id="Ellipse_241" data-name="Ellipse 241" cx="47" cy="47" r="47" transform="translate(3038 1770)" fill="#7f3f98"/>
    <g id="Ellipse_242" data-name="Ellipse 242" transform="translate(3025 1757)" fill="none" stroke="#7f3f98" stroke-width="1">
      <circle cx="60" cy="60" r="60" stroke="none"/>
      <circle cx="60" cy="60" r="59.5" fill="none"/>
    </g>
    <g id="Group_50886" data-name="Group 50886" transform="translate(3056 1788)">
      <g id="Group_50885" data-name="Group 50885" clip-path="url(#clip-path)">
        <path id="Path_74832" data-name="Path 74832" d="M39.905,16.276c.368-.333,2.73-2.5,2.785-2.687.084-.282-.413-1.049-.474-1.5A4.168,4.168,0,0,1,46.143,7.3c6.1-.239,5.783,9.128-.65,8.229-.357-.05-1.131-.477-1.278-.411A35.776,35.776,0,0,0,40.7,18.677a16.534,16.534,0,0,1,3.688,9.136l5.1.008c1.107-3.869,6.833-4.2,8.063-.309,1.757,5.565-6.3,7.85-8.063,2.481l-5.09.016a17.733,17.733,0,0,1-1.719,6.1c-.337.658-1.837,2.486-1.924,2.8-.066.238-.033.243.091.428.179.267,3.007,3.1,3.213,3.193.515.236,1.61-.389,2.281-.405,4.286-.1,5.926,6.058,1.922,7.972a4.245,4.245,0,0,1-5.572-5.876L39.091,40.6A14.963,14.963,0,0,1,30.1,44.286a33.423,33.423,0,0,0-.145,5.105c1.4.706,2.465,1.325,2.956,2.927a4.2,4.2,0,1,1-5.153-2.755l-.01-5.277a14.6,14.6,0,0,1-8.994-3.694c-.558.871-3.23,2.806-3.536,3.532-.122.289.362,1.317.408,1.778a4.213,4.213,0,0,1-7.132,3.435A4.272,4.272,0,0,1,11.525,42.1c.62,0,1.879.6,2.264.425L17,39.336l.141-.32a16.024,16.024,0,0,1-3.691-9.008l-5.09-.016c-1.048,3.495-6.147,4.246-7.814.9C-2.232,25.32,6.4,21.967,8.36,27.821l5.09-.016a16.837,16.837,0,0,1,3.707-9.149l-3.521-3.538c-3.621,1.7-7.466-1.314-6.067-5.211,1.618-4.508,8.74-2.84,8.058,2.177-.075.552-.605,1.173-.411,1.6.353.785,2.941,2.622,3.536,3.529a16.154,16.154,0,0,1,8.919-3.848L27.857,8.4a6.536,6.536,0,0,1-2.37-1.772C22.435,2.245,28.751-2.5,32.111,1.514c2.121,2.531.706,5.76-2.134,6.883L30,13.37c.794.214,1.611.248,2.419.439a17.117,17.117,0,0,1,5.295,2.269c.6.383,1.046,1.3,1.792.721.2-.158.254-.394.4-.524M27.311,3c-1.768,2.7,2.536,4.528,3.467,1.878.832-2.368-2.4-3.512-3.467-1.878M12.9,10.055c-1.793-1.793-4.518.8-3.086,2.584,1.72,2.144,5.093-.577,3.086-2.584M47.858,12.8c1.844-1.932-1.281-4.669-3.04-2.62-1.642,1.913,1.3,4.447,3.04,2.62m-19.811,2.8A13.31,13.31,0,1,0,41.364,33.618,13.324,13.324,0,0,0,28.047,15.595M5.669,30.279c2.2-2.2-2.053-4.966-3.263-2.171a2,2,0,0,0,3.263,2.171m49.252-2.914c-1.912-1.616-4.583,1.235-2.723,2.974,1.937,1.811,4.8-1.219,2.723-2.974m-45.1,17.82A2.016,2.016,0,0,0,13.1,47.54c1.623-2.178-1.961-4.5-3.271-2.355m35.3,2.73a2,2,0,0,0,2.613-3.027c-2.237-1.935-4.683,1.68-2.613,3.027m-17.83,6.913c1.763,2.195,5.089-.8,2.979-2.729-1.851-1.7-4.418.937-2.979,2.729" transform="translate(0 0)" fill="#fff"/>
        <path id="Path_74833" data-name="Path 74833" d="M123.152,175.311c-1.033,1.177-.561,2.451-.933,3.69a1.142,1.142,0,0,1-2.15-.639c.045-2.73,1.024-5.073,3.733-6.014,3.3-1.146,10.386-1.325,12.826,1.556.973,1.149,2.418,5.718-.167,5.213-.981-.191-.689-1.5-.8-2.224-.561-3.5-6.624-3.365-9.238-2.938a5.783,5.783,0,0,0-3.266,1.356" transform="translate(-99.887 -142.732)" fill="#fff"/>
        <path id="Path_74834" data-name="Path 74834" d="M147.97,112.367a5.258,5.258,0,0,1-1.073-2.71c-.628-7.674,10.053-6.762,8.267.859a4.229,4.229,0,0,1-7.194,1.85m4.591-5.264a2.152,2.152,0,0,0-2.253-.434c-2.524,1.008-1.018,6.558,2.032,4.386,1.021-.727,1.071-3.062.22-3.953" transform="translate(-122.184 -86.795)" fill="#fff"/>
      </g>
    </g>
  </g>
</svg>
