<svg xmlns="http://www.w3.org/2000/svg" xmlns:xlink="http://www.w3.org/1999/xlink" width="120" height="120" viewBox="0 0 120 120">
  <defs>
    <clipPath id="clip-path">
      <rect id="Rectangle_20575" data-name="Rectangle 20575" width="56.318" height="54.276" fill="#fff"/>
    </clipPath>
  </defs>
  <g id="Group_50888" data-name="Group 50888" transform="translate(-3025 -1757)">
    <circle id="Ellipse_241" data-name="Ellipse 241" cx="47" cy="47" r="47" transform="translate(3038 1770)" fill="#00b699"/>
    <g id="Ellipse_242" data-name="Ellipse 242" transform="translate(3025 1757)" fill="none" stroke="#03bda3" stroke-width="1">
      <circle cx="60" cy="60" r="60" stroke="none"/>
      <circle cx="60" cy="60" r="59.5" fill="none"/>
    </g>
    <g id="Group_50891" data-name="Group 50891" transform="translate(3056.841 1789.862)" clip-path="url(#clip-path)">
      <path id="Path_74835" data-name="Path 74835" d="M13.394,24.23c-5.316.78-6.522-1.663-5.933-6.569.3-2.509,1.616-2.111,2.12-3.065.643-1.217.759-4.067,1.621-5.889,5.87-12.414,24.656-11.215,29.6,1.442.469,1.2.664,3.541,1.176,4.325.4.614,1.512.729,1.988,1.821.6,1.378.588,5.457-.322,6.669-.417.555-1.389.751-1.485,1.14-.394,1.592.962,5.25-1.048,5.628-2.636.5-5.883-1.332-7.2,1.719-.766,1.779,3.049,5.433,4.661,6.306,1.164-1.438,1.4-2.973,2.958-4.216C49.948,26.824,60.8,37.4,54.368,45.95c-.665.884-2.7,2.348-2.817,2.682-.421,1.211,1.008,5.645-.282,5.645H.275C-1.74,42.3,7.745,42.382,14.2,37.1c1.03-.842,3.607-3.49,3.79-4.717.137-.917-2.761-4.591-3.145-6.437-.592-2.843-1.374-12.709-1-15.434C14.321,7.157,16.3,6.167,19.315,5.4A25.593,25.593,0,0,1,32.1,5.313c3.7.9,5.5,1.917,5.856,5.992.278,3.19-.4,10.627-.9,13.95-.149,1.012-.761,1.784-.812,2.781l4.232.005c-.236-2.472,1.131-4.423-2.118-3.811V14.5h1.7c-.983-16.776-26.812-17.087-28.763-.61-.139,1.173,1.359.43,2.1.61Zm22.848-10.58c.6-5.231-1.183-6.16-5.824-7.078A21.685,21.685,0,0,0,19.65,7c-3.5.988-4.4,1.887-4.137,5.8,4.317-3.97,8.5.532,12.967.806,2.744.168,5.335-1.718,7.761.041M30.533,31.425c-.838.289-5.589,0-6.983,0V26.346h6.983c.533,0,.469,1.6.894,1.72.441.122,2.9.108,3.173-.28.929-1.306,1.543-10.044,1.211-11.8-.534-2.813-4.819-.627-6.9-.678-3.562-.087-9.4-4.279-12.146-1.468-1.864,1.91-.53,11.762.637,14.211,3.189,6.688,11.269,7.7,15.883,1.886-2.5-1.327-2.032,1.236-2.749,1.483M11.7,22.961V15.767c-3.094.217-2.9,2.654-2.561,5.312.241,1.89,1.079,1.208,2.561,1.882M33.255,35.622c.328-.463-.589-2.454-1.025-2.487a10.484,10.484,0,0,1-12.9-.017c-.066.862-.952,1.379-.876,2.308a23.312,23.312,0,0,0,3.518,2.022,21.566,21.566,0,0,0,7.2.236,42.756,42.756,0,0,0,4.08-2.062M52.6,45.66c6.194-6.195-2.014-16.41-9.371-11.276C34.449,40.508,45.233,53.024,52.6,45.66m-30.862-6.5a44.382,44.382,0,0,0-4.393-2.6c-.531-.05-1.677,1.026-1.709,1.416-.092,1.106,5.209,7.487,6.644,8.258-.028-2.218,1.09-5.143-.542-7.075m7.742,6.65c.4.49,2.44-1.757,2.754-2.109.69-.774,3.947-5.072,3.892-5.724a2.011,2.011,0,0,0-2-1.314c-.231.064-3.947,2.318-4.093,2.508-1.433,1.854-.725,4.535-.552,6.639M1.544,52.584H50.211a31.762,31.762,0,0,0-.444-3.363c-.182-.177-3.9.076-5.069-.222a10.064,10.064,0,0,1-5.689-5.314c-.314-.86-.707-4.653-1.281-4.634C36.2,41.463,28.437,51.176,25.878,51.176c-2.575,0-10.2-9.747-11.847-12.092-2.8,2.468-7.856,3.51-10.168,6.3-1.839,2.217-1.957,4.464-2.318,7.2M27.3,42.485c-.311-.193-2.674-.239-2.925.212a29.956,29.956,0,0,0-.782,4.945c.562,1.768,3.949,1.819,4.561,0a17.684,17.684,0,0,0-.853-5.156" transform="translate(0 0)" fill="#fff"/>
      <path id="Path_74836" data-name="Path 74836" d="M107.889,91.238c-.252.217-1.54-.063-1.619-.62-.236-1.663,4.9-7.109,1-7.4-1.879-.139-1.757,1.975-1.919,2.091-.335.24-1.641-.174-1.675-.629-.17-2.3,4.063-4.328,6.108-1.895,2.1,2.5-.376,4.306-1.355,6.231a15.807,15.807,0,0,0-.538,2.218" transform="translate(-59.798 -47.117)" fill="#fff"/>
    </g>
  </g>
</svg>
