<svg xmlns="http://www.w3.org/2000/svg" xmlns:xlink="http://www.w3.org/1999/xlink" width="120" height="120" viewBox="0 0 120 120">
  <defs>
    <clipPath id="clip-path">
      <rect id="Rectangle_20577" data-name="Rectangle 20577" width="49.227" height="49.262" transform="translate(0 0)" fill="#fff"/>
    </clipPath>
  </defs>
  <g id="Group_50889" data-name="Group 50889" transform="translate(-3025 -1757)">
    <circle id="Ellipse_241" data-name="Ellipse 241" cx="47" cy="47" r="47" transform="translate(3038 1770)" fill="#7f3f98"/>
    <g id="Ellipse_242" data-name="Ellipse 242" transform="translate(3025 1757)" fill="none" stroke="#7f3f98" stroke-width="1">
      <circle cx="60" cy="60" r="60" stroke="none"/>
      <circle cx="60" cy="60" r="59.5" fill="none"/>
    </g>
    <g id="Group_50894" data-name="Group 50894" transform="translate(3060 1792)" clip-path="url(#clip-path)">
      <path id="Path_74851" data-name="Path 74851" d="M190.528,197.463c.681.016,1.42-.2,1.7.585l.008,7.215c0,.3-.269.513-.5.662l-31.058.028c-.3,0-.513-.269-.662-.5v-7.486c.354-.7,1.019-.473,1.676-.5a6.758,6.758,0,0,1,3.278-5.9c-1.959-3.334.106-7.145,4.091-6.829.275.022.821.279,1.007.163.1-.06.867-1.264,1.126-1.532a8.664,8.664,0,0,1,1.375-1.071l.033-.139a4.39,4.39,0,0,1,1.212-6.139,4.34,4.34,0,0,1,5.809,6.214,17,17,0,0,1,1.412,1.135c.261.27,1.027,1.47,1.126,1.532.2.125.61-.139.9-.164,4.032-.36,6.2,3.421,4.2,6.83a6.758,6.758,0,0,1,3.278,5.9m-14.55-20.339a2.523,2.523,0,0,0-2,3.85c.407.7,1.514.948,1.089,1.933-.169.391-1.063.617-1.475.857a4.683,4.683,0,0,0-1.734,1.659c-.52.852-.059.724.338,1.47a6.785,6.785,0,0,0,.58,1.223h6.653a8.855,8.855,0,0,0,.619-1.29c.162-.279.628-.695.574-.923a5.01,5.01,0,0,0-1.941-2.1c-.707-.416-2.1-.6-1.5-1.757.167-.324.6-.488.834-.756a2.539,2.539,0,0,0-2.035-4.165m12.853,20.339a5.266,5.266,0,0,0-2.32-4.2c-.754-.483-2.207-.663-1.736-1.815.14-.343.553-.484.766-.717a2.511,2.511,0,1,0-3.6,0c.214.233.626.374.767.717.471,1.152-.982,1.333-1.736,1.815a5.266,5.266,0,0,0-2.32,4.2Zm-15.272,0a5.254,5.254,0,0,0-2.513-4.327c-.45-.265-1.429-.509-1.576-.97-.307-.967.764-1.206,1.16-1.927a2.509,2.509,0,1,0-3.964.489c.2.221.568.342.727.651.594,1.153-.784,1.335-1.5,1.757a5.254,5.254,0,0,0-2.513,4.327Zm6.041-7.631H172.61c.032.66-.466,1.135-.634,1.73a6.768,6.768,0,0,1,3.281,5.9h1.7a6.758,6.758,0,0,1,3.278-5.9c-.193-.587-.644-1.084-.632-1.734m10.928,9.328H161.682v5.091h28.847Z" transform="translate(-143.004 -156.705)" fill="#fff"/>
      <path id="Path_74852" data-name="Path 74852" d="M10.193,128.009V146.2a8.929,8.929,0,0,1-.59,1.213,3.5,3.5,0,0,1-3.465,1.358c-.365-.053-.814-.357-1-.374-.144-.013-.805.346-1.161.389a3.46,3.46,0,0,1-3.893-2.447c-.172-10.073-.019-20.178-.077-30.264a5.083,5.083,0,0,1,4.508-4.613c2.232-.193,4.6-.089,6.156,1.7,1.83,2.1,1.044,4.695,1.24,7.244l4.373,4.43A3.317,3.317,0,0,1,13.031,130c-1.293-.189-1.92-1.226-2.838-1.987M5.081,113.193a3.4,3.4,0,0,0-3.24,2.593c.041,4.9-.506,10.385-.137,15.249.168,2.208,2.117,3.1,3.376,4.684l.033,9.618a1.692,1.692,0,1,0,3.381-.1L8.5,126.466c-.066-.5-1.365-1.465-1.746-1.966a4.213,4.213,0,0,1-.8-1.954,19.6,19.6,0,0,1,.021-2.947.891.891,0,0,1,1.681.185c.244,1.831-.461,2.472.946,4.145a41.585,41.585,0,0,0,4.256,4.122,1.512,1.512,0,0,0,2.085-1.979,4.019,4.019,0,0,0-.451-.61c-1.211-1.47-2.981-2.779-4.242-4.243-.336-2.241.71-5.836-1.44-7.362a5.775,5.775,0,0,0-3.726-.664M1.708,134.8v10.658c0,.837,1.172,1.96,2.018,1.48a3.333,3.333,0,0,1-.325-1.158c-.257-2.941.2-6.247,0-9.228-.069-.363-1.366-1.415-1.695-1.752" transform="translate(0.001 -99.555)" fill="#fff"/>
      <path id="Path_74853" data-name="Path 74853" d="M4.57.06c7.843-1,7.92,10.933.186,10.153C-1.011,9.631-1.077.777,4.57.06m.839,1.711c-4.383.05-4.3,6.688-.018,6.724,4.44.037,4.486-6.775.018-6.724" transform="translate(-0.341 -0.001)" fill="#fff"/>
      <path id="Path_74854" data-name="Path 74854" d="M105.56,8.249c.845-.179,1.491.412,1.14,1.246a8.3,8.3,0,0,1-1.848,1.226c-.867.265-1.583-.364-1.222-1.222a7.419,7.419,0,0,1,1.93-1.25" transform="translate(-92.533 -7.344)" fill="#fff"/>
      <path id="Path_74855" data-name="Path 74855" d="M104.249,64.163c.587-.174,1.846.55,2.311.933.841.692.3,1.8-.824,1.565a6.173,6.173,0,0,1-1.963-1.322.962.962,0,0,1,.476-1.176" transform="translate(-92.709 -57.321)" fill="#fff"/>
      <path id="Path_74856" data-name="Path 74856" d="M112.288,40.024a14.925,14.925,0,0,1,2.4,0,.92.92,0,0,1,.133,1.574,9.363,9.363,0,0,1-2.529.079.923.923,0,0,1,0-1.653" transform="translate(-99.899 -35.728)" fill="#fff"/>
    </g>
  </g>
</svg>
