<svg xmlns="http://www.w3.org/2000/svg" xmlns:xlink="http://www.w3.org/1999/xlink" width="120" height="120" viewBox="0 0 120 120">
  <defs>
    <clipPath id="clip-path">
      <rect id="Rectangle_20576" data-name="Rectangle 20576" width="47.75" height="52.695" fill="#fff"/>
    </clipPath>
  </defs>
  <g id="Group_50890" data-name="Group 50890" transform="translate(-3025 -1757)">
    <circle id="Ellipse_241" data-name="Ellipse 241" cx="47" cy="47" r="47" transform="translate(3038 1770)" fill="#03bda3"/>
    <g id="Ellipse_242" data-name="Ellipse 242" transform="translate(3025 1757)" fill="none" stroke="#00b699" stroke-width="1">
      <circle cx="60" cy="60" r="60" stroke="none"/>
      <circle cx="60" cy="60" r="59.5" fill="none"/>
    </g>
    <g id="Group_50893" data-name="Group 50893" transform="translate(3061.125 1790.652)">
      <g id="Group_50892" data-name="Group 50892" clip-path="url(#clip-path)">
        <path id="Path_74837" data-name="Path 74837" d="M3.806,203.149A4.973,4.973,0,0,1,0,198.979l.022-28.071c.755-1.968,3.276-1.133,4.917-1.309a1.672,1.672,0,0,1,1.293-1.846l6.868.015a.862.862,0,0,1-.39,1.625H6.585v23.774H12.5c.714,0,.727,1.647-.206,1.647H6.585v3.036a1.577,1.577,0,0,0,.36.257H23.052a4.131,4.131,0,0,0-3.449-3.292c-.942-.093-4.1.232-4.652-.238a.829.829,0,0,1,.439-1.4,28.293,28.293,0,0,1,4.315,0,6.734,6.734,0,0,1,3.449,1.645V184.675c0-.679,1.544-.679,1.544,0v10.137a8.228,8.228,0,0,1,2.135-1.313,7.469,7.469,0,0,1,1.107-.333H41.268V181.9a3.71,3.71,0,0,1,.234-.435.849.849,0,0,1,1.415.638l0,15.749a2.021,2.021,0,0,1-1.8,1.8c-11.605-.056-23.23.092-34.823-.075a2.376,2.376,0,0,1-1.357-1.525v-26.81H1.645v27.839A3.567,3.567,0,0,0,3.9,201.457c13.286.246,26.66.246,39.945,0,.823-.139,2.258-1.574,2.258-2.374V171.245h-3.19v7.77c0,.718-1.647.718-1.647,0v-9.623H35.145a.862.862,0,0,1-.39-1.625l6.868-.015a1.672,1.672,0,0,1,1.293,1.846c1.371.118,4.4-.553,4.792,1.332l.044,28.049a4.973,4.973,0,0,1-3.806,4.17Zm37.462-8.336H28.043a5.491,5.491,0,0,0-1.317.535,4.233,4.233,0,0,0-1.925,2.758H40.908a1.577,1.577,0,0,0,.36-.257Z" transform="translate(0 -150.454)" fill="#fff"/>
        <path id="Path_74838" data-name="Path 74838" d="M139.247,27.394c-.086.135.019,1.339-.025,1.674-.4,3.043-5.786,3.043-6.245.087-.056-.359.04-1.632-.041-1.76a2.841,2.841,0,0,1-.554-.321c-.668-.657-.52-1.425-.618-2.263-1.657-3.1-4.681-6.363-5.963-9.577-.243-.609-.946-2.215-.132-2.6,1.173-.553,1.273,1.022,1.546,1.7,1.442,3.57,4.611,6.814,6.243,10.327.094.388-.187,1.036.214,1.277l-.519-8.228c-1.288.148-2.606-.216-3.012-1.568-1.173-3.914,5.175-4.357,4.56-.084h2.677a2.556,2.556,0,0,1,1.7-2.979,2.353,2.353,0,0,1,2.7,3.423c-.552,1.128-1.714,1.31-2.858,1.208l-.519,8.227c.548-.038.217-.88.317-1.277,2.865-5.9,9.651-11.1,5.6-18.279-4.138-7.334-15.306-5.871-17.4,2.265-.2.774-.084,2.418-1.207,2.247-1.169-.177-.482-2.321-.256-3.092,2.833-9.633,16.383-10.593,20.675-1.487,3.487,7.4-2.273,12.623-5.725,18.5-.085.9.031,1.7-.722,2.366a3.121,3.121,0,0,1-.45.219m-6.191-11.336c.2-.752-.357-1.976-1.186-1.238s.379,1.538,1.186,1.238m5.968,0c.808.3,2-.513,1.186-1.238s-1.39.486-1.186,1.238M137.275,17.7h-2.47l.515,8.336h1.441Zm.309,9.88H134.6c-.158,1.81.213,2.228,2.012,2.063,1.212-.111.966-1.141.973-2.063" transform="translate(-112.165 0)" fill="#fff"/>
        <path id="Path_74839" data-name="Path 74839" d="M90.1,363.839a.847.847,0,0,1,.535-1.414c2.662-.314,5.922.24,8.649,0a.826.826,0,0,1,0,1.651c-2.72-.192-5.766.247-8.447,0a1.4,1.4,0,0,1-.738-.24" transform="translate(-80.609 -324.963)" fill="#fff"/>
        <path id="Path_74840" data-name="Path 74840" d="M285.212,363.839a1.4,1.4,0,0,1-.738.24c-2.68.244-5.726-.195-8.447,0a.826.826,0,0,1,0-1.651c2.727.241,5.987-.314,8.649,0a.847.847,0,0,1,.535,1.414" transform="translate(-246.854 -324.963)" fill="#fff"/>
        <path id="Path_74841" data-name="Path 74841" d="M90.476,290.49l9.032-.02c.93.429.754,1.526-.307,1.644-2.588.29-5.692-.216-8.336,0-1-.038-1.379-1.218-.39-1.624" transform="translate(-80.627 -260.517)" fill="#fff"/>
        <path id="Path_74842" data-name="Path 74842" d="M275.639,290.449l8.935-.023c1.158.134.9,1.648-.208,1.649-2.642-.217-5.75.292-8.336,0a.847.847,0,0,1-.391-1.625" transform="translate(-246.752 -260.478)" fill="#fff"/>
        <path id="Path_74843" data-name="Path 74843" d="M90.734,326.46l8.614-.018a.83.83,0,0,1,.115,1.646l-8.85-.012a.816.816,0,0,1,.121-1.616" transform="translate(-80.677 -292.78)" fill="#fff"/>
        <path id="Path_74844" data-name="Path 74844" d="M275.936,325.562c2.69.178,5.887-.321,8.518-.024,1.25.141,1.266,1.527.208,1.649l-8.851,0a.832.832,0,0,1,.124-1.621" transform="translate(-246.84 -291.883)" fill="#fff"/>
        <path id="Path_74845" data-name="Path 74845" d="M77.134,252.6l8.1-.016a.782.782,0,0,1-.094,1.539c-2.44.284-5.422-.21-7.92-.008-.754-.07-.8-1.353-.087-1.515" transform="translate(-68.726 -226.539)" fill="#fff"/>
        <path id="Path_74846" data-name="Path 74846" d="M298.7,252.6l8.1-.016a.782.782,0,0,1-.094,1.539c-2.44.284-5.422-.21-7.92-.008-.754-.07-.8-1.353-.087-1.515" transform="translate(-267.446 -226.539)" fill="#fff"/>
        <path id="Path_74847" data-name="Path 74847" d="M77.213,26.949a.745.745,0,0,1,.581.1,17.91,17.91,0,0,1,1.963,1.741c.486.765-.258,1.5-1.072,1.175a21.563,21.563,0,0,1-1.965-1.739.851.851,0,0,1,.493-1.274" transform="translate(-68.7 -24.151)" fill="#fff"/>
        <path id="Path_74848" data-name="Path 74848" d="M357.664,26.977a.85.85,0,0,1,.9,1.216,20.016,20.016,0,0,1-2.008,1.8c-.781.315-1.514-.355-1.115-1.115a13.083,13.083,0,0,1,2.223-1.9" transform="translate(-318.688 -24.179)" fill="#fff"/>
        <path id="Path_74849" data-name="Path 74849" d="M355.889,88.789a.893.893,0,0,1,.683.1,21.578,21.578,0,0,1,1.924,1.678.819.819,0,0,1-1.006,1.212,8.831,8.831,0,0,1-2.172-2.054.787.787,0,0,1,.572-.933" transform="translate(-318.662 -79.607)" fill="#fff"/>
        <path id="Path_74850" data-name="Path 74850" d="M78.756,88.811a.792.792,0,0,1,.941,1.151,12.724,12.724,0,0,1-2.009,1.8.817.817,0,0,1-1.114-1.114,14.593,14.593,0,0,1,2.182-1.834" transform="translate(-68.597 -79.63)" fill="#fff"/>
      </g>
    </g>
  </g>
</svg>
