<svg xmlns="http://www.w3.org/2000/svg" xmlns:xlink="http://www.w3.org/1999/xlink" width="60" height="60" viewBox="0 0 60 60">
  <defs>
    <clipPath id="clip-path">
      <rect id="Rectangle_15884" data-name="Rectangle 15884" width="60" height="60" transform="translate(653 3356)" fill="#fff" opacity="0.999"/>
    </clipPath>
  </defs>
  <g id="Mask_Group_50377" data-name="Mask Group 50377" transform="translate(-653 -3356)" clip-path="url(#clip-path)">
    <g id="Group_52407" data-name="Group 52407" transform="translate(658 3361)">
      <g id="Group_52408" data-name="Group 52408" transform="translate(0 0)">
        <path id="Path_93209" data-name="Path 93209" d="M178.068,418.015a5.476,5.476,0,0,1-1.681,2.213,17.944,17.944,0,0,1-6.329,3.787c-.266.1-.311.2-.27.475a5.066,5.066,0,0,1-1.225,4.083,8.686,8.686,0,0,1-4.331,2.773,17.884,17.884,0,0,1-14.4-1.394,21.822,21.822,0,0,1-8.644-8.33,15.375,15.375,0,0,1-1.52-3.625.487.487,0,0,1-.042-.344c.289.088.575.173.86.261a24.181,24.181,0,0,0,10.2.849c2.108-.255,4.186-.7,6.291-.968a20.813,20.813,0,0,1,5.23-.148,8.745,8.745,0,0,1,5.61,3.017c.177.2.056.26-.082.36a16.727,16.727,0,0,1-4.374,2.262,22.874,22.874,0,0,1-10.682.933,23.2,23.2,0,0,1-6.755-1.965.284.284,0,0,0-.141-.03,10.073,10.073,0,0,0,1.66.9,26.036,26.036,0,0,0,11.776,2.4,21.211,21.211,0,0,0,9.7-2.756,25.607,25.607,0,0,0,4.564-3.133,10.868,10.868,0,0,0,2.752-3.314c.082-.169.208-.138.331-.12a1.641,1.641,0,0,1,1.5,1.327Z" transform="translate(-128.313 -382.518)" fill="#fff"/>
        <path id="Path_93210" data-name="Path 93210" d="M0,96.888c.119-.624.156-1.258.288-1.881A18.238,18.238,0,0,1,6.176,84.69a22.938,22.938,0,0,1,8.515-4.808,18.066,18.066,0,0,1,6.581-.833c.369.028.736.078,1.093.117a.18.18,0,0,1-.071.187,25.873,25.873,0,0,0-5.849,11.068c-.53,2-1,4.02-1.693,5.976a14.189,14.189,0,0,1-2.59,4.832,9.1,9.1,0,0,1-3.962,2.54c-.219.076-.229-.036-.261-.19a15.8,15.8,0,0,1-.2-5.37,24.362,24.362,0,0,1,7.78-14.836,1.124,1.124,0,0,0,.27-.322c-.173.129-.352.25-.517.387A26.341,26.341,0,0,0,6.771,95.709a21.119,21.119,0,0,0-.9,8.2,23.728,23.728,0,0,0,1.159,6.024,9.323,9.323,0,0,0,1.651,3.149.212.212,0,0,1,.031.27,1.583,1.583,0,0,1-2.426.634,1.333,1.333,0,0,1-.361-.441,13.173,13.173,0,0,1-1.5-4.677,19.108,19.108,0,0,1-.127-4.446c.012-.132.033-.24-.163-.285a5.023,5.023,0,0,1-3.666-3.5,7.322,7.322,0,0,1-.414-1.92c-.006-.069,0-.143-.055-.2Z" transform="translate(0 -72.616)" fill="#fff"/>
        <path id="Path_93211" data-name="Path 93211" d="M315.4,35.187c-.088-.525-.169-1.052-.267-1.575a25.748,25.748,0,0,0-4.012-9.579c-1.145-1.727-2.4-3.378-3.5-5.135a19.784,19.784,0,0,1-2.253-4.584,8.759,8.759,0,0,1,.289-5.993c.094-.239.183-.242.387-.125a19.145,19.145,0,0,1,6.4,6.1,25.427,25.427,0,0,1,4.107,10.942,18.592,18.592,0,0,1,.159,2.115c0,.109.012.217.02.353.105-.1.072-.2.074-.289a25.9,25.9,0,0,0-5.238-16.733,22.208,22.208,0,0,0-4.292-4.128,24.826,24.826,0,0,0-4.942-2.993,12.994,12.994,0,0,0-3.487-1.1c-.229-.032-.463-.038-.695-.049-.107,0-.188-.015-.238-.136A1.54,1.54,0,0,1,298.939.034a1.368,1.368,0,0,1,.6,0,14.88,14.88,0,0,1,5.532,2.595,19.151,19.151,0,0,1,2.628,2.24c.166.171.272.173.471.036a4.922,4.922,0,0,1,4.383-.55,9.435,9.435,0,0,1,4.511,3.1,18.729,18.729,0,0,1,4.5,9.2,21.647,21.647,0,0,1,.043,6.524,20.944,20.944,0,0,1-3.01,8.379,15.166,15.166,0,0,1-2.949,3.48c-.067.057-.12.139-.247.152" transform="translate(-273.657 -0.001)" fill="#fff"/>
      </g>
    </g>
  </g>
</svg>
