<svg xmlns="http://www.w3.org/2000/svg" xmlns:xlink="http://www.w3.org/1999/xlink" width="60" height="60" viewBox="0 0 60 60">
  <defs>
    <clipPath id="clip-path">
      <rect id="Rectangle_15885" data-name="Rectangle 15885" width="60" height="60" transform="translate(863 3356)" fill="#fff"/>
    </clipPath>
    <clipPath id="clip-path-2">
      <rect id="Rectangle_15855" data-name="Rectangle 15855" width="60.651" height="42.06" fill="#fff"/>
    </clipPath>
  </defs>
  <g id="Mask_Group_50378" data-name="Mask Group 50378" transform="translate(-863 -3356)" clip-path="url(#clip-path)">
    <g id="Group_52416" data-name="Group 52416" transform="translate(863 3365)" style="mix-blend-mode: normal;isolation: isolate">
      <g id="Group_52415" data-name="Group 52415" clip-path="url(#clip-path-2)">
        <path id="Path_93224" data-name="Path 93224" d="M106.27,32.368a4.843,4.843,0,0,1-.939-2.336,3.652,3.652,0,0,0-4.14-2.92,3.412,3.412,0,0,0-2.6,1.268,3.557,3.557,0,0,0-.642,2.852,14.916,14.916,0,0,0,1.138,3.758c.153.329.215.511-.276.5-1.026-.026-2.052-.019-3.078,0-.4.007-.455-.113-.3-.46A15.429,15.429,0,0,0,96.6,31.149a3.253,3.253,0,0,0-2.539-3.9,3.921,3.921,0,0,0-4.047,1.069,3.654,3.654,0,0,0-.85,1.943,6.729,6.729,0,0,1-.769,2.141c-.194-.122-.1-.3-.1-.44-.008-2.054-.02-4.109,0-6.163a2.515,2.515,0,0,0-1.117-2.2,17.02,17.02,0,0,1-6.837-10.588c-.063-.3-.123-.6-.165-.907a2.31,2.31,0,0,1,2.214-2.53A2.684,2.684,0,0,1,85.7,11.939a11.8,11.8,0,0,0,23.2-.4,2.72,2.72,0,0,1,3.411-1.925,2.208,2.208,0,0,1,1.986,2.779,16.716,16.716,0,0,1-3.959,8.476,15.669,15.669,0,0,1-3.149,2.821,2.2,2.2,0,0,0-.93,1.919c.023,2.054.007,4.109.007,6.163v.6" transform="translate(-66.968 -7.964)" fill="#fff"/>
        <path id="Path_93225" data-name="Path 93225" d="M27.727,129.292a12.809,12.809,0,0,1-3.016,5.48,12.225,12.225,0,0,1-2.308,2.086,1.922,1.922,0,0,0-.874,1.728c.014,2.487-.006,4.973.018,7.46,0,.48-.118.623-.612.621q-6.844-.028-13.688,0c-.517,0-.6-.175-.6-.633.02-2.425-.012-4.85.023-7.275a2.235,2.235,0,0,0-.985-1.992A14.168,14.168,0,0,1,.174,128.44c-.048-.2-.069-.4-.105-.6-.271-1.507.255-2.308,1.7-2.581a2.252,2.252,0,0,1,2.766,1.78,9.451,9.451,0,0,0,7.291,7.671,9.657,9.657,0,0,0,11.725-7.137c.033-.138.09-.27.135-.405a11.5,11.5,0,0,1,1.673.877,12.619,12.619,0,0,0,2.373,1.248" transform="translate(0 -104.61)" fill="#fff"/>
        <path id="Path_93226" data-name="Path 93226" d="M201.785,136.051a9.506,9.506,0,0,1-2.176-2.229,13.962,13.962,0,0,1-2.655-6.086,1.9,1.9,0,0,1,1.714-2.477A2.2,2.2,0,0,1,201.4,126.9a9.515,9.515,0,0,0,7.257,7.786,9.687,9.687,0,0,0,11.946-7.7,2.089,2.089,0,0,1,2.174-1.781,2.208,2.208,0,0,1,2.318,1.453,3.054,3.054,0,0,1-.116,1.518,14.076,14.076,0,0,1-5.608,8.628,2.23,2.23,0,0,0-.961,1.947c0,2.178-.013,4.355-.021,6.533a2.716,2.716,0,0,1-.948-.42c-.9-.516-1.794-1.057-2.7-1.579-3.658-2.119-7.312-4.246-10.984-6.341a4.62,4.62,0,0,0-1.978-.9" transform="translate(-164.507 -104.608)" fill="#fff"/>
        <path id="Path_93227" data-name="Path 93227" d="M157.325,10.6A5.3,5.3,0,1,1,162.644,5.3a5.264,5.264,0,0,1-5.319,5.292" transform="translate(-127.048 0)" fill="#fff"/>
        <path id="Path_93228" data-name="Path 93228" d="M226.621,191.149a4.62,4.62,0,0,1,1.978.9c3.672,2.095,7.326,4.222,10.984,6.341.9.522,1.791,1.063,2.7,1.579a2.717,2.717,0,0,0,.948.42c.067,1.358.067,1.359-1.3,1.359-4.288,0-8.576-.007-12.864.015-.511,0-.65-.128-.645-.643.027-2.462-.006-4.924.018-7.385a2.071,2.071,0,0,0-.9-1.781,5.118,5.118,0,0,1-.917-.8" transform="translate(-189.343 -159.706)" fill="#fff"/>
        <path id="Path_93229" data-name="Path 93229" d="M63.526,117.507a4.337,4.337,0,0,1,4.346,4.406,4.374,4.374,0,1,1-8.747-.123,4.336,4.336,0,0,1,4.4-4.283" transform="translate(-49.399 -98.177)" fill="#fff"/>
        <path id="Path_93230" data-name="Path 93230" d="M260.582,117.5a4.342,4.342,0,0,1,4.382,4.38,4.413,4.413,0,0,1-4.412,4.364,4.372,4.372,0,0,1,.03-8.744" transform="translate(-214.07 -98.17)" fill="#fff"/>
        <path id="Path_93231" data-name="Path 93231" d="M148.01,129.292a12.62,12.62,0,0,1-2.373-1.248,11.507,11.507,0,0,0-1.673-.877,1.861,1.861,0,0,1,1.565-1.854,2.477,2.477,0,0,1,2.624.719,1.335,1.335,0,0,1,.352.956,6.184,6.184,0,0,1-.5,2.3" transform="translate(-120.283 -104.611)" fill="#fff"/>
      </g>
    </g>
  </g>
</svg>
