<svg xmlns="http://www.w3.org/2000/svg" xmlns:xlink="http://www.w3.org/1999/xlink" width="60" height="60" viewBox="0 0 60 60">
  <defs>
    <clipPath id="clip-path">
      <rect id="Rectangle_15883" data-name="Rectangle 15883" width="60" height="60" transform="translate(451 3356)" fill="#fff"/>
    </clipPath>
  </defs>
  <g id="Mask_Group_50376" data-name="Mask Group 50376" transform="translate(-451 -3356)" clip-path="url(#clip-path)">
    <g id="Group_52413" data-name="Group 52413" transform="translate(459 3362)">
      <g id="Group_52414" data-name="Group 52414" transform="translate(0 0)">
        <path id="Path_93220" data-name="Path 93220" d="M36.2,4.505A19.46,19.46,0,0,0,19.571,2.569c1.525,1.664,1.581,2.146.54,3.933-.134.23-.585.445-.161.773.373.288.693.078.93-.228,1.054-1.358,2.346-1.309,3.762-.682.821.364,1.6.8,1.56,1.822a2.183,2.183,0,0,1-1.676,2.225c-2.177.4-3.294,2.011-4.3,3.625a3.387,3.387,0,0,1-3.722,1.772,17.349,17.349,0,0,0-2.054-.012,12.792,12.792,0,0,0,5.654,3.677,9.787,9.787,0,0,1,4.982,3.3,4.138,4.138,0,0,0,2.607,1.28c2.175.459,2.594,1.208,1.73,3.23-.565,1.323-.665,2.985-2.4,3.541-.277.089-.191.473-.266.725a11.184,11.184,0,0,1-.543,1.664,2.64,2.64,0,0,1-1.441,1.378c-.891.322-.862-.675-1.248-1.052-2.3-2.24-4.475-4.6-6.839-6.767A3.4,3.4,0,0,1,15.639,23.5c.057-.52.681-1.052.228-1.511a5.375,5.375,0,0,0-2.017-1.323,4.536,4.536,0,0,0-.928-.184c-2.608-.33-3.548-1.128-4.218-3.639a3.011,3.011,0,0,0-.631-1.469c-.274-.273-.644-.515-.769.107-.214,1.066-1.016.67-1.483.488-.66-.257-.152-.856-.032-1.252a21.172,21.172,0,0,1,40.3-.081c.254.823.457,1.321-.772,1.526a3.089,3.089,0,0,0-2.578,2.8c-.379,2.59-.7,5.188-1.054,7.783-.035.259-.106.513-.206.98a4.341,4.341,0,0,0-3.2-2.179c-.854-.081-.639-.911-.59-1.417.12-1.228-.455-1.486-1.518-1.362a18.3,18.3,0,0,1-2.835.165,2.481,2.481,0,0,1-2.519-2.194c-.865-3.421,2.6-8.122,6.94-6.991,1.527.4,3.071.728,4.61,1.079a4.649,4.649,0,0,0,1.949.015,9.217,9.217,0,0,0-1.408-3.316c-.529-.885-1.4-.658-2.191-.463-1.535.377-2.9,1.231-4.463,1.56A6.65,6.65,0,0,1,31.01,11.43c-1.25-.837-1.307-1.627-.094-2.579A64.062,64.062,0,0,0,36.2,4.505" transform="translate(-4.001 -0.001)" fill="#fff"/>
        <path id="Path_93221" data-name="Path 93221" d="M13.067,83.68A23.825,23.825,0,0,0,8.857,78.2c-.972-1-1.046-2.089-.25-2.844.817-.775,1.875-.7,2.879.291,2.124,2.091,4.225,4.207,6.327,6.322a4.954,4.954,0,0,1,1.469,3.665c-.016,3.162-.035,6.324.012,9.486.016,1.09-.35,1.577-1.476,1.56q-3.658-.057-7.317,0c-1.073.016-1.554-.49-1.387-1.485.608-3.611-.842-6.408-3.2-9.006C4.223,84.325,2.808,82.206,1.27,80.2a2.683,2.683,0,0,1-.7-1.561C.4,74.983.18,71.331.006,67.678c-.072-1.518.488-2.3,1.594-2.372,1.058-.067,1.771.711,1.963,2.13q.552,4.092,1.111,8.183a2.262,2.262,0,0,0,.421,1.267,32.985,32.985,0,0,0,7.973,6.794" transform="translate(0 -47.592)" fill="#fff"/>
        <path id="Path_93222" data-name="Path 93222" d="M97.215,83.612a26.574,26.574,0,0,0,7.96-6.933c.969-1.3.583-3.233.862-4.871.257-1.511.4-3.043.584-4.566.138-1.133.705-1.869,1.9-1.886,1.075-.015,1.713.82,1.641,2.185-.194,3.7-.442,7.394-.643,11.092a2.979,2.979,0,0,1-.769,1.685c-2.283,2.973-4.535,5.971-6.858,8.912a3.87,3.87,0,0,0-.959,2.839c.083,1.123-.007,2.258.025,3.387.025.862-.366,1.254-1.2,1.254q-3.862,0-7.725,0c-.843,0-1.217-.388-1.211-1.247.023-3.433.005-6.867.026-10.3a4.4,4.4,0,0,1,1.4-3.134q3.2-3.217,6.423-6.418a1.969,1.969,0,0,1,2.876-.3c.795.75.716,1.8-.223,2.852a23.924,23.924,0,0,0-4.108,5.446" transform="translate(-66.189 -47.632)" fill="#fff"/>
        <path id="Path_93223" data-name="Path 93223" d="M79.245,150.423c.147.935-.489.857-1.1.878-.633.022-.985-.106-1-.874-.015-.911.514-.868,1.13-.877s1.1.082.964.873" transform="translate(-56.228 -108.993)" fill="#fff"/>
      </g>
    </g>
  </g>
</svg>
