<svg xmlns="http://www.w3.org/2000/svg" xmlns:xlink="http://www.w3.org/1999/xlink" width="60" height="60" viewBox="0 0 60 60">
  <defs>
    <clipPath id="clip-path">
      <rect id="Rectangle_15886" data-name="Rectangle 15886" width="60" height="60" transform="translate(1068 3356)" fill="#fff" opacity="0.999"/>
    </clipPath>
  </defs>
  <g id="Mask_Group_50379" data-name="Mask Group 50379" transform="translate(-1068 -3356)" clip-path="url(#clip-path)">
    <g id="Group_52418" data-name="Group 52418" transform="translate(1072 3367)" style="mix-blend-mode: normal;isolation: isolate">
      <g id="Group_52419" data-name="Group 52419" transform="translate(0 0)">
        <path id="Path_93232" data-name="Path 93232" d="M132.783,15.963a9.609,9.609,0,0,1-1.4-.016,8.281,8.281,0,0,1-1.459-.329,11.982,11.982,0,0,1-1.247-.479,8.164,8.164,0,0,1-1.908-1.193c-.145-.122-.288-.246-.434-.366a.163.163,0,0,1,.012-.291c.263-.168.539-.315.81-.469.443-.252.887-.5,1.329-.756s.862-.508,1.3-.757.889-.5,1.332-.753.882-.508,1.323-.764c.588-.34,1.173-.684,1.762-1.022.427-.244.854-.489,1.29-.715.175-.09.3-.26.506-.3a.087.087,0,0,0,.055-.11.1.1,0,0,0-.1-.077.609.609,0,0,0-.241,0c-.422.166-.839.345-1.259.516-.264.107-.532.2-.8.309-.281.112-.564.222-.838.35-.2.094-.421.132-.627.23-.441.209-.916.342-1.371.522s-.884.376-1.329.557c-.256.1-.52.19-.779.286s-.536.2-.8.3c-.3.117-.595.24-.891.362-.263.108-.528.212-.786.332a3.06,3.06,0,0,1-.693.266c-.536.093-.667.494-.733.885a8.148,8.148,0,0,0-.208,2.41c.078.606.116,1.224.245,1.814a7.9,7.9,0,0,0,.355,1.564c.073.165.146.252.34.21a3,3,0,0,1,1.882.159,1.727,1.727,0,0,1,1.069,1.475,2.351,2.351,0,0,1-.148,1.277.611.611,0,0,0-.036.265c0,.115.05.152.176.1a5.522,5.522,0,0,1,2.677-.491,5.7,5.7,0,0,1,3.749,1.738,4.994,4.994,0,0,1,.49.644c.137.2.084.3-.144.405-.533.252-1.057.522-1.591.772s-1.1.49-1.642.742c-.381.176-.758.363-1.133.551a1.254,1.254,0,0,1-.653.139,22.1,22.1,0,0,1-2.694-.229,1.5,1.5,0,0,1-.586-.308,5.125,5.125,0,0,0-2.98-.874c-1.38-.015-2.757-.143-4.139-.137a.574.574,0,0,1-.31-.081c-.611-.378-1.213-.769-1.831-1.136-.455-.27-.925-.514-1.394-.758-.515-.268-1.036-.527-1.558-.783a6.773,6.773,0,0,0-.642-.278c-.18-.067-.21-.168-.136-.333a3.43,3.43,0,0,1,1.137-1.414,4.226,4.226,0,0,1,3.48-.721,6.3,6.3,0,0,1,2.179.874c.214.139.321.081.378-.161a1.987,1.987,0,0,1,1.031-1.283,1.048,1.048,0,0,0,.56-.741c.2-.786.173-1.592.316-2.381a4.7,4.7,0,0,0-.029-1.83,2.5,2.5,0,0,1-.089-.723,9.485,9.485,0,0,0-.272-1.533c-.016-.2-.223-.3-.376-.4q-1.456-.962-2.925-1.9c-.736-.475-1.482-.936-2.216-1.415-.7-.46-1.4-.939-2.1-1.4-.133-.087-.316-.247-.444-.127-.071.067.115.251.231.352q1.35,1.176,2.7,2.354,1.754,1.536,3.5,3.077c.2.172.378.358.57.534.112.1.171.166-.018.269a13.443,13.443,0,0,1-1.437.644,8.038,8.038,0,0,1-3.51.383,8.833,8.833,0,0,1-1.66-.332c-.349-.088-.689-.2-1.024-.318a10.313,10.313,0,0,1-1.129-.493,11.748,11.748,0,0,1-1.6-.981,11.8,11.8,0,0,1-1.707-1.525,10.646,10.646,0,0,1-1.189-1.494q-.443-.688-.826-1.412c-.218-.412-.362-.853-.561-1.272a4.4,4.4,0,0,1-.214-.716c-.1-.344-.215-.685-.308-1.03a5.658,5.658,0,0,0-.342-1.18.156.156,0,0,1-.02-.05,8.88,8.88,0,0,1-.265-2.131A.391.391,0,0,1,106,.507a2.573,2.573,0,0,1,.838-.27,2.655,2.655,0,0,0,1.266-.214.534.534,0,0,1,.24-.019c.74,0,1.481.011,2.221-.006.221-.005.379.14.591.159a11.15,11.15,0,0,0,1.324.06A11.888,11.888,0,0,1,114.7.509a7.909,7.909,0,0,1,1.358.313c.33.115.683.21,1.026.309a7.526,7.526,0,0,1,.874.327c.353.152.7.32,1.045.48a8.98,8.98,0,0,1,2.079,1.369,7.547,7.547,0,0,1,1.886,2.431,7.8,7.8,0,0,1,.543,1.534,8.917,8.917,0,0,1,.193,2.547.383.383,0,0,0,.348.439.5.5,0,0,0,.542-.42,3.449,3.449,0,0,0,.013-.433,5.513,5.513,0,0,1,.4-1.736,9.068,9.068,0,0,1,.553-1.3,8.667,8.667,0,0,1,1.065-1.575,10.083,10.083,0,0,1,2.162-1.9,11.093,11.093,0,0,1,1.462-.734c.49-.223,1-.367,1.5-.558a4.107,4.107,0,0,1,.876-.228c.665-.093,1.316-.259,1.994-.306A26.39,26.39,0,0,1,137.7.915c.946.044,1.883.188,2.829.247a5.694,5.694,0,0,1,1.378.214c.548.178,1.115.148,1.663.308A11.312,11.312,0,0,0,144.983,2a4.6,4.6,0,0,1,.974.288c.29.115.586.219.877.33a1.958,1.958,0,0,1,.869.731.091.091,0,0,1-.008.122,1.351,1.351,0,0,0-.162.594,4.475,4.475,0,0,1-.338.927c-.165.376-.34.747-.518,1.117-.252.524-.52,1.039-.8,1.549-.257.467-.5.947-.75,1.417a10.789,10.789,0,0,1-.954,1.4,15.147,15.147,0,0,1-2.305,2.368,14.565,14.565,0,0,1-1.712,1.2,12.674,12.674,0,0,1-1.516.79c-.429.193-.887.334-1.317.522-.393.172-.839.124-1.2.358a.311.311,0,0,1-.129.037,13.8,13.8,0,0,1-3.207.218" transform="translate(-94.311 0.001)" fill="#fff"/>
        <path id="Path_93233" data-name="Path 93233" d="M85.286,217.052c.186-2.119.168-4.241.206-6.362,0-.253.016-.505.016-.758,0-.32.036-.362.349-.358l2.166.029c1.3.018,2.6,0,3.9.092a7.687,7.687,0,0,1,2.037.487c.636.225,1.257.48,1.869.755.506.228,1,.486,1.487.755q1,.552,1.973,1.156.607.376,1.2.77a.694.694,0,0,0,.377.125c1.606.051,3.211.117,4.817.149a2.747,2.747,0,0,1,2.209.921,1.724,1.724,0,0,1,.4,1.749,2.827,2.827,0,0,1-1.317,1.5,5.837,5.837,0,0,1-1.154.568,5.969,5.969,0,0,1-1.151.273,13.56,13.56,0,0,1-3.132.048,7.613,7.613,0,0,0-1.567-.056,1.041,1.041,0,0,0-.919.949,1.123,1.123,0,0,0,.5,1.059,1.728,1.728,0,0,0,.986.214c1.227-.012,2.457,0,3.681-.084a7.928,7.928,0,0,0,2.692-.649,5.208,5.208,0,0,0,3.03-3.09c.093-.224.223-.429.3-.661a.607.607,0,0,1,.352-.346c.693-.311,1.371-.657,2.06-.98.544-.255,1.1-.49,1.642-.744s1.061-.516,1.6-.765,1.094-.5,1.64-.746c.227-.1.45-.217.676-.324a.652.652,0,0,1,.176-.065,5.135,5.135,0,0,1,2.256.005,3.268,3.268,0,0,1,2.132,1.8,3.074,3.074,0,0,1,.167,2.163,3.336,3.336,0,0,1-1.313,1.885c-.79.547-1.58,1.1-2.384,1.621-.729.476-1.476.924-2.217,1.38-.665.41-1.328.823-2,1.218s-1.355.776-2.039,1.153c-.769.423-1.54.842-2.318,1.248-.636.332-1.284.641-1.927.959-.53.263-1.057.533-1.592.784s-1.081.472-1.614.724a22.5,22.5,0,0,0-2.049,1,6.013,6.013,0,0,1-.927.427,9.534,9.534,0,0,1-1.346.466c-.524.117-1.058.219-1.578.341a7.534,7.534,0,0,1-1.98.111,13.619,13.619,0,0,1-3.84-.867,11.356,11.356,0,0,1-1.555-.736c-.707-.408-1.415-.813-2.139-1.191-.6-.311-1.179-.647-1.769-.97q-.932-.51-1.865-1.015c-.379-.206-.756-.415-1.136-.619-.128-.068-.134-.181-.133-.3.023-1.562.05-3.123.067-4.685.009-.839,0-1.678,0-2.517" transform="translate(-75.985 -186.868)" fill="#fff"/>
        <path id="Path_93234" data-name="Path 93234" d="M0,215.964H7.593V198.837H5.728A5.728,5.728,0,0,0,0,204.565Z" transform="translate(0 -177.295)" fill="#fff"/>
      </g>
    </g>
  </g>
</svg>
