<svg xmlns="http://www.w3.org/2000/svg" xmlns:xlink="http://www.w3.org/1999/xlink" width="60" height="60" viewBox="0 0 60 60">
  <defs>
    <clipPath id="clip-path">
      <rect id="Rectangle_15882" data-name="Rectangle 15882" width="60" height="60" transform="translate(245 3358)" fill="#fff"/>
    </clipPath>
  </defs>
  <g id="Mask_Group_50375" data-name="Mask Group 50375" transform="translate(-245 -3358)" clip-path="url(#clip-path)">
    <g id="Group_52458" data-name="Group 52458" transform="translate(0 1)">
      <g id="Group_52411" data-name="Group 52411" transform="translate(248 3365)">
        <path id="Path_93212" data-name="Path 93212" d="M37.367,51.45a2.371,2.371,0,0,0-1.392.289c-.667.432-.958.078-1.268-.426a4.693,4.693,0,0,1-.744-2.38,4.714,4.714,0,0,0-1.444-3.481c-.4-.381-.4-.6,0-.995q5.921-5.879,11.8-11.8c.346-.348.567-.419.939-.033a4.823,4.823,0,0,0,3.64,1.511,4.367,4.367,0,0,1,2.359.79c.463.292.537.529.1.953-1.295,1.256-2.609,2.5-3.8,3.847a4.007,4.007,0,0,0,2.012,6.6,3.83,3.83,0,0,0,3.821-1.031c1.226-1.2,2.451-2.4,3.627-3.644.444-.471.692-.413,1.116.013q6.518,6.56,13.065,13.09a2.28,2.28,0,0,1,.139,3.237,2.221,2.221,0,0,1-3.287-.027c-1.447-1.4-2.891-2.81-4.274-4.273-.65-.688-.828.024-1.157.276-.37.283-.655.535-.123,1.04,1.634,1.553,3.2,3.178,4.8,4.767a2.308,2.308,0,0,1,.686,2.541A2.26,2.26,0,0,1,64.142,63c-1.578-1.526-3.106-3.1-4.673-4.64-.209-.205-.382-.692-.75-.465a3.576,3.576,0,0,0-1,1.021c-.165.239.191.392.344.547,1.329,1.35,2.673,2.686,4.006,4.032,1.163,1.175,1.261,2.52.268,3.485-.954.926-2.369.782-3.51-.357-1.319-1.318-2.67-2.606-3.94-3.969-.545-.585-.79-.2-1.122.146s-.835.583-.173,1.169c1.056.935,2.024,1.972,3.007,2.987a2.146,2.146,0,0,1,.478,2.493,2.072,2.072,0,0,1-1.966,1.335c-.5.018-.742-.044-.621-.709A3.93,3.93,0,0,0,50.944,65.2c-.444-.069-.5-.23-.517-.625a3.913,3.913,0,0,0-3.548-4.163c-.5-.094-.6-.268-.606-.743a3.894,3.894,0,0,0-4.1-4.056c-.529,0-.614-.178-.693-.636a3.987,3.987,0,0,0-4.107-3.527" transform="translate(-25.829 -25.943)" fill="#fff"/>
        <path id="Path_93213" data-name="Path 93213" d="M125.787,41.744a6.977,6.977,0,0,0,4.066-1.492c.2-.172.626-.381.181-.662-.418-.264-.553-1.252-1.277-.737a4.478,4.478,0,0,1-5.74.012c-.409-.3-.571-.076-.805.158q-2.361,2.361-4.726,4.717a2.3,2.3,0,0,1-3.427.251,2.365,2.365,0,0,1,.248-3.45c1.671-1.689,3.366-3.354,5.045-5.035a4.507,4.507,0,0,1,3.138-1.382,4.817,4.817,0,0,0,3.552-1.506c.369-.4.592-.321.937.026q5.885,5.917,11.8,11.8c.4.4.4.609,0,1a4.8,4.8,0,0,0-1.458,3.479,4.5,4.5,0,0,1-.9,2.6c-.212.294-.387.423-.7.108-3.251-3.246-6.509-6.484-9.931-9.889" transform="translate(-90.926 -25.934)" fill="#fff"/>
        <path id="Path_93214" data-name="Path 93214" d="M18.931,3.694c-.15.169-.26.307-.384.432q-7.2,7.2-14.4,14.41c-.324.325-.557.448-.94.045-.95-1-1.919-1.991-2.932-2.93-.458-.425-.287-.636.061-.983Q6.467,8.563,12.573,2.435C13.294,1.713,14.025,1,14.732.262c.269-.28.45-.393.783-.045,1.018,1.063,2.074,2.089,3.114,3.131.1.1.188.214.3.345" transform="translate(0 -0.001)" fill="#fff"/>
        <path id="Path_93215" data-name="Path 93215" d="M199.4,15.382c-.168.185-.3.343-.448.49-.868.873-1.777,1.71-2.6,2.628-.543.607-.887.6-1.467.018-4.119-4.166-8.279-8.292-12.41-12.446-.713-.717-1.983-1.363-1.94-2.212.037-.742,1.224-1.443,1.934-2.129.557-.538,1.034-1.514,1.693-1.483.561.027,1.088.935,1.618,1.465q6.53,6.531,13.055,13.069c.186.186.36.385.561.6" transform="translate(-144.728 -0.198)" fill="#fff"/>
        <path id="Path_93216" data-name="Path 93216" d="M68.114,160.7c-.013,1.347-2.709,4.077-4.069,4.119a2.112,2.112,0,0,1-2.069-1.183,2.064,2.064,0,0,1,.239-2.446,24.668,24.668,0,0,1,2.293-2.292,2.055,2.055,0,0,1,2.37-.233,2.1,2.1,0,0,1,1.236,2.036" transform="translate(-49.45 -126.981)" fill="#fff"/>
        <path id="Path_93217" data-name="Path 93217" d="M44.22,137.622a2.2,2.2,0,0,1,2.1,1.212,2.024,2.024,0,0,1-.2,2.356,13.3,13.3,0,0,1-1.7,1.726,2.175,2.175,0,0,1-2.743.019,2.141,2.141,0,0,1-.722-2.57,6.133,6.133,0,0,1,2.538-2.574,2.149,2.149,0,0,1,.722-.169" transform="translate(-32.69 -110.326)" fill="#fff"/>
        <path id="Path_93218" data-name="Path 93218" d="M88.221,188.278a2.229,2.229,0,0,1-2.162-1.245,1.99,1.99,0,0,1,.18-2.279,12.732,12.732,0,0,1,1.833-1.838,2.083,2.083,0,0,1,2.657.073,2.106,2.106,0,0,1,.692,2.574,6.094,6.094,0,0,1-2.555,2.554,2.186,2.186,0,0,1-.644.161" transform="translate(-68.771 -146.28)" fill="#fff"/>
        <path id="Path_93219" data-name="Path 93219" d="M115.208,208.976a3.16,3.16,0,0,1-2.866,2.935,2.16,2.16,0,0,1-2.226-2.2,3.225,3.225,0,0,1,2.824-2.895,2.16,2.16,0,0,1,2.268,2.159" transform="translate(-88.276 -165.797)" fill="#fff"/>
      </g>
    </g>
  </g>
</svg>
